{
.appVersion = "3151";
DisplayStrings = (
"pyszna/space bu/lslash ka\012ze/space s/lslash onecznikiem",

glyphs = (
{
glyphname = A;
lastChange = "2017-11-08 08:56:48 +0000";
layers = (
{
anchors = (
{
name = bottom;
position = "{318, 0}";
},
{
name = ogonek;
position = "{640, 0}";
},
{
name = top;
position = "{318, 750}";
}
);
layerId = "9C4F76E1-3798-46C8-A886-41EF97D6106F";
paths = (
{
closed = 1;
nodes = (
"640 0 LINE",
"591 150 LINE",
"461 600 LINE",
"431 750 LINE",
"271 750 LINE",
"442 150 LINE",
"465 0 LINE"
);
},
{
closed = 1;
nodes = (
"503 152 LINE",
"503 290 LINE",
"132 288 LINE",
"132 150 LINE"
);
},
{
closed = 1;
nodes = (
"163 0 LINE",
"186 150 LINE",
"350 750 LINE",
"210 750 LINE",
"180 600 LINE",
"57 150 LINE",
"8 0 LINE"
);
}
);
width = 648;
},
{
anchors = (
{
name = bottom;
position = "{332, 0}";
},
{
name = ogonek;
position = "{619, 0}";
},
{
name = top;
position = "{332, 750}";
}
);
layerId = "3B8C7C8F-80C4-4490-BC4D-FB44BC992E9B";
paths = (
{
closed = 1;
nodes = (
"619 0 LINE",
"566 150 LINE",
"421 600 LINE",
"381 750 LINE",
"298 750 LINE",
"476 150 LINE",
"517 0 LINE"
);
},
{
closed = 1;
nodes = (
"488 201 LINE",
"488 279 LINE",
"167 277 LINE",
"167 199 LINE"
);
},
{
closed = 1;
nodes = (
"136 0 LINE",
"175 150 LINE",
"357 750 LINE",
"282 750 LINE",
"240 600 LINE",
"95 150 LINE",
"42 0 LINE"
);
}
);
width = 661;
}
);
leftKerningGroup = A;
rightKerningGroup = A;
unicode = 0041;
},
{
glyphname = AE;
lastChange = "2017-11-08 09:11:16 +0000";
layers = (
{
anchors = (
{
name = bottom;
position = "{441, 0}";
},
{
name = top;
position = "{441, 750}";
}
);
layerId = "9C4F76E1-3798-46C8-A886-41EF97D6106F";
paths = (
{
closed = 1;
nodes = (
"114 0 LINE",
"168 150 LINE",
"462 750 LINE",
"303 750 LINE",
"242 605 LINE",
"19 150 LINE",
"-69 0 LINE"
);
},
{
closed = 1;
nodes = (
"543 0 LINE",
"543 750 LINE",
"399 750 LINE",
"399 0 LINE"
);
},
{
closed = 1;
nodes = (
"474 152 LINE",
"474 290 LINE",
"103 288 LINE",
"103 150 LINE"
);
},
{
closed = 1;
nodes = (
"822 612 LINE",
"844 750 LINE",
"434 750 LINE",
"434 612 LINE"
);
},
{
closed = 1;
nodes = (
"775 317 LINE",
"797 455 LINE",
"434 455 LINE",
"434 317 LINE"
);
},
{
closed = 1;
nodes = (
"832 0 LINE",
"854 138 LINE",
"434 138 LINE",
"434 0 LINE"
);
}
);
width = 882;
},
{
anchors = (
{
name = bottom;
position = "{476, 0}";
},
{
name = top;
position = "{476, 750}";
}
);
layerId = "3B8C7C8F-80C4-4490-BC4D-FB44BC992E9B";
paths = (
{
closed = 1;
nodes = (
"119 0 LINE",
"187 150 LINE",
"486 750 LINE",
"398 750 LINE",
"327 600 LINE",
"92 150 LINE",
"10 0 LINE"
);
},
{
closed = 1;
nodes = (
"539 0 LINE",
"539 750 LINE",
"457 750 LINE",
"457 0 LINE"
);
},
{
closed = 1;
nodes = (
"505 201 LINE",
"505 279 LINE",
"187 277 LINE",
"187 199 LINE"
);
},
{
closed = 1;
nodes = (
"860 672 LINE",
"872 750 LINE",
"492 750 LINE",
"492 672 LINE"
);
},
{
closed = 1;
nodes = (
"814 347 LINE",
"826 425 LINE",
"492 425 LINE",
"492 347 LINE"
);
},
{
closed = 1;
nodes = (
"867 0 LINE",
"879 78 LINE",
"492 78 LINE",
"492 0 LINE"
);
}
);
width = 934;
},
{
associatedMasterId = "3B8C7C8F-80C4-4490-BC4D-FB44BC992E9B";
layerId = "0CCCA886-ABC7-4903-93D3-A90FFA06A20B";
name = "Sep 22 17, 11:51";
paths = (
{
closed = 1;
nodes = (
"490 0 LINE",
"490 750 LINE",
"408 750 LINE",
"408 0 LINE"
);
},
{
closed = 1;
nodes = (
"811 672 LINE",
"823 750 LINE",
"443 750 LINE",
"443 672 LINE"
);
},
{
closed = 1;
nodes = (
"765 347 LINE",
"777 425 LINE",
"443 425 LINE",
"443 347 LINE"
);
},
{
closed = 1;
nodes = (
"818 0 LINE",
"830 78 LINE",
"443 78 LINE",
"443 0 LINE"
);
},
{
closed = 1;
nodes = (
"456 201 LINE",
"456 279 LINE",
"158 277 LINE",
"158 199 LINE"
);
},
{
closed = 1;
nodes = (
"93 0 LINE",
"158 150 LINE",
"437 750 LINE",
"350 750 LINE",
"284 600 LINE",
"64 150 LINE",
"-15 0 LINE"
);
}
);
width = 863;
}
);
leftKerningGroup = AE;
rightKerningGroup = E;
rightMetricsKey = E;
unicode = 00C6;
},
{
glyphname = B;
lastChange = "2017-11-08 09:12:53 +0000";
layers = (
{
anchors = (
{
name = bottom;
position = "{316, 0}";
},
{
name = top;
position = "{316, 750}";
}
);
background = {
paths = (
{
closed = 1;
nodes = (
"195 750 LINE",
"195 612 LINE",
"301 612 LINE SMOOTH",
"416 612 OFFCURVE",
"453 581 OFFCURVE",
"453 483 CURVE SMOOTH",
"453 387 OFFCURVE",
"416 358 OFFCURVE",
"299 358 CURVE SMOOTH",
"201 358 LINE",
"201 220 LINE",
"340 220 LINE SMOOTH",
"499 220 OFFCURVE",
"603 318 OFFCURVE",
"603 483 CURVE SMOOTH",
"603 659 OFFCURVE",
"499 750 OFFCURVE",
"341 750 CURVE SMOOTH"
);
},
{
closed = 1;
nodes = (
"201 530 LINE",
"201 392 LINE",
"307 392 LINE SMOOTH",
"422 392 OFFCURVE",
"459 361 OFFCURVE",
"459 263 CURVE SMOOTH",
"459 167 OFFCURVE",
"422 138 OFFCURVE",
"305 138 CURVE SMOOTH",
"207 138 LINE",
"207 0 LINE",
"346 0 LINE SMOOTH",
"505 0 OFFCURVE",
"609 98 OFFCURVE",
"609 263 CURVE SMOOTH",
"609 439 OFFCURVE",
"505 530 OFFCURVE",
"347 530 CURVE SMOOTH"
);
}
);
};
layerId = "9C4F76E1-3798-46C8-A886-41EF97D6106F";
paths = (
{
closed = 1;
nodes = (
"214 0 LINE",
"214 750 LINE",
"60 750 LINE",
"70 605 LINE",
"70 150 LINE",
"60 0 LINE"
);
},
{
closed = 1;
nodes = (
"340 357 LINE SMOOTH",
"474 357 OFFCURVE",
"564 425 OFFCURVE",
"564 531 CURVE SMOOTH",
"564 661 OFFCURVE",
"479 750 OFFCURVE",
"341 750 CURVE SMOOTH",
"195 750 LINE",
"195 612 LINE",
"311 612 LINE SMOOTH",
"383 612 OFFCURVE",
"414 585 OFFCURVE",
"414 531 CURVE SMOOTH",
"414 479 OFFCURVE",
"383 455 OFFCURVE",
"309 455 CURVE SMOOTH",
"201 455 LINE",
"201 357 LINE"
);
},
{
closed = 1;
nodes = (
"340 0 LINE SMOOTH",
"494 0 OFFCURVE",
"609 91 OFFCURVE",
"609 225 CURVE SMOOTH",
"609 351 OFFCURVE",
"490 418 OFFCURVE",
"341 418 CURVE SMOOTH",
"195 418 LINE",
"195 317 LINE",
"342 317 LINE SMOOTH",
"420 317 OFFCURVE",
"459 283 OFFCURVE",
"459 225 CURVE SMOOTH",
"459 171 OFFCURVE",
"417 138 OFFCURVE",
"340 138 CURVE SMOOTH",
"201 138 LINE",
"201 0 LINE"
);
}
);
width = 642;
},
{
anchors = (
{
name = bottom;
position = "{363, 0}";
},
{
name = top;
position = "{363, 750}";
}
);
layerId = "3B8C7C8F-80C4-4490-BC4D-FB44BC992E9B";
paths = (
{
closed = 1;
nodes = (
"182 0 LINE",
"182 750 LINE",
"95 750 LINE",
"100 605 LINE",
"100 150 LINE",
"95 0 LINE"
);
},
{
closed = 1;
nodes = (
"346 357 LINE SMOOTH",
"493 357 OFFCURVE",
"570 429 OFFCURVE",
"570 541 CURVE SMOOTH",
"570 665 OFFCURVE",
"483 750 OFFCURVE",
"347 750 CURVE SMOOTH",
"171 750 LINE",
"171 672 LINE",
"317 672 LINE SMOOTH",
"433 672 OFFCURVE",
"483 627 OFFCURVE",
"483 541 CURVE SMOOTH",
"483 459 OFFCURVE",
"436 425 OFFCURVE",
"315 425 CURVE SMOOTH",
"177 425 LINE",
"177 357 LINE"
);
},
{
closed = 1;
nodes = (
"346 0 LINE SMOOTH",
"513 0 OFFCURVE",
"605 83 OFFCURVE",
"605 225 CURVE SMOOTH",
"605 350 OFFCURVE",
"509 418 OFFCURVE",
"347 418 CURVE SMOOTH",
"171 418 LINE",
"171 347 LINE",
"348 347 LINE SMOOTH",
"466 347 OFFCURVE",
"518 312 OFFCURVE",
"518 225 CURVE SMOOTH",
"518 134 OFFCURVE",
"456 78 OFFCURVE",
"346 78 CURVE SMOOTH",
"177 78 LINE",
"177 0 LINE"
);
}
);
width = 660;
},
{
anchors = (
{
name = bottom;
position = "{333, 0}";
},
{
name = top;
position = "{333, 750}";
}
);
associatedMasterId = "3B8C7C8F-80C4-4490-BC4D-FB44BC992E9B";
layerId = "304ABE5B-5486-4A45-92B6-7F9179175071";
name = "Sep 21 17, 09:53";
paths = (
{
closed = 1;
nodes = (
"152 0 LINE",
"152 750 LINE",
"65 750 LINE",
"70 605 LINE",
"70 150 LINE",
"65 0 LINE"
);
},
{
closed = 1;
nodes = (
"316 357 LINE SMOOTH",
"450 357 OFFCURVE",
"540 426 OFFCURVE",
"540 541 CURVE SMOOTH",
"540 665 OFFCURVE",
"453 750 OFFCURVE",
"317 750 CURVE SMOOTH",
"141 750 LINE",
"141 672 LINE",
"287 672 LINE SMOOTH",
"403 672 OFFCURVE",
"453 627 OFFCURVE",
"453 541 CURVE SMOOTH",
"453 465 OFFCURVE",
"397 425 OFFCURVE",
"285 425 CURVE SMOOTH",
"147 425 LINE",
"147 357 LINE"
);
},
{
closed = 1;
nodes = (
"316 0 LINE SMOOTH",
"488 0 OFFCURVE",
"585 81 OFFCURVE",
"585 225 CURVE SMOOTH",
"585 351 OFFCURVE",
"466 418 OFFCURVE",
"317 418 CURVE SMOOTH",
"141 418 LINE",
"141 347 LINE",
"318 347 LINE SMOOTH",
"442 347 OFFCURVE",
"498 308 OFFCURVE",
"498 225 CURVE SMOOTH",
"498 131 OFFCURVE",
"433 78 OFFCURVE",
"316 78 CURVE SMOOTH",
"147 78 LINE",
"147 0 LINE"
);
}
);
width = 607;
}
);
leftMetricsKey = H;
unicode = 0042;
},
{
glyphname = C;
lastChange = "2017-11-07 07:35:44 +0000";
layers = (
{
anchors = (
{
name = bottom;
position = "{318, 0}";
},
{
name = top;
position = "{318, 750}";
}
);
background = {
paths = (
{
closed = 1;
nodes = (
"527 -16 OFFCURVE",
"622 123 OFFCURVE",
"622 378 CURVE SMOOTH",
"622 631 OFFCURVE",
"527 766 OFFCURVE",
"330 766 CURVE SMOOTH",
"133 766 OFFCURVE",
"38 631 OFFCURVE",
"38 378 CURVE SMOOTH",
"38 123 OFFCURVE",
"133 -16 OFFCURVE",
"330 -16 CURVE SMOOTH"
);
},
{
closed = 1;
nodes = (
"472 187 OFFCURVE",
"435 125 OFFCURVE",
"330 125 CURVE SMOOTH",
"225 125 OFFCURVE",
"188 187 OFFCURVE",
"188 378 CURVE SMOOTH",
"188 563 OFFCURVE",
"225 625 OFFCURVE",
"330 625 CURVE SMOOTH",
"435 625 OFFCURVE",
"472 563 OFFCURVE",
"472 378 CURVE SMOOTH"
);
},
{
closed = 1;
nodes = (
"448 475 OFFCURVE",
"477 462 OFFCURVE",
"506 433 CURVE",
"522 440 LINE",
"544 565 LINE",
"499 599 OFFCURVE",
"460 613 OFFCURVE",
"366 613 CURVE SMOOTH",
"198 613 OFFCURVE",
"118 493 OFFCURVE",
"118 296 CURVE SMOOTH",
"118 96 OFFCURVE",
"192 -15 OFFCURVE",
"366 -15 CURVE SMOOTH",
"442 -15 OFFCURVE",
"462 -6 OFFCURVE",
"520 37 CURVE",
"553 166 LINE",
"544 170 LINE",
"513 140 OFFCURVE",
"468 125 OFFCURVE",
"396 125 CURVE SMOOTH",
"287 125 OFFCURVE",
"262 164 OFFCURVE",
"262 296 CURVE SMOOTH",
"262 423 OFFCURVE",
"294 475 OFFCURVE",
"381 475 CURVE SMOOTH"
);
}
);
};
layerId = "9C4F76E1-3798-46C8-A886-41EF97D6106F";
paths = (
{
closed = 1;
nodes = (
"417 -16 OFFCURVE",
"470 7 OFFCURVE",
"518 58 CURVE",
"548 175 LINE",
"527 183 LINE",
"490 144 OFFCURVE",
"437 125 OFFCURVE",
"351 125 CURVE SMOOTH",
"227 125 OFFCURVE",
"188 185 OFFCURVE",
"188 378 CURVE SMOOTH",
"188 558 OFFCURVE",
"229 625 OFFCURVE",
"351 625 CURVE SMOOTH",
"425 625 OFFCURVE",
"462 611 OFFCURVE",
"496 571 CURVE",
"516 580 LINE",
"538 707 LINE",
"480 751 OFFCURVE",
"437 766 OFFCURVE",
"351 766 CURVE SMOOTH",
"123 766 OFFCURVE",
"38 638 OFFCURVE",
"38 378 CURVE SMOOTH",
"38 100 OFFCURVE",
"125 -16 OFFCURVE",
"351 -16 CURVE SMOOTH"
);
}
);
width = 569;
},
{
anchors = (
{
name = bottom;
position = "{328, 0}";
},
{
name = top;
position = "{328, 750}";
}
);
associatedMasterId = "9C4F76E1-3798-46C8-A886-41EF97D6106F";
background = {
paths = (
{
closed = 1;
nodes = (
"537 -16 OFFCURVE",
"632 123 OFFCURVE",
"632 378 CURVE SMOOTH",
"632 631 OFFCURVE",
"537 766 OFFCURVE",
"340 766 CURVE SMOOTH",
"143 766 OFFCURVE",
"48 631 OFFCURVE",
"48 378 CURVE SMOOTH",
"48 123 OFFCURVE",
"143 -16 OFFCURVE",
"340 -16 CURVE SMOOTH"
);
},
{
closed = 1;
nodes = (
"482 187 OFFCURVE",
"445 125 OFFCURVE",
"340 125 CURVE SMOOTH",
"235 125 OFFCURVE",
"198 187 OFFCURVE",
"198 378 CURVE SMOOTH",
"198 563 OFFCURVE",
"235 625 OFFCURVE",
"340 625 CURVE SMOOTH",
"445 625 OFFCURVE",
"482 563 OFFCURVE",
"482 378 CURVE SMOOTH"
);
},
{
closed = 1;
nodes = (
"458 475 OFFCURVE",
"487 462 OFFCURVE",
"516 433 CURVE",
"532 440 LINE",
"554 565 LINE",
"509 599 OFFCURVE",
"470 613 OFFCURVE",
"376 613 CURVE SMOOTH",
"208 613 OFFCURVE",
"128 493 OFFCURVE",
"128 296 CURVE SMOOTH",
"128 96 OFFCURVE",
"202 -15 OFFCURVE",
"376 -15 CURVE SMOOTH",
"452 -15 OFFCURVE",
"472 -6 OFFCURVE",
"530 37 CURVE",
"563 166 LINE",
"554 170 LINE",
"523 140 OFFCURVE",
"478 125 OFFCURVE",
"406 125 CURVE SMOOTH",
"297 125 OFFCURVE",
"272 164 OFFCURVE",
"272 296 CURVE SMOOTH",
"272 423 OFFCURVE",
"304 475 OFFCURVE",
"391 475 CURVE SMOOTH"
);
}
);
};
layerId = "E5F2B3AF-C07E-4542-AC12-F61866E69AC0";
name = "Sep 12 17, 10:01";
paths = (
{
closed = 1;
nodes = (
"427 -16 OFFCURVE",
"480 7 OFFCURVE",
"528 58 CURVE",
"561 187 LINE",
"547 193 LINE",
"505 145 OFFCURVE",
"447 125 OFFCURVE",
"361 125 CURVE SMOOTH",
"237 125 OFFCURVE",
"198 185 OFFCURVE",
"198 378 CURVE SMOOTH",
"198 558 OFFCURVE",
"239 625 OFFCURVE",
"361 625 CURVE SMOOTH",
"435 625 OFFCURVE",
"472 611 OFFCURVE",
"506 571 CURVE",
"526 580 LINE",
"548 707 LINE",
"490 751 OFFCURVE",
"447 766 OFFCURVE",
"361 766 CURVE SMOOTH",
"133 766 OFFCURVE",
"48 638 OFFCURVE",
"48 378 CURVE SMOOTH",
"48 100 OFFCURVE",
"135 -16 OFFCURVE",
"361 -16 CURVE SMOOTH"
);
}
);
width = 579;
},
{
anchors = (
{
name = bottom;
position = "{355, 0}";
},
{
name = top;
position = "{355, 750}";
}
);
background = {
paths = (
{
closed = 1;
nodes = (
"536 -16 OFFCURVE",
"636 114 OFFCURVE",
"636 378 CURVE SMOOTH",
"636 640 OFFCURVE",
"536 766 OFFCURVE",
"359 766 CURVE SMOOTH",
"182 766 OFFCURVE",
"82 640 OFFCURVE",
"82 378 CURVE SMOOTH",
"82 114 OFFCURVE",
"182 -16 OFFCURVE",
"359 -16 CURVE SMOOTH"
);
},
{
closed = 1;
nodes = (
"231 65 OFFCURVE",
"169 153 OFFCURVE",
"169 378 CURVE SMOOTH",
"169 597 OFFCURVE",
"231 685 OFFCURVE",
"359 685 CURVE SMOOTH",
"487 685 OFFCURVE",
"549 597 OFFCURVE",
"549 378 CURVE SMOOTH",
"549 153 OFFCURVE",
"487 65 OFFCURVE",
"359 65 CURVE SMOOTH"
);
},
{
closed = 1;
nodes = (
"466 101 OFFCURVE",
"507 115 OFFCURVE",
"560 155 CURVE",
"578 226 LINE",
"561 234 LINE",
"508 191 OFFCURVE",
"474 179 OFFCURVE",
"408 179 CURVE SMOOTH",
"290 179 OFFCURVE",
"240 249 OFFCURVE",
"240 412 CURVE SMOOTH",
"240 576 OFFCURVE",
"290 651 OFFCURVE",
"407 651 CURVE SMOOTH",
"466 651 OFFCURVE",
"505 637 OFFCURVE",
"539 604 CURVE",
"554 611 LINE",
"568 682 LINE",
"521 716 OFFCURVE",
"478 729 OFFCURVE",
"397 729 CURVE SMOOTH",
"238 729 OFFCURVE",
"156 615 OFFCURVE",
"156 412 CURVE SMOOTH",
"156 206 OFFCURVE",
"235 101 OFFCURVE",
"392 101 CURVE SMOOTH"
);
}
);
};
layerId = "3B8C7C8F-80C4-4490-BC4D-FB44BC992E9B";
paths = (
{
closed = 1;
nodes = (
"445 -16 OFFCURVE",
"500 4 OFFCURVE",
"547 38 CURVE",
"565 109 LINE",
"548 117 LINE",
"503 79 OFFCURVE",
"461 65 OFFCURVE",
"385 65 CURVE SMOOTH",
"219 65 OFFCURVE",
"162 146 OFFCURVE",
"162 378 CURVE SMOOTH",
"162 594 OFFCURVE",
"236 685 OFFCURVE",
"385 685 CURVE SMOOTH",
"447 685 OFFCURVE",
"492 669 OFFCURVE",
"525 636 CURVE",
"545 645 LINE",
"559 716 LINE SMOOTH",
"517 750 OFFCURVE",
"468 766 OFFCURVE",
"385 766 CURVE SMOOTH",
"166 766 OFFCURVE",
"72 627 OFFCURVE",
"72 378 CURVE SMOOTH",
"72 96 OFFCURVE",
"157 -16 OFFCURVE",
"385 -16 CURVE SMOOTH"
);
}
);
width = 615;
}
);
leftKerningGroup = O;
leftMetricsKey = O;
rightKerningGroup = C;
unicode = 0043;
},
{
glyphname = D;
lastChange = "2017-11-07 07:31:55 +0000";
layers = (
{
anchors = (
{
name = bottom;
position = "{324, 0}";
},
{
name = center;
position = "{180, 375}";
},
{
name = top;
position = "{324, 750}";
}
);
background = {
paths = (
{
closed = 1;
nodes = (
"527 -16 OFFCURVE",
"622 123 OFFCURVE",
"622 378 CURVE SMOOTH",
"622 631 OFFCURVE",
"527 766 OFFCURVE",
"330 766 CURVE SMOOTH",
"133 766 OFFCURVE",
"38 631 OFFCURVE",
"38 378 CURVE SMOOTH",
"38 123 OFFCURVE",
"133 -16 OFFCURVE",
"330 -16 CURVE SMOOTH"
);
},
{
closed = 1;
nodes = (
"472 187 OFFCURVE",
"435 125 OFFCURVE",
"330 125 CURVE SMOOTH",
"225 125 OFFCURVE",
"188 187 OFFCURVE",
"188 378 CURVE SMOOTH",
"188 563 OFFCURVE",
"225 625 OFFCURVE",
"330 625 CURVE SMOOTH",
"435 625 OFFCURVE",
"472 563 OFFCURVE",
"472 378 CURVE SMOOTH"
);
}
);
};
layerId = "9C4F76E1-3798-46C8-A886-41EF97D6106F";
paths = (
{
closed = 1;
nodes = (
"318 0 LINE SMOOTH",
"521 0 OFFCURVE",
"610 129 OFFCURVE",
"610 378 CURVE SMOOTH",
"610 625 OFFCURVE",
"521 750 OFFCURVE",
"318 750 CURVE SMOOTH",
"189 750 LINE",
"189 612 LINE",
"318 612 LINE SMOOTH",
"423 612 OFFCURVE",
"460 563 OFFCURVE",
"460 378 CURVE SMOOTH",
"460 203 OFFCURVE",
"423 138 OFFCURVE",
"318 138 CURVE SMOOTH",
"195 138 LINE",
"195 0 LINE"
);
},
{
closed = 1;
nodes = (
"214 0 LINE",
"214 750 LINE",
"60 750 LINE",
"70 605 LINE",
"70 150 LINE",
"60 0 LINE"
);
}
);
width = 648;
},
{
anchors = (
{
name = bottom;
position = "{333, 0}";
},
{
name = center;
position = "{186, 375}";
},
{
name = top;
position = "{333, 750}";
}
);
layerId = "3B8C7C8F-80C4-4490-BC4D-FB44BC992E9B";
paths = (
{
closed = 1;
nodes = (
"320 0 LINE SMOOTH",
"508 0 OFFCURVE",
"592 119 OFFCURVE",
"592 378 CURVE SMOOTH",
"592 640 OFFCURVE",
"510 750 OFFCURVE",
"320 750 CURVE SMOOTH",
"151 750 LINE",
"151 672 LINE",
"320 672 LINE SMOOTH",
"450 672 OFFCURVE",
"502 593 OFFCURVE",
"502 378 CURVE SMOOTH",
"502 168 OFFCURVE",
"450 78 OFFCURVE",
"320 78 CURVE SMOOTH",
"157 78 LINE",
"157 0 LINE"
);
},
{
closed = 1;
nodes = (
"184 0 LINE",
"184 750 LINE",
"95 750 LINE",
"100 605 LINE",
"100 150 LINE",
"95 0 LINE"
);
}
);
width = 664;
}
);
leftMetricsKey = H;
rightKerningGroup = O;
rightMetricsKey = O;
unicode = 0044;
},
{
glyphname = E;
lastChange = "2017-11-08 09:10:40 +0000";
layers = (
{
anchors = (
{
name = bottom;
position = "{270, 0}";
},
{
name = ogonek;
position = "{503, 0}";
},
{
name = top;
position = "{280, 750}";
},
{
name = topleft;
position = "{10, 750}";
}
);
background = {
paths = (
{
closed = 1;
nodes = (
"345 636 OFFCURVE",
"363 654 OFFCURVE",
"406 654 CURVE SMOOTH",
"448 654 OFFCURVE",
"466 649 OFFCURVE",
"484 632 CURVE",
"499 629 LINE",
"518 750 LINE",
"489 778 OFFCURVE",
"441 794 OFFCURVE",
"366 794 CURVE SMOOTH",
"252 794 OFFCURVE",
"205 732 OFFCURVE",
"205 551 CURVE",
"345 593 LINE"
);
}
);
};
layerId = "9C4F76E1-3798-46C8-A886-41EF97D6106F";
paths = (
{
closed = 1;
nodes = (
"214 0 LINE",
"214 750 LINE",
"60 750 LINE",
"70 605 LINE",
"70 150 LINE",
"60 0 LINE"
);
},
{
closed = 1;
nodes = (
"493 612 LINE",
"515 750 LINE",
"105 750 LINE",
"105 612 LINE"
);
},
{
closed = 1;
nodes = (
"446 317 LINE",
"468 455 LINE",
"105 455 LINE",
"105 317 LINE"
);
},
{
closed = 1;
nodes = (
"503 0 LINE",
"525 138 LINE",
"105 138 LINE",
"105 0 LINE"
);
}
);
width = 553;
},
{
anchors = (
{
name = bottom;
position = "{299, 0}";
},
{
name = ogonek;
position = "{510, 0}";
},
{
name = top;
position = "{299, 750}";
},
{
name = topleft;
position = "{50, 750}";
}
);
layerId = "3B8C7C8F-80C4-4490-BC4D-FB44BC992E9B";
paths = (
{
closed = 1;
nodes = (
"182 0 LINE",
"182 750 LINE",
"95 750 LINE",
"100 605 LINE",
"100 150 LINE",
"95 0 LINE"
);
},
{
closed = 1;
nodes = (
"503 672 LINE",
"515 750 LINE",
"135 750 LINE",
"135 672 LINE"
);
},
{
closed = 1;
nodes = (
"457 347 LINE",
"469 425 LINE",
"135 425 LINE",
"135 347 LINE"
);
},
{
closed = 1;
nodes = (
"510 0 LINE",
"522 78 LINE",
"135 78 LINE",
"135 0 LINE"
);
}
);
width = 577;
}
);
leftKerningGroup = H;
leftMetricsKey = H;
rightKerningGroup = E;
unicode = 0045;
},
{
glyphname = F;
lastChange = "2017-11-08 09:42:38 +0000";
layers = (
{
anchors = (
{
name = bottom;
position = "{263, 0}";
},
{
name = top;
position = "{263, 750}";
}
);
layerId = "9C4F76E1-3798-46C8-A886-41EF97D6106F";
paths = (
{
closed = 1;
nodes = (
"224 0 LINE",
"214 150 LINE",
"214 750 LINE",
"60 750 LINE",
"70 605 LINE",
"70 150 LINE",
"60 0 LINE"
);
},
{
closed = 1;
nodes = (
"493 612 LINE",
"515 750 LINE",
"105 750 LINE",
"105 612 LINE"
);
},
{
closed = 1;
nodes = (
"443 317 LINE",
"465 455 LINE",
"105 455 LINE",
"105 317 LINE"
);
}
);
width = 531;
},
{
anchors = (
{
name = bottom;
position = "{276, 0}";
},
{
name = top;
position = "{276, 750}";
}
);
layerId = "3B8C7C8F-80C4-4490-BC4D-FB44BC992E9B";
paths = (
{
closed = 1;
nodes = (
"187 0 LINE",
"182 150 LINE",
"182 750 LINE",
"95 750 LINE",
"100 605 LINE",
"100 150 LINE",
"95 0 LINE"
);
},
{
closed = 1;
nodes = (
"503 672 LINE",
"515 750 LINE",
"135 750 LINE",
"135 672 LINE"
);
},
{
closed = 1;
nodes = (
"457 347 LINE",
"469 425 LINE",
"135 425 LINE",
"135 347 LINE"
);
}
);
width = 553;
}
);
leftMetricsKey = H;
rightKerningGroup = F;
unicode = 0046;
},
{
glyphname = G;
lastChange = "2017-11-07 07:44:51 +0000";
layers = (
{
anchors = (
{
name = bottom;
position = "{342, 0}";
},
{
name = top;
position = "{342, 750}";
}
);
background = {
paths = (
{
closed = 1;
nodes = (
"527 -16 OFFCURVE",
"622 123 OFFCURVE",
"622 378 CURVE SMOOTH",
"622 631 OFFCURVE",
"527 766 OFFCURVE",
"330 766 CURVE SMOOTH",
"133 766 OFFCURVE",
"38 631 OFFCURVE",
"38 378 CURVE SMOOTH",
"38 123 OFFCURVE",
"133 -16 OFFCURVE",
"330 -16 CURVE SMOOTH"
);
},
{
closed = 1;
nodes = (
"225 125 OFFCURVE",
"188 187 OFFCURVE",
"188 378 CURVE SMOOTH",
"188 563 OFFCURVE",
"225 625 OFFCURVE",
"330 625 CURVE SMOOTH",
"435 625 OFFCURVE",
"472 563 OFFCURVE",
"472 378 CURVE SMOOTH",
"472 187 OFFCURVE",
"435 125 OFFCURVE",
"330 125 CURVE SMOOTH"
);
}
);
};
layerId = "9C4F76E1-3798-46C8-A886-41EF97D6106F";
paths = (
{
closed = 1;
nodes = (
"38 100 OFFCURVE",
"125 -16 OFFCURVE",
"319 -16 CURVE SMOOTH",
"387.978 -16 OFFCURVE",
"459.427 21.892 OFFCURVE",
"493.723 74.501 CURVE",
"519 0 LINE",
"599 0 LINE",
"599 430 LINE",
"315 430 LINE",
"315 292 LINE",
"459 292 LINE",
"459 172 OFFCURVE",
"419 125 OFFCURVE",
"329 125 CURVE SMOOTH",
"223 125 OFFCURVE",
"188 187 OFFCURVE",
"188 378 CURVE SMOOTH",
"188 558 OFFCURVE",
"229 625 OFFCURVE",
"351 625 CURVE SMOOTH",
"422 625 OFFCURVE",
"487 598 OFFCURVE",
"523 555 CURVE",
"543 564 LINE",
"565 691 LINE",
"497 743 OFFCURVE",
"421 766 OFFCURVE",
"351 766 CURVE SMOOTH",
"123 766 OFFCURVE",
"38 638 OFFCURVE",
"38 378 CURVE SMOOTH"
);
}
);
width = 644;
},
{
associatedMasterId = "9C4F76E1-3798-46C8-A886-41EF97D6106F";
background = {
paths = (
{
closed = 1;
nodes = (
"537 -16 OFFCURVE",
"632 123 OFFCURVE",
"632 378 CURVE SMOOTH",
"632 631 OFFCURVE",
"537 766 OFFCURVE",
"340 766 CURVE SMOOTH",
"143 766 OFFCURVE",
"48 631 OFFCURVE",
"48 378 CURVE SMOOTH",
"48 123 OFFCURVE",
"143 -16 OFFCURVE",
"340 -16 CURVE SMOOTH"
);
},
{
closed = 1;
nodes = (
"482 187 OFFCURVE",
"445 125 OFFCURVE",
"340 125 CURVE SMOOTH",
"235 125 OFFCURVE",
"198 187 OFFCURVE",
"198 378 CURVE SMOOTH",
"198 563 OFFCURVE",
"235 625 OFFCURVE",
"340 625 CURVE SMOOTH",
"445 625 OFFCURVE",
"482 563 OFFCURVE",
"482 378 CURVE SMOOTH"
);
}
);
};
layerId = "BF5AD7F3-7AE0-4B56-94F0-85EC0FBB238F";
name = "Sep 4 17, 14:25";
paths = (
{
closed = 1;
nodes = (
"435 625 OFFCURVE",
"472 611 OFFCURVE",
"506 571 CURVE",
"526 580 LINE",
"548 707 LINE",
"490 751 OFFCURVE",
"447 766 OFFCURVE",
"361 766 CURVE SMOOTH",
"133 766 OFFCURVE",
"48 638 OFFCURVE",
"48 378 CURVE SMOOTH",
"48 100 OFFCURVE",
"135 -16 OFFCURVE",
"329 -16 CURVE SMOOTH",
"423 -16 OFFCURVE",
"503 54 OFFCURVE",
"514 125 CURVE SMOOTH",
"549 343 LINE",
"459 292 LINE",
"459 170 OFFCURVE",
"422 125 OFFCURVE",
"339 125 CURVE SMOOTH",
"233 125 OFFCURVE",
"198 187 OFFCURVE",
"198 378 CURVE SMOOTH",
"198 558 OFFCURVE",
"239 625 OFFCURVE",
"361 625 CURVE SMOOTH"
);
},
{
closed = 1;
nodes = (
"315 292 LINE",
"603 292 LINE",
"603 430 LINE",
"315 430 LINE"
);
},
{
closed = 1;
nodes = (
"603 0 LINE",
"603 396 LINE",
"459 193 LINE",
"479 64 LINE",
"519 0 LINE"
);
}
);
width = 652;
},
{
anchors = (
{
name = bottom;
position = "{318, 0}";
},
{
name = top;
position = "{318, 750}";
}
);
associatedMasterId = "9C4F76E1-3798-46C8-A886-41EF97D6106F";
background = {
paths = (
{
closed = 1;
nodes = (
"527 -16 OFFCURVE",
"622 123 OFFCURVE",
"622 378 CURVE SMOOTH",
"622 631 OFFCURVE",
"527 766 OFFCURVE",
"330 766 CURVE SMOOTH",
"133 766 OFFCURVE",
"38 631 OFFCURVE",
"38 378 CURVE SMOOTH",
"38 123 OFFCURVE",
"133 -16 OFFCURVE",
"330 -16 CURVE SMOOTH"
);
},
{
closed = 1;
nodes = (
"472 187 OFFCURVE",
"435 125 OFFCURVE",
"330 125 CURVE SMOOTH",
"225 125 OFFCURVE",
"188 187 OFFCURVE",
"188 378 CURVE SMOOTH",
"188 563 OFFCURVE",
"225 625 OFFCURVE",
"330 625 CURVE SMOOTH",
"435 625 OFFCURVE",
"472 563 OFFCURVE",
"472 378 CURVE SMOOTH"
);
}
);
};
layerId = "05E3AEEA-728A-462F-9F12-97C2E5F1D5EE";
name = "Sep 12 17, 11:13";
paths = (
{
closed = 1;
nodes = (
"408 -16 OFFCURVE",
"502 48 OFFCURVE",
"514 125 CURVE SMOOTH",
"549 343 LINE",
"459 292 LINE",
"459 172 OFFCURVE",
"419 125 OFFCURVE",
"329 125 CURVE SMOOTH",
"223 125 OFFCURVE",
"188 187 OFFCURVE",
"188 378 CURVE SMOOTH",
"188 558 OFFCURVE",
"229 625 OFFCURVE",
"351 625 CURVE SMOOTH",
"422 625 OFFCURVE",
"487 598 OFFCURVE",
"523 555 CURVE",
"543 564 LINE",
"565 691 LINE",
"497 743 OFFCURVE",
"421 766 OFFCURVE",
"351 766 CURVE SMOOTH",
"123 766 OFFCURVE",
"38 638 OFFCURVE",
"38 378 CURVE SMOOTH",
"38 100 OFFCURVE",
"125 -16 OFFCURVE",
"319 -16 CURVE SMOOTH"
);
},
{
closed = 1;
nodes = (
"603 0 LINE",
"603 396 LINE",
"459 193 LINE",
"479 64 LINE",
"519 0 LINE"
);
},
{
closed = 1;
nodes = (
"603 292 LINE",
"603 430 LINE",
"315 430 LINE",
"315 292 LINE"
);
}
);
width = 643;
},
{
anchors = (
{
name = bottom;
position = "{362, 0}";
},
{
name = top;
position = "{362, 750}";
}
);
background = {
paths = (
{
closed = 1;
nodes = (
"529 -16 OFFCURVE",
"629 118 OFFCURVE",
"629 378 CURVE SMOOTH",
"629 636 OFFCURVE",
"529 766 OFFCURVE",
"342 766 CURVE SMOOTH",
"155 766 OFFCURVE",
"55 636 OFFCURVE",
"55 378 CURVE SMOOTH",
"55 118 OFFCURVE",
"155 -16 OFFCURVE",
"342 -16 CURVE SMOOTH"
);
},
{
closed = 1;
nodes = (
"211 65 OFFCURVE",
"142 157 OFFCURVE",
"142 378 CURVE SMOOTH",
"142 593 OFFCURVE",
"211 685 OFFCURVE",
"342 685 CURVE SMOOTH",
"473 685 OFFCURVE",
"542 593 OFFCURVE",
"542 378 CURVE SMOOTH",
"542 157 OFFCURVE",
"473 65 OFFCURVE",
"342 65 CURVE SMOOTH"
);
}
);
};
layerId = "3B8C7C8F-80C4-4490-BC4D-FB44BC992E9B";
paths = (
{
closed = 1;
nodes = (
"72 112 OFFCURVE",
"165 -16 OFFCURVE",
"342 -16 CURVE SMOOTH",
"432 -16 OFFCURVE",
"510 27 OFFCURVE",
"545 98 CURVE",
"563 0 LINE",
"606 0 LINE",
"606 400 LINE",
"323 400 LINE",
"323 322 LINE",
"531 322 LINE",
"531 152 OFFCURVE",
"470 65 OFFCURVE",
"352 65 CURVE SMOOTH",
"217 65 OFFCURVE",
"158 157 OFFCURVE",
"158 378 CURVE SMOOTH",
"158 594 OFFCURVE",
"228 685 OFFCURVE",
"374 685 CURVE SMOOTH",
"431 685 OFFCURVE",
"508 652 OFFCURVE",
"543 613 CURVE",
"563 622 LINE",
"577 700 LINE",
"517 743 OFFCURVE",
"439 766 OFFCURVE",
"374 766 CURVE SMOOTH",
"168 766 OFFCURVE",
"72 649 OFFCURVE",
"72 378 CURVE SMOOTH"
);
}
);
width = 686;
},
{
associatedMasterId = "3B8C7C8F-80C4-4490-BC4D-FB44BC992E9B";
background = {
paths = (
{
closed = 1;
nodes = (
"514 -16 OFFCURVE",
"614 118 OFFCURVE",
"614 378 CURVE SMOOTH",
"614 636 OFFCURVE",
"514 766 OFFCURVE",
"327 766 CURVE SMOOTH",
"140 766 OFFCURVE",
"40 636 OFFCURVE",
"40 378 CURVE SMOOTH",
"40 118 OFFCURVE",
"140 -16 OFFCURVE",
"327 -16 CURVE SMOOTH"
);
},
{
closed = 1;
nodes = (
"196 65 OFFCURVE",
"127 157 OFFCURVE",
"127 378 CURVE SMOOTH",
"127 593 OFFCURVE",
"196 685 OFFCURVE",
"327 685 CURVE SMOOTH",
"458 685 OFFCURVE",
"527 593 OFFCURVE",
"527 378 CURVE SMOOTH",
"527 157 OFFCURVE",
"458 65 OFFCURVE",
"327 65 CURVE SMOOTH"
);
}
);
};
layerId = "060EE2D4-60DB-4E27-9DE8-655EC8B3B166";
name = "Sep 20 17, 16:32";
paths = (
{
closed = 1;
nodes = (
"47 110 OFFCURVE",
"140 -16 OFFCURVE",
"322 -16 CURVE SMOOTH",
"420 -16 OFFCURVE",
"497 31 OFFCURVE",
"530 98 CURVE",
"548 0 LINE",
"591 0 LINE",
"591 400 LINE",
"308 400 LINE",
"308 322 LINE",
"516 322 LINE",
"516 147 OFFCURVE",
"451 65 OFFCURVE",
"332 65 CURVE SMOOTH",
"197 65 OFFCURVE",
"133 155 OFFCURVE",
"133 378 CURVE SMOOTH",
"133 596 OFFCURVE",
"204 685 OFFCURVE",
"354 685 CURVE SMOOTH",
"416 685 OFFCURVE",
"493 652 OFFCURVE",
"528 613 CURVE",
"548 622 LINE",
"562 700 LINE",
"502 743 OFFCURVE",
"424 766 OFFCURVE",
"354 766 CURVE SMOOTH",
"141 766 OFFCURVE",
"47 644 OFFCURVE",
"47 378 CURVE SMOOTH"
);
}
);
width = 643;
}
);
leftKerningGroup = O;
leftMetricsKey = O;
unicode = 0047;
},
{
glyphname = H;
lastChange = "2017-11-08 08:09:43 +0000";
layers = (
{
anchors = (
{
name = bottom;
position = "{327, 0}";
},
{
name = center;
position = "{327, 594}";
},
{
name = top;
position = "{327, 750}";
},
{
name = topleft;
position = "{10, 750}";
}
);
layerId = "9C4F76E1-3798-46C8-A886-41EF97D6106F";
paths = (
{
closed = 1;
nodes = (
"593 1 LINE",
"583 151 LINE",
"583 606 LINE",
"593 751 LINE",
"429 751 LINE",
"439 606 LINE",
"439 151 LINE",
"429 1 LINE"
);
},
{
closed = 1;
nodes = (
"224 0 LINE",
"214 150 LINE",
"214 605 LINE",
"224 750 LINE",
"60 750 LINE",
"70 605 LINE",
"70 150 LINE",
"60 0 LINE"
);
},
{
closed = 1;
nodes = (
"515 317 LINE",
"515 455 LINE",
"144 455 LINE",
"144 317 LINE"
);
}
);
width = 653;
},
{
anchors = (
{
name = bottom;
position = "{341, 0}";
},
{
name = center;
position = "{341, 573}";
},
{
name = top;
position = "{341, 750}";
},
{
name = topleft;
position = "{45, 750}";
}
);
layerId = "3B8C7C8F-80C4-4490-BC4D-FB44BC992E9B";
paths = (
{
closed = 1;
nodes = (
"586 1 LINE",
"581 151 LINE",
"581 606 LINE",
"586 751 LINE",
"494 751 LINE",
"499 606 LINE",
"499 151 LINE",
"494 1 LINE"
);
},
{
closed = 1;
nodes = (
"187 0 LINE",
"182 150 LINE",
"182 605 LINE",
"187 750 LINE",
"95 750 LINE",
"100 605 LINE",
"100 150 LINE",
"95 0 LINE"
);
},
{
closed = 1;
nodes = (
"527 347 LINE",
"527 425 LINE",
"156 425 LINE",
"156 347 LINE"
);
}
);
width = 681;
}
);
unicode = 0048;
},
{
glyphname = I;
lastChange = "2017-11-02 02:31:25 +0000";
layers = (
{
anchors = (
{
name = bottom;
position = "{142, 0}";
},
{
name = ogonek;
position = "{264, 10}";
},
{
name = top;
position = "{142, 750}";
},
{
name = topleft;
position = "{10, 750}";
}
);
layerId = "9C4F76E1-3798-46C8-A886-41EF97D6106F";
paths = (
{
closed = 1;
nodes = (
"224 0 LINE",
"214 150 LINE",
"214 605 LINE",
"224 750 LINE",
"60 750 LINE",
"70 605 LINE",
"70 150 LINE",
"60 0 LINE"
);
}
);
width = 284;
},
{
anchors = (
{
name = bottom;
position = "{141, 0}";
},
{
name = ogonek;
position = "{237, 10}";
},
{
name = top;
position = "{141, 750}";
},
{
name = topleft;
position = "{41, 750}";
}
);
layerId = "3B8C7C8F-80C4-4490-BC4D-FB44BC992E9B";
paths = (
{
closed = 1;
nodes = (
"187 0 LINE",
"182 150 LINE",
"182 605 LINE",
"187 750 LINE",
"95 750 LINE",
"100 605 LINE",
"100 150 LINE",
"95 0 LINE"
);
}
);
width = 282;
}
);
leftMetricsKey = "=H";
rightMetricsKey = "=H";
unicode = 0049;
},
{
glyphname = Iogonek;
lastChange = "2017-09-22 02:11:23 +0000";
layers = (
{
components = (
{
name = I;
}
);
layerId = "3B8C7C8F-80C4-4490-BC4D-FB44BC992E9B";
paths = (
{
closed = 1;
nodes = (
"156 -216 OFFCURVE",
"180 -206 OFFCURVE",
"207 -182 CURVE",
"218 -125 LINE",
"211 -121 LINE",
"190 -140 OFFCURVE",
"174 -147 OFFCURVE",
"150 -147 CURVE SMOOTH",
"114 -147 OFFCURVE",
"87 -123 OFFCURVE",
"87 -86 CURVE SMOOTH",
"87 -43 OFFCURVE",
"117 -5 OFFCURVE",
"157 0 CURVE",
"95 27 LINE",
"65 0 LINE SMOOTH",
"29 -32 OFFCURVE",
"10 -70 OFFCURVE",
"10 -114 CURVE SMOOTH",
"10 -171 OFFCURVE",
"56 -216 OFFCURVE",
"120 -216 CURVE SMOOTH"
);
}
);
width = 222;
},
{
components = (
{
name = I;
}
);
layerId = "9C4F76E1-3798-46C8-A886-41EF97D6106F";
paths = (
{
closed = 1;
nodes = (
"191 -216 OFFCURVE",
"233 -199 OFFCURVE",
"260 -175 CURVE",
"278 -86 LINE",
"271 -82 LINE",
"247 -104 OFFCURVE",
"228 -114 OFFCURVE",
"209 -114 CURVE SMOOTH",
"181 -114 OFFCURVE",
"163 -99 OFFCURVE",
"163 -74 CURVE SMOOTH",
"163 -43 OFFCURVE",
"175 -27 OFFCURVE",
"224 0 CURVE",
"96 45 LINE",
"59 0 LINE SMOOTH",
"31 -33 OFFCURVE",
"19 -62 OFFCURVE",
"19 -99 CURVE SMOOTH",
"19 -170 OFFCURVE",
"70 -216 OFFCURVE",
"147 -216 CURVE SMOOTH"
);
}
);
width = 284;
}
);
unicode = 012E;
},
{
glyphname = J;
lastChange = "2017-11-08 09:48:15 +0000";
layers = (
{
anchors = (
{
name = bottom;
position = "{141, 0}";
},
{
name = top;
position = "{141, 750}";
}
);
layerId = "9C4F76E1-3798-46C8-A886-41EF97D6106F";
paths = (
{
closed = 1;
nodes = (
"222 0 LINE",
"222 605 LINE",
"232 750 LINE",
"68 750 LINE",
"78 605 LINE",
"78 0 LINE"
);
},
{
closed = 1;
nodes = (
"127 -174 OFFCURVE",
"179 -108 OFFCURVE",
"222 0 CURVE",
"78 39 LINE",
"35 -36 OFFCURVE",
"-22 -93 OFFCURVE",
"-43 -93 CURVE",
"-51 -103 LINE",
"72 -216 LINE"
);
}
);
width = 292;
},
{
anchors = (
{
name = bottom;
position = "{162, 0}";
},
{
name = top;
position = "{162, 750}";
}
);
layerId = "3B8C7C8F-80C4-4490-BC4D-FB44BC992E9B";
paths = (
{
closed = 1;
nodes = (
"203 0 LINE",
"203 605 LINE",
"208 750 LINE",
"116 750 LINE",
"121 605 LINE",
"121 0 LINE"
);
},
{
closed = 1;
nodes = (
"108 -174 OFFCURVE",
"160 -108 OFFCURVE",
"203 0 CURVE",
"121 29 LINE",
"79 -69 OFFCURVE",
"12 -137 OFFCURVE",
"-17 -137 CURVE",
"-25 -145 LINE",
"53 -216 LINE"
);
}
);
width = 303;
}
);
leftKerningGroup = J;
rightKerningGroup = I;
rightMetricsKey = H;
unicode = 004A;
},
{
glyphname = K;
lastChange = "2017-11-08 09:43:19 +0000";
layers = (
{
anchors = (
{
name = bottom;
position = "{315, 0}";
},
{
name = top;
position = "{315, 750}";
}
);
layerId = "9C4F76E1-3798-46C8-A886-41EF97D6106F";
paths = (
{
closed = 1;
nodes = (
"224 0 LINE",
"214 150 LINE",
"214 262 LINE",
"264 287 LINE",
"356 150 LINE",
"435 0 LINE",
"654 0 LINE",
"534 150 LINE",
"360 397 LINE",
"491 605 LINE",
"614 750 LINE",
"399 750 LINE",
"324 605 LINE",
"214 429 LINE",
"214 605 LINE",
"224 750 LINE",
"60 750 LINE",
"70 605 LINE",
"70 150 LINE",
"60 0 LINE"
);
}
);
width = 636;
},
{
anchors = (
{
name = bottom;
position = "{315, 0}";
},
{
name = top;
position = "{315, 750}";
}
);
associatedMasterId = "9C4F76E1-3798-46C8-A886-41EF97D6106F";
layerId = "6CBB5252-F1E1-46B6-88B0-6395E8FE88D7";
name = "Sep 12 17, 11:20";
paths = (
{
closed = 1;
nodes = (
"480 605 LINE",
"603 750 LINE",
"399 750 LINE",
"324 605 LINE",
"173 364 LINE",
"184 179 LINE"
);
},
{
closed = 1;
nodes = (
"224 0 LINE",
"214 150 LINE",
"214 605 LINE",
"224 750 LINE",
"60 750 LINE",
"70 605 LINE",
"70 150 LINE",
"60 0 LINE"
);
},
{
closed = 1;
nodes = (
"654 0 LINE",
"547 150 LINE",
"364 455 LINE",
"263 330 LINE",
"374 150 LINE",
"445 0 LINE"
);
}
);
width = 622;
},
{
anchors = (
{
name = bottom;
position = "{318, 0}";
},
{
name = top;
position = "{318, 750}";
}
);
layerId = "3B8C7C8F-80C4-4490-BC4D-FB44BC992E9B";
paths = (
{
closed = 1;
nodes = (
"187 0 LINE",
"182 150 LINE",
"182 268 LINE",
"266 346 LINE",
"401 150 LINE",
"497 0 LINE",
"619 0 LINE",
"501 150 LINE",
"315 416 LINE",
"460 605 LINE",
"580 750 LINE",
"456 750 LINE",
"362 605 LINE",
"182 363 LINE",
"182 605 LINE",
"187 750 LINE",
"95 750 LINE",
"100 605 LINE",
"100 150 LINE",
"95 0 LINE"
);
}
);
width = 634;
},
{
anchors = (
{
name = bottom;
position = "{315, 0}";
},
{
name = top;
position = "{315, 750}";
}
);
associatedMasterId = "3B8C7C8F-80C4-4490-BC4D-FB44BC992E9B";
layerId = "667298BD-104A-4A5E-9278-8EA576BF03C8";
name = "Sep 20 17, 16:05";
paths = (
{
closed = 1;
nodes = (
"157 0 LINE",
"152 150 LINE",
"152 307 LINE",
"130 247 LINE",
"244 354 LINE",
"226 361 LINE",
"371 150 LINE",
"467 0 LINE",
"589 0 LINE",
"471 150 LINE",
"272 434 LINE",
"266 392 LINE",
"430 605 LINE",
"550 750 LINE",
"426 750 LINE",
"332 605 LINE",
"128 331 LINE",
"152 339 LINE",
"152 605 LINE",
"157 750 LINE",
"65 750 LINE",
"70 605 LINE",
"70 150 LINE",
"65 0 LINE"
);
}
);
width = 585;
}
);
leftMetricsKey = H;
rightKerningGroup = K;
unicode = 004B;
},
{
glyphname = L;
lastChange = "2017-11-08 09:43:28 +0000";
layers = (
{
anchors = (
{
name = bottom;
position = "{261, 0}";
},
{
name = center;
position = "{261, 375}";
},
{
name = top;
position = "{261, 750}";
},
{
name = topright;
position = "{421, 600}";
}
);
layerId = "9C4F76E1-3798-46C8-A886-41EF97D6106F";
paths = (
{
closed = 1;
nodes = (
"224 0 LINE",
"214 150 LINE",
"214 605 LINE",
"224 750 LINE",
"60 750 LINE",
"70 605 LINE",
"70 150 LINE",
"60 0 LINE"
);
},
{
closed = 1;
nodes = (
"503 0 LINE",
"525 138 LINE",
"105 138 LINE",
"105 0 LINE"
);
}
);
width = 530;
},
{
anchors = (
{
name = bottom;
position = "{291, 0}";
},
{
name = center;
position = "{291, 375}";
},
{
name = top;
position = "{291, 750}";
},
{
name = topright;
position = "{451, 600}";
}
);
layerId = "3B8C7C8F-80C4-4490-BC4D-FB44BC992E9B";
paths = (
{
closed = 1;
nodes = (
"187 0 LINE",
"182 150 LINE",
"182 605 LINE",
"187 750 LINE",
"95 750 LINE",
"100 605 LINE",
"100 150 LINE",
"95 0 LINE"
);
},
{
closed = 1;
nodes = (
"510 0 LINE",
"522 78 LINE",
"135 78 LINE",
"135 0 LINE"
);
}
);
width = 547;
}
);
leftMetricsKey = H;
rightKerningGroup = L;
unicode = 004C;
},
{
glyphname = Lslash;
lastChange = "2017-11-08 09:43:28 +0000";
layers = (
{
components = (
{
name = L;
transform = "{1, 0, 0, 1, 8, 0}";
}
);
layerId = "9C4F76E1-3798-46C8-A886-41EF97D6106F";
paths = (
{
closed = 1;
nodes = (
"38 244 LINE",
"431 412 LINE",
"431 534 LINE",
"38 366 LINE"
);
}
);
width = 548;
},
{
components = (
{
name = L;
transform = "{1, 0, 0, 1, 1, 0}";
}
);
layerId = "3B8C7C8F-80C4-4490-BC4D-FB44BC992E9B";
paths = (
{
closed = 1;
nodes = (
"14 258 LINE",
"400 423 LINE",
"400 503 LINE",
"14 338 LINE"
);
}
);
width = 553;
}
);
rightKerningGroup = L;
unicode = 0141;
},
{
glyphname = M;
lastChange = "2017-11-02 02:31:25 +0000";
layers = (
{
anchors = (
{
name = bottom;
position = "{440, 0}";
},
{
name = top;
position = "{440, 750}";
}
);
background = {
paths = (
{
closed = 1;
nodes = (
"475 0 LINE",
"315 750 LINE",
"170 750 LINE",
"340 0 LINE"
);
},
{
closed = 1;
nodes = (
"205 0 LINE",
"195 150 LINE",
"195 605 LINE",
"205 750 LINE",
"64 750 LINE",
"70 605 LINE",
"70 150 LINE",
"60 0 LINE"
);
},
{
closed = 1;
nodes = (
"516 0 LINE",
"687 750 LINE",
"567 750 LINE",
"406 0 LINE"
);
},
{
closed = 1;
nodes = (
"817 0 LINE",
"806 150 LINE",
"806 605 LINE",
"812 750 LINE",
"650 750 LINE",
"660 605 LINE",
"660 150 LINE",
"650 0 LINE"
);
}
);
};
layerId = "9C4F76E1-3798-46C8-A886-41EF97D6106F";
paths = (
{
closed = 1;
nodes = (
"205 0 LINE",
"195 150 LINE",
"195 750 LINE",
"64 750 LINE",
"70 605 LINE",
"70 150 LINE",
"60 0 LINE"
);
},
{
closed = 1;
nodes = (
"475 0 LINE",
"315 750 LINE",
"170 750 LINE",
"340 0 LINE"
);
},
{
closed = 1;
nodes = (
"516 0 LINE",
"687 750 LINE",
"567 750 LINE",
"406 0 LINE"
);
},
{
closed = 1;
nodes = (
"817 0 LINE",
"806 150 LINE",
"806 605 LINE",
"812 750 LINE",
"660 750 LINE",
"660 150 LINE",
"650 0 LINE"
);
}
);
width = 877;
},
{
associatedMasterId = "9C4F76E1-3798-46C8-A886-41EF97D6106F";
layerId = "294D46F3-82C2-4130-9D5A-75B9C0A5E3BD";
name = "Sep 4 17, 12:58";
paths = (
{
closed = 1;
nodes = (
"177 0 LINE",
"177 150 LINE",
"226 605 LINE",
"236 750 LINE",
"95 750 LINE",
"101 605 LINE",
"50 150 LINE",
"19 0 LINE"
);
},
{
closed = 1;
nodes = (
"506 0 LINE",
"638 750 LINE",
"518 750 LINE",
"396 0 LINE"
);
},
{
closed = 1;
nodes = (
"330 0 LINE",
"465 0 LINE",
"346 750 LINE",
"201 750 LINE"
);
},
{
closed = 1;
nodes = (
"842 0 LINE",
"811 150 LINE",
"757 605 LINE",
"763 750 LINE",
"601 750 LINE",
"611 605 LINE",
"662 150 LINE",
"662 0 LINE"
);
}
);
width = 861;
},
{
anchors = (
{
name = bottom;
position = "{439, 0}";
},
{
name = top;
position = "{439, 750}";
}
);
layerId = "3B8C7C8F-80C4-4490-BC4D-FB44BC992E9B";
paths = (
{
closed = 1;
nodes = (
"180 0 LINE",
"175 150 LINE",
"175 750 LINE",
"95 750 LINE",
"100 605 LINE",
"100 150 LINE",
"95 0 LINE"
);
},
{
closed = 1;
nodes = (
"448 0 LINE",
"258 750 LINE",
"165 750 LINE",
"363 0 LINE"
);
},
{
closed = 1;
nodes = (
"503 0 LINE",
"706 750 LINE",
"623 750 LINE",
"423 0 LINE"
);
},
{
closed = 1;
nodes = (
"783 0 LINE",
"778 150 LINE",
"778 605 LINE",
"783 750 LINE",
"696 750 LINE",
"696 150 LINE",
"691 0 LINE"
);
}
);
width = 878;
}
);
leftMetricsKey = H;
rightMetricsKey = H;
unicode = 004D;
},
{
glyphname = N;
lastChange = "2017-11-02 02:31:25 +0000";
layers = (
{
anchors = (
{
name = bottom;
position = "{336, 0}";
},
{
name = top;
position = "{336, 750}";
}
);
layerId = "9C4F76E1-3798-46C8-A886-41EF97D6106F";
paths = (
{
closed = 1;
nodes = (
"204 0 LINE",
"194 150 LINE",
"194 750 LINE",
"60 750 LINE",
"70 605 LINE",
"70 150 LINE",
"60 0 LINE"
);
},
{
closed = 1;
nodes = (
"530 0 LINE",
"288 750 LINE",
"143 750 LINE",
"385 0 LINE"
);
},
{
closed = 1;
nodes = (
"612 0 LINE",
"602 150 LINE",
"602 605 LINE",
"612 750 LINE",
"468 750 LINE",
"478 605 LINE",
"478 0 LINE"
);
}
);
width = 672;
},
{
anchors = (
{
name = bottom;
position = "{341, 0}";
},
{
name = top;
position = "{341, 750}";
}
);
background = {
paths = (
{
closed = 1;
nodes = (
"555 0 LINE",
"313 750 LINE",
"168 750 LINE",
"410 0 LINE"
);
},
{
closed = 1;
nodes = (
"229 0 LINE",
"219 150 LINE",
"219 750 LINE",
"85 750 LINE",
"95 605 LINE",
"95 150 LINE",
"85 0 LINE"
);
},
{
closed = 1;
nodes = (
"637 0 LINE",
"627 150 LINE",
"627 605 LINE",
"637 750 LINE",
"493 750 LINE",
"503 605 LINE",
"503 0 LINE"
);
}
);
};
layerId = "3B8C7C8F-80C4-4490-BC4D-FB44BC992E9B";
paths = (
{
closed = 1;
nodes = (
"182 0 LINE",
"177 150 LINE",
"177 750 LINE",
"95 750 LINE",
"100 605 LINE",
"100 150 LINE",
"95 0 LINE"
);
},
{
closed = 1;
nodes = (
"527 0 LINE",
"243 750 LINE",
"156 750 LINE",
"440 0 LINE"
);
},
{
closed = 1;
nodes = (
"587 -1 LINE",
"582 144 LINE",
"582 599 LINE",
"587 749 LINE",
"500 749 LINE",
"505 599 LINE",
"505 -1 LINE"
);
}
);
width = 682;
}
);
leftMetricsKey = H;
rightMetricsKey = H;
unicode = 004E;
},
{
glyphname = Eng;
lastChange = "2017-11-02 02:31:25 +0000";
layers = (
{
anchors = (
{
name = bottom;
position = "{336, 0}";
},
{
name = top;
position = "{336, 750}";
}
);
layerId = "9C4F76E1-3798-46C8-A886-41EF97D6106F";
paths = (
{
closed = 1;
nodes = (
"204 0 LINE",
"194 150 LINE",
"194 750 LINE",
"60 750 LINE",
"70 605 LINE",
"70 150 LINE",
"60 0 LINE"
);
},
{
closed = 1;
nodes = (
"530 0 LINE",
"288 750 LINE",
"143 750 LINE",
"385 0 LINE"
);
},
{
closed = 1;
nodes = (
"602 27 LINE",
"602 605 LINE",
"612 750 LINE",
"468 750 LINE",
"478 605 LINE",
"478 0 LINE"
);
},
{
closed = 1;
nodes = (
"516 -212 OFFCURVE",
"602 -121 OFFCURVE",
"602 27 CURVE SMOOTH",
"602 222 LINE",
"462 64 LINE",
"462 0 LINE",
"462 -44 OFFCURVE",
"411 -96 OFFCURVE",
"342 -96 CURVE",
"335 -104 LINE",
"398 -212 LINE"
);
}
);
width = 672;
},
{
anchors = (
{
name = bottom;
position = "{341, 0}";
},
{
name = top;
position = "{341, 750}";
}
);
layerId = "3B8C7C8F-80C4-4490-BC4D-FB44BC992E9B";
paths = (
{
closed = 1;
nodes = (
"182 0 LINE",
"177 150 LINE",
"177 750 LINE",
"95 750 LINE",
"100 605 LINE",
"100 150 LINE",
"95 0 LINE"
);
},
{
closed = 1;
nodes = (
"527 0 LINE",
"243 750 LINE",
"156 750 LINE",
"440 0 LINE"
);
},
{
closed = 1;
nodes = (
"582 -1 LINE",
"582 599 LINE",
"587 749 LINE",
"500 749 LINE",
"505 599 LINE",
"505 -1 LINE"
);
},
{
closed = 1;
nodes = (
"478 -209 OFFCURVE",
"582 -120 OFFCURVE",
"582 -1 CURVE SMOOTH",
"582 61 LINE",
"497 34 LINE",
"497 0 LINE SMOOTH",
"497 -75 OFFCURVE",
"426 -139 OFFCURVE",
"319 -139 CURVE",
"312 -147 LINE",
"348 -209 LINE"
);
}
);
width = 682;
}
);
leftMetricsKey = H;
rightMetricsKey = H;
unicode = 014A;
},
{
glyphname = O;
lastChange = "2017-11-08 09:42:10 +0000";
layers = (
{
anchors = (
{
name = bottom;
position = "{330, 0}";
},
{
name = center;
position = "{330, 375}";
},
{
name = ogonek;
position = "{602, 10}";
},
{
name = top;
position = "{330, 750}";
},
{
name = topleft;
position = "{10, 750}";
},
{
name = topright;
position = "{650, 750}";
}
);
layerId = "9C4F76E1-3798-46C8-A886-41EF97D6106F";
paths = (
{
closed = 1;
nodes = (
"527 -16 OFFCURVE",
"622 123 OFFCURVE",
"622 378 CURVE SMOOTH",
"622 631 OFFCURVE",
"527 766 OFFCURVE",
"330 766 CURVE SMOOTH",
"133 766 OFFCURVE",
"38 631 OFFCURVE",
"38 378 CURVE SMOOTH",
"38 123 OFFCURVE",
"133 -16 OFFCURVE",
"330 -16 CURVE SMOOTH"
);
},
{
closed = 1;
nodes = (
"225 125 OFFCURVE",
"188 187 OFFCURVE",
"188 378 CURVE SMOOTH",
"188 563 OFFCURVE",
"225 625 OFFCURVE",
"330 625 CURVE SMOOTH",
"435 625 OFFCURVE",
"472 563 OFFCURVE",
"472 378 CURVE SMOOTH",
"472 187 OFFCURVE",
"435 125 OFFCURVE",
"330 125 CURVE SMOOTH"
);
}
);
width = 660;
},
{
associatedMasterId = "9C4F76E1-3798-46C8-A886-41EF97D6106F";
layerId = "F4540F3A-09D1-4D6D-961C-A1BA5367EBEF";
name = "Sep 4 17, 10:12";
paths = (
{
closed = 1;
nodes = (
"539 -16 OFFCURVE",
"632 119 OFFCURVE",
"632 381 CURVE SMOOTH",
"632 635 OFFCURVE",
"539 766 OFFCURVE",
"340 766 CURVE SMOOTH",
"141 766 OFFCURVE",
"48 635 OFFCURVE",
"48 378 CURVE SMOOTH",
"48 119 OFFCURVE",
"141 -16 OFFCURVE",
"340 -16 CURVE SMOOTH"
);
},
{
closed = 1;
nodes = (
"484 179 OFFCURVE",
"447 125 OFFCURVE",
"340 125 CURVE SMOOTH",
"233 125 OFFCURVE",
"196 179 OFFCURVE",
"196 375 CURVE SMOOTH",
"196 571 OFFCURVE",
"233 625 OFFCURVE",
"340 625 CURVE SMOOTH",
"447 625 OFFCURVE",
"484 571 OFFCURVE",
"484 375 CURVE SMOOTH"
);
}
);
width = 680;
},
{
anchors = (
{
name = bottom;
position = "{349, 0}";
},
{
name = center;
position = "{349, 375}";
},
{
name = ogonek;
position = "{616, 10}";
},
{
name = top;
position = "{349, 750}";
},
{
name = topleft;
position = "{35, 750}";
},
{
name = topright;
position = "{663, 750}";
}
);
layerId = "3B8C7C8F-80C4-4490-BC4D-FB44BC992E9B";
paths = (
{
closed = 1;
nodes = (
"526 -16 OFFCURVE",
"626 114 OFFCURVE",
"626 378 CURVE SMOOTH",
"626 640 OFFCURVE",
"526 766 OFFCURVE",
"349 766 CURVE SMOOTH",
"172 766 OFFCURVE",
"72 640 OFFCURVE",
"72 378 CURVE SMOOTH",
"72 114 OFFCURVE",
"172 -16 OFFCURVE",
"349 -16 CURVE SMOOTH"
);
},
{
closed = 1;
nodes = (
"221 65 OFFCURVE",
"159 153 OFFCURVE",
"159 378 CURVE SMOOTH",
"159 597 OFFCURVE",
"221 685 OFFCURVE",
"349 685 CURVE SMOOTH",
"477 685 OFFCURVE",
"539 597 OFFCURVE",
"539 378 CURVE SMOOTH",
"539 153 OFFCURVE",
"477 65 OFFCURVE",
"349 65 CURVE SMOOTH"
);
}
);
width = 698;
}
);
leftKerningGroup = O;
rightKerningGroup = O;
unicode = 004F;
},
{
glyphname = OE;
lastChange = "2017-11-08 09:43:39 +0000";
layers = (
{
anchors = (
{
name = bottom;
position = "{330, 0}";
},
{
name = center;
position = "{330, 375}";
},
{
name = ogonek;
position = "{602, 10}";
},
{
name = top;
position = "{330, 750}";
},
{
name = topleft;
position = "{10, 750}";
},
{
name = topright;
position = "{650, 750}";
}
);
associatedMasterId = "9C4F76E1-3798-46C8-A886-41EF97D6106F";
layerId = "71FB953A-998C-419B-B033-FFF9C58E27FC";
name = "Sep 12 17, 11:36";
paths = (
{
closed = 1;
nodes = (
"423 -16 OFFCURVE",
"493 15 OFFCURVE",
"541 74 CURVE",
"562 650 LINE",
"514 726 OFFCURVE",
"437 766 OFFCURVE",
"330 766 CURVE SMOOTH",
"133 766 OFFCURVE",
"38 631 OFFCURVE",
"38 378 CURVE SMOOTH",
"38 123 OFFCURVE",
"133 -16 OFFCURVE",
"330 -16 CURVE SMOOTH"
);
},
{
closed = 1;
nodes = (
"225 125 OFFCURVE",
"188 187 OFFCURVE",
"188 378 CURVE SMOOTH",
"188 563 OFFCURVE",
"225 625 OFFCURVE",
"330 625 CURVE SMOOTH",
"435 625 OFFCURVE",
"472 563 OFFCURVE",
"472 378 CURVE SMOOTH",
"472 187 OFFCURVE",
"435 125 OFFCURVE",
"330 125 CURVE SMOOTH"
);
},
{
closed = 1;
nodes = (
"622 0 LINE",
"612 150 LINE",
"612 605 LINE",
"622 750 LINE",
"477 750 LINE",
"477 0 LINE"
);
},
{
closed = 1;
nodes = (
"948 0 LINE",
"970 138 LINE",
"406 138 LINE",
"406 0 LINE"
);
},
{
closed = 1;
nodes = (
"888 317 LINE",
"910 455 LINE",
"532 455 LINE",
"532 317 LINE"
);
},
{
closed = 1;
nodes = (
"938 612 LINE",
"960 750 LINE",
"415 750 LINE",
"415 612 LINE"
);
}
);
width = 998;
},
{
anchors = (
{
name = bottom;
position = "{349, 0}";
},
{
name = center;
position = "{349, 375}";
},
{
name = ogonek;
position = "{616, 10}";
},
{
name = top;
position = "{349, 750}";
},
{
name = topleft;
position = "{35, 750}";
},
{
name = topright;
position = "{663, 750}";
}
);
layerId = "3B8C7C8F-80C4-4490-BC4D-FB44BC992E9B";
paths = (
{
closed = 1;
nodes = (
"568 624 LINE",
"528 719 OFFCURVE",
"457 766 OFFCURVE",
"349 766 CURVE SMOOTH",
"172 766 OFFCURVE",
"72 640 OFFCURVE",
"72 378 CURVE SMOOTH",
"72 114 OFFCURVE",
"172 -16 OFFCURVE",
"349 -16 CURVE SMOOTH",
"457 -16 OFFCURVE",
"528 32 OFFCURVE",
"568 129 CURVE"
);
},
{
closed = 1;
nodes = (
"221 65 OFFCURVE",
"159 153 OFFCURVE",
"159 378 CURVE SMOOTH",
"159 597 OFFCURVE",
"221 685 OFFCURVE",
"349 685 CURVE SMOOTH",
"477 685 OFFCURVE",
"539 597 OFFCURVE",
"539 378 CURVE SMOOTH",
"539 153 OFFCURVE",
"477 65 OFFCURVE",
"349 65 CURVE SMOOTH"
);
},
{
closed = 1;
nodes = (
"623 0 LINE",
"623 750 LINE",
"551 750 LINE",
"551 0 LINE"
);
},
{
closed = 1;
nodes = (
"988 672 LINE",
"1000 750 LINE",
"586 750 LINE",
"586 672 LINE"
);
},
{
closed = 1;
nodes = (
"942 347 LINE",
"954 425 LINE",
"586 425 LINE",
"586 347 LINE"
);
},
{
closed = 1;
nodes = (
"995 0 LINE",
"1007 78 LINE",
"586 78 LINE",
"586 0 LINE"
);
}
);
width = 1062;
},
{
anchors = (
{
name = bottom;
position = "{330, 0}";
},
{
name = center;
position = "{330, 375}";
},
{
name = ogonek;
position = "{602, 10}";
},
{
name = top;
position = "{330, 750}";
},
{
name = topleft;
position = "{10, 750}";
},
{
name = topright;
position = "{650, 750}";
}
);
associatedMasterId = "9C4F76E1-3798-46C8-A886-41EF97D6106F";
layerId = "68AEDA25-A2BD-4E50-A08A-C2E7367A7731";
name = "Sep 22 17, 12:00";
paths = (
{
closed = 1;
nodes = (
"423 -16 OFFCURVE",
"473 15 OFFCURVE",
"521 104 CURVE",
"542 620 LINE SMOOTH",
"496 723 OFFCURVE",
"426 766 OFFCURVE",
"315 766 CURVE SMOOTH",
"133 766 OFFCURVE",
"38 631 OFFCURVE",
"38 378 CURVE SMOOTH",
"38 123 OFFCURVE",
"133 -16 OFFCURVE",
"315 -16 CURVE SMOOTH"
);
},
{
closed = 1;
nodes = (
"225 125 OFFCURVE",
"188 187 OFFCURVE",
"188 378 CURVE SMOOTH",
"188 563 OFFCURVE",
"225 625 OFFCURVE",
"330 625 CURVE SMOOTH",
"435 625 OFFCURVE",
"472 563 OFFCURVE",
"472 378 CURVE SMOOTH",
"472 187 OFFCURVE",
"435 125 OFFCURVE",
"330 125 CURVE SMOOTH"
);
},
{
closed = 1;
nodes = (
"612 0 LINE",
"612 750 LINE",
"477 750 LINE",
"477 0 LINE"
);
},
{
closed = 1;
nodes = (
"948 0 LINE",
"970 138 LINE",
"501 138 LINE",
"501 0 LINE"
);
},
{
closed = 1;
nodes = (
"888 317 LINE",
"910 455 LINE",
"532 455 LINE",
"532 317 LINE"
);
},
{
closed = 1;
nodes = (
"938 612 LINE",
"960 750 LINE",
"510 750 LINE",
"510 612 LINE"
);
}
);
width = 998;
},
{
anchors = (
{
name = bottom;
position = "{330, 0}";
},
{
name = center;
position = "{330, 375}";
},
{
name = ogonek;
position = "{602, 10}";
},
{
name = top;
position = "{330, 750}";
},
{
name = topleft;
position = "{10, 750}";
},
{
name = topright;
position = "{650, 750}";
}
);
layerId = "9C4F76E1-3798-46C8-A886-41EF97D6106F";
paths = (
{
closed = 1;
nodes = (
"493 698 LINE",
"449 745 OFFCURVE",
"392 766 OFFCURVE",
"315 766 CURVE SMOOTH",
"133 766 OFFCURVE",
"38 631 OFFCURVE",
"38 378 CURVE SMOOTH",
"38 123 OFFCURVE",
"133 -16 OFFCURVE",
"315 -16 CURVE SMOOTH",
"402 -16 OFFCURVE",
"452 4 OFFCURVE",
"493 59 CURVE"
);
},
{
closed = 1;
nodes = (
"225 125 OFFCURVE",
"188 187 OFFCURVE",
"188 378 CURVE SMOOTH",
"188 563 OFFCURVE",
"225 625 OFFCURVE",
"330 625 CURVE SMOOTH",
"435 625 OFFCURVE",
"472 563 OFFCURVE",
"472 378 CURVE SMOOTH",
"472 187 OFFCURVE",
"435 125 OFFCURVE",
"330 125 CURVE SMOOTH"
);
},
{
closed = 1;
nodes = (
"612 0 LINE",
"612 750 LINE",
"477 750 LINE",
"477 0 LINE"
);
},
{
closed = 1;
nodes = (
"912 612 LINE",
"934 750 LINE",
"513 750 LINE",
"513 612 LINE"
);
},
{
closed = 1;
nodes = (
"865 317 LINE",
"887 455 LINE",
"513 455 LINE",
"513 317 LINE"
);
},
{
closed = 1;
nodes = (
"922 0 LINE",
"944 138 LINE",
"513 138 LINE",
"513 0 LINE"
);
}
);
width = 972;
}
);
leftKerningGroup = O;
leftMetricsKey = O;
rightKerningGroup = E;
rightMetricsKey = E;
unicode = 0152;
},
{
glyphname = P;
lastChange = "2017-11-08 02:46:30 +0000";
layers = (
{
anchors = (
{
name = bottom;
position = "{304, 0}";
},
{
name = top;
position = "{304, 750}";
}
);
background = {
paths = (
{
closed = 1;
nodes = (
"224 0 LINE",
"214 150 LINE",
"214 605 LINE",
"224 750 LINE",
"60 750 LINE",
"70 605 LINE",
"70 150 LINE",
"60 0 LINE"
);
},
{
closed = 1;
nodes = (
"189 750 LINE",
"189 609 LINE",
"318 609 LINE SMOOTH",
"423 609 OFFCURVE",
"460 563 OFFCURVE",
"460 378 CURVE SMOOTH",
"460 203 OFFCURVE",
"423 141 OFFCURVE",
"318 141 CURVE SMOOTH",
"195 141 LINE",
"195 0 LINE",
"318 0 LINE SMOOTH",
"521 0 OFFCURVE",
"610 129 OFFCURVE",
"610 378 CURVE SMOOTH",
"610 625 OFFCURVE",
"521 750 OFFCURVE",
"318 750 CURVE SMOOTH"
);
}
);
};
layerId = "9C4F76E1-3798-46C8-A886-41EF97D6106F";
paths = (
{
closed = 1;
nodes = (
"334 220 LINE SMOOTH",
"493 220 OFFCURVE",
"597 318 OFFCURVE",
"597 486 CURVE SMOOTH",
"597 659 OFFCURVE",
"493 750 OFFCURVE",
"335 750 CURVE SMOOTH",
"189 750 LINE",
"189 612 LINE",
"295 612 LINE SMOOTH",
"410 612 OFFCURVE",
"447 581 OFFCURVE",
"447 486 CURVE SMOOTH",
"447 387 OFFCURVE",
"410 358 OFFCURVE",
"293 358 CURVE SMOOTH",
"195 358 LINE",
"195 220 LINE"
);
},
{
closed = 1;
nodes = (
"224 0 LINE",
"214 150 LINE",
"214 750 LINE",
"60 750 LINE",
"70 605 LINE",
"70 150 LINE",
"60 0 LINE"
);
}
);
width = 619;
},
{
anchors = (
{
name = bottom;
position = "{330, 0}";
},
{
name = top;
position = "{330, 750}";
}
);
background = {
paths = (
{
closed = 1;
nodes = (
"364 220 LINE SMOOTH",
"523 220 OFFCURVE",
"627 318 OFFCURVE",
"627 486 CURVE SMOOTH",
"627 659 OFFCURVE",
"523 750 OFFCURVE",
"365 750 CURVE SMOOTH",
"219 750 LINE",
"219 612 LINE",
"325 612 LINE SMOOTH",
"440 612 OFFCURVE",
"477 581 OFFCURVE",
"477 486 CURVE SMOOTH",
"477 387 OFFCURVE",
"440 358 OFFCURVE",
"323 358 CURVE SMOOTH",
"225 358 LINE",
"225 220 LINE"
);
},
{
closed = 1;
nodes = (
"254 0 LINE",
"244 150 LINE",
"244 750 LINE",
"90 750 LINE",
"100 605 LINE",
"100 150 LINE",
"90 0 LINE"
);
}
);
};
layerId = "3B8C7C8F-80C4-4490-BC4D-FB44BC992E9B";
paths = (
{
closed = 1;
nodes = (
"358 220 LINE SMOOTH",
"481 220 OFFCURVE",
"585 318 OFFCURVE",
"585 486 CURVE SMOOTH",
"585 659 OFFCURVE",
"481 750 OFFCURVE",
"359 750 CURVE SMOOTH",
"157 750 LINE",
"157 672 LINE",
"333 672 LINE SMOOTH",
"443 672 OFFCURVE",
"498 611 OFFCURVE",
"498 486 CURVE SMOOTH",
"498 357 OFFCURVE",
"443 298 OFFCURVE",
"331 298 CURVE SMOOTH",
"163 298 LINE",
"163 220 LINE"
);
},
{
closed = 1;
nodes = (
"187 0 LINE",
"182 150 LINE",
"182 750 LINE",
"95 750 LINE",
"100 605 LINE",
"100 150 LINE",
"95 0 LINE"
);
}
);
width = 630;
}
);
leftMetricsKey = H;
unicode = 0050;
},
{
glyphname = Thorn;
lastChange = "2017-11-02 05:08:02 +0000";
layers = (
{
layerId = "9C4F76E1-3798-46C8-A886-41EF97D6106F";
paths = (
{
closed = 1;
nodes = (
"224 0 LINE",
"214 150 LINE",
"214 605 LINE",
"224 750 LINE",
"60 750 LINE",
"70 605 LINE",
"70 150 LINE",
"60 0 LINE"
);
},
{
closed = 1;
nodes = (
"377 150 LINE SMOOTH",
"506 150 OFFCURVE",
"597 248 OFFCURVE",
"597 376 CURVE SMOOTH",
"597 509 OFFCURVE",
"506 600 OFFCURVE",
"378 600 CURVE SMOOTH",
"205 600 LINE",
"205 462 LINE",
"325 462 LINE SMOOTH",
"408 462 OFFCURVE",
"447 435 OFFCURVE",
"447 376 CURVE SMOOTH",
"447 317 OFFCURVE",
"408 288 OFFCURVE",
"323 288 CURVE SMOOTH",
"211 288 LINE",
"211 150 LINE"
);
}
);
width = 617;
},
{
background = {
paths = (
{
closed = 1;
nodes = (
"345 150 LINE SMOOTH",
"474 150 OFFCURVE",
"565 248 OFFCURVE",
"565 376 CURVE SMOOTH",
"565 509 OFFCURVE",
"474 600 OFFCURVE",
"346 600 CURVE SMOOTH",
"173 600 LINE",
"173 462 LINE",
"293 462 LINE SMOOTH",
"376 462 OFFCURVE",
"415 435 OFFCURVE",
"415 376 CURVE SMOOTH",
"415 317 OFFCURVE",
"376 288 OFFCURVE",
"291 288 CURVE SMOOTH",
"179 288 LINE",
"179 150 LINE"
);
}
);
};
layerId = "3B8C7C8F-80C4-4490-BC4D-FB44BC992E9B";
paths = (
{
closed = 1;
nodes = (
"187 0 LINE",
"182 150 LINE",
"182 605 LINE",
"187 750 LINE",
"95 750 LINE",
"100 605 LINE",
"100 150 LINE",
"95 0 LINE"
);
},
{
closed = 1;
nodes = (
"364 150 LINE SMOOTH",
"495 150 OFFCURVE",
"585 248 OFFCURVE",
"585 376 CURVE SMOOTH",
"585 509 OFFCURVE",
"495 600 OFFCURVE",
"365 600 CURVE SMOOTH",
"157 600 LINE",
"157 522 LINE",
"339 522 LINE SMOOTH",
"446 522 OFFCURVE",
"498 476 OFFCURVE",
"498 376 CURVE SMOOTH",
"498 272 OFFCURVE",
"446 228 OFFCURVE",
"337 228 CURVE SMOOTH",
"163 228 LINE",
"163 150 LINE"
);
}
);
width = 625;
}
);
leftMetricsKey = H;
unicode = 00DE;
},
{
glyphname = Q;
lastChange = "2017-11-07 07:38:13 +0000";
layers = (
{
anchors = (
{
name = bottom;
position = "{335, 0}";
},
{
name = top;
position = "{335, 750}";
}
);
layerId = "9C4F76E1-3798-46C8-A886-41EF97D6106F";
paths = (
{
closed = 1;
nodes = (
"527 -16 OFFCURVE",
"622 123 OFFCURVE",
"622 378 CURVE SMOOTH",
"622 631 OFFCURVE",
"527 766 OFFCURVE",
"330 766 CURVE SMOOTH",
"133 766 OFFCURVE",
"38 631 OFFCURVE",
"38 378 CURVE SMOOTH",
"38 123 OFFCURVE",
"133 -16 OFFCURVE",
"330 -16 CURVE SMOOTH"
);
},
{
closed = 1;
nodes = (
"225 125 OFFCURVE",
"188 187 OFFCURVE",
"188 378 CURVE SMOOTH",
"188 563 OFFCURVE",
"225 625 OFFCURVE",
"330 625 CURVE SMOOTH",
"435 625 OFFCURVE",
"472 563 OFFCURVE",
"472 378 CURVE SMOOTH",
"472 187 OFFCURVE",
"435 125 OFFCURVE",
"330 125 CURVE SMOOTH"
);
},
{
closed = 1;
nodes = (
"548 -128 LINE",
"431 133 LINE",
"451 64 LINE",
"398 247 LINE",
"249 247 LINE",
"356 11 LINE",
"322 92 LINE",
"393 -128 LINE"
);
}
);
width = 660;
},
{
anchors = (
{
name = bottom;
position = "{350, 0}";
},
{
name = top;
position = "{350, 750}";
}
);
layerId = "3B8C7C8F-80C4-4490-BC4D-FB44BC992E9B";
paths = (
{
closed = 1;
nodes = (
"526 -16 OFFCURVE",
"626 114 OFFCURVE",
"626 378 CURVE SMOOTH",
"626 640 OFFCURVE",
"526 766 OFFCURVE",
"349 766 CURVE SMOOTH",
"172 766 OFFCURVE",
"72 640 OFFCURVE",
"72 378 CURVE SMOOTH",
"72 114 OFFCURVE",
"172 -16 OFFCURVE",
"349 -16 CURVE SMOOTH"
);
},
{
closed = 1;
nodes = (
"221 65 OFFCURVE",
"159 153 OFFCURVE",
"159 378 CURVE SMOOTH",
"159 597 OFFCURVE",
"221 685 OFFCURVE",
"349 685 CURVE SMOOTH",
"477 685 OFFCURVE",
"539 597 OFFCURVE",
"539 378 CURVE SMOOTH",
"539 153 OFFCURVE",
"477 65 OFFCURVE",
"349 65 CURVE SMOOTH"
);
},
{
closed = 1;
nodes = (
"547 -128 LINE",
"447 68 LINE",
"457 43 LINE",
"400 204 LINE",
"301 204 LINE",
"397 11 LINE",
"383 40 LINE",
"449 -128 LINE"
);
}
);
width = 698;
},
{
anchors = (
{
name = bottom;
position = "{335, 0}";
},
{
name = top;
position = "{335, 750}";
}
);
associatedMasterId = "9C4F76E1-3798-46C8-A886-41EF97D6106F";
layerId = "2AD4C16B-BCAA-43BD-98BA-F5E609D69297";
rightMetricsKey = "=O-10";
name = "Nov 1 17, 16:01";
paths = (
{
closed = 1;
nodes = (
"527 -16 OFFCURVE",
"622 123 OFFCURVE",
"622 378 CURVE SMOOTH",
"622 631 OFFCURVE",
"527 766 OFFCURVE",
"330 766 CURVE SMOOTH",
"133 766 OFFCURVE",
"38 631 OFFCURVE",
"38 378 CURVE SMOOTH",
"38 123 OFFCURVE",
"133 -16 OFFCURVE",
"330 -16 CURVE SMOOTH"
);
},
{
closed = 1;
nodes = (
"632 0 LINE",
"385 328 LINE",
"236 328 LINE",
"487 0 LINE"
);
},
{
closed = 1;
nodes = (
"225 125 OFFCURVE",
"188 187 OFFCURVE",
"188 378 CURVE SMOOTH",
"188 563 OFFCURVE",
"225 625 OFFCURVE",
"330 625 CURVE SMOOTH",
"435 625 OFFCURVE",
"472 563 OFFCURVE",
"472 378 CURVE SMOOTH",
"472 187 OFFCURVE",
"435 125 OFFCURVE",
"330 125 CURVE SMOOTH"
);
}
);
width = 660;
},
{
anchors = (
{
name = bottom;
position = "{326, 0}";
},
{
name = top;
position = "{326, 750}";
}
);
associatedMasterId = "3B8C7C8F-80C4-4490-BC4D-FB44BC992E9B";
layerId = "9DA4DB39-1FDF-4BEE-96B6-C618D813911A";
rightMetricsKey = "=O-14";
name = "Nov 1 17, 16:07";
paths = (
{
closed = 1;
nodes = (
"502 -16 OFFCURVE",
"602 114 OFFCURVE",
"602 378 CURVE SMOOTH",
"602 640 OFFCURVE",
"502 766 OFFCURVE",
"325 766 CURVE SMOOTH",
"148 766 OFFCURVE",
"48 640 OFFCURVE",
"48 378 CURVE SMOOTH",
"48 114 OFFCURVE",
"148 -16 OFFCURVE",
"325 -16 CURVE SMOOTH"
);
},
{
closed = 1;
nodes = (
"617 0 LINE",
"365 328 LINE",
"271 328 LINE",
"527 0 LINE"
);
},
{
closed = 1;
nodes = (
"197 65 OFFCURVE",
"135 153 OFFCURVE",
"135 378 CURVE SMOOTH",
"135 597 OFFCURVE",
"197 685 OFFCURVE",
"325 685 CURVE SMOOTH",
"453 685 OFFCURVE",
"515 597 OFFCURVE",
"515 378 CURVE SMOOTH",
"515 153 OFFCURVE",
"453 65 OFFCURVE",
"325 65 CURVE SMOOTH"
);
}
);
width = 651;
},
{
anchors = (
{
name = bottom;
position = "{326, 0}";
},
{
name = top;
position = "{326, 750}";
}
);
associatedMasterId = "3B8C7C8F-80C4-4490-BC4D-FB44BC992E9B";
layerId = "0EE4A73B-3D91-4CC4-8497-867DA3FE2AD3";
rightMetricsKey = "=O-14";
name = "Nov 1 17, 16:11";
paths = (
{
closed = 1;
nodes = (
"502 -16 OFFCURVE",
"602 114 OFFCURVE",
"602 378 CURVE SMOOTH",
"602 640 OFFCURVE",
"502 766 OFFCURVE",
"325 766 CURVE SMOOTH",
"148 766 OFFCURVE",
"48 640 OFFCURVE",
"48 378 CURVE SMOOTH",
"48 114 OFFCURVE",
"148 -16 OFFCURVE",
"325 -16 CURVE SMOOTH"
);
},
{
closed = 1;
nodes = (
"197 65 OFFCURVE",
"135 153 OFFCURVE",
"135 378 CURVE SMOOTH",
"135 597 OFFCURVE",
"197 685 OFFCURVE",
"325 685 CURVE SMOOTH",
"453 685 OFFCURVE",
"515 597 OFFCURVE",
"515 378 CURVE SMOOTH",
"515 153 OFFCURVE",
"453 65 OFFCURVE",
"325 65 CURVE SMOOTH"
);
},
{
closed = 1;
nodes = (
"535 -128 LINE",
"416 80 LINE",
"435 43 LINE",
"373 185 LINE",
"274 185 LINE",
"375 11 LINE",
"358 40 LINE",
"437 -128 LINE"
);
}
);
width = 651;
}
);
leftKerningGroup = O;
leftMetricsKey = O;
rightKerningGroup = O;
rightMetricsKey = O;
unicode = 0051;
},
{
glyphname = R;
lastChange = "2017-11-08 09:43:55 +0000";
layers = (
{
anchors = (
{
name = bottom;
position = "{316, 0}";
},
{
name = top;
position = "{316, 750}";
}
);
layerId = "9C4F76E1-3798-46C8-A886-41EF97D6106F";
paths = (
{
closed = 1;
nodes = (
"320 220 LINE SMOOTH",
"473 220 OFFCURVE",
"583 321 OFFCURVE",
"583 486 CURVE SMOOTH",
"583 662 OFFCURVE",
"500 750 OFFCURVE",
"321 750 CURVE SMOOTH",
"175 750 LINE",
"175 612 LINE",
"281 612 LINE SMOOTH",
"395 612 OFFCURVE",
"433 586 OFFCURVE",
"433 486 CURVE SMOOTH",
"433 390 OFFCURVE",
"392 358 OFFCURVE",
"279 358 CURVE SMOOTH",
"181 358 LINE",
"181 220 LINE"
);
},
{
closed = 1;
nodes = (
"224 0 LINE",
"214 150 LINE",
"214 750 LINE",
"60 750 LINE",
"70 605 LINE",
"70 150 LINE",
"60 0 LINE"
);
},
{
closed = 1;
nodes = (
"632 0 LINE",
"521 150 LINE",
"419 315 LINE",
"256 315 LINE",
"358 150 LINE",
"425 0 LINE"
);
}
);
width = 637;
},
{
anchors = (
{
name = bottom;
position = "{325, 0}";
},
{
name = top;
position = "{325, 750}";
}
);
layerId = "3B8C7C8F-80C4-4490-BC4D-FB44BC992E9B";
paths = (
{
closed = 1;
nodes = (
"358 220 LINE SMOOTH",
"481 220 OFFCURVE",
"585 318 OFFCURVE",
"585 486 CURVE SMOOTH",
"585 659 OFFCURVE",
"481 750 OFFCURVE",
"359 750 CURVE SMOOTH",
"157 750 LINE",
"157 672 LINE",
"333 672 LINE SMOOTH",
"443 672 OFFCURVE",
"498 611 OFFCURVE",
"498 486 CURVE SMOOTH",
"498 357 OFFCURVE",
"443 298 OFFCURVE",
"331 298 CURVE SMOOTH",
"163 298 LINE",
"163 220 LINE"
);
},
{
closed = 1;
nodes = (
"192 0 LINE",
"182 150 LINE",
"182 750 LINE",
"95 750 LINE",
"100 605 LINE",
"100 150 LINE",
"95 0 LINE"
);
},
{
closed = 1;
nodes = (
"629 0 LINE",
"501 150 LINE",
"409 269 LINE",
"306 269 LINE",
"398 150 LINE",
"504 0 LINE"
);
}
);
width = 664;
}
);
leftMetricsKey = H;
rightKerningGroup = R;
unicode = 0052;
},
{
glyphname = S;
lastChange = "2017-11-08 09:44:06 +0000";
layers = (
{
anchors = (
{
name = bottom;
position = "{290, 0}";
},
{
name = top;
position = "{290, 750}";
}
);
layerId = "9C4F76E1-3798-46C8-A886-41EF97D6106F";
paths = (
{
closed = 1;
nodes = (
"440 -11 OFFCURVE",
"549 70 OFFCURVE",
"549 219 CURVE SMOOTH",
"549 347 OFFCURVE",
"489 398 OFFCURVE",
"323 444 CURVE SMOOTH",
"225 471 OFFCURVE",
"191 493 OFFCURVE",
"191 544 CURVE SMOOTH",
"191 593 OFFCURVE",
"231 619 OFFCURVE",
"303 619 CURVE SMOOTH",
"380 619 OFFCURVE",
"458 589 OFFCURVE",
"486 544 CURVE",
"501 548 LINE",
"523 683 LINE",
"472 729 OFFCURVE",
"381 760 OFFCURVE",
"290 760 CURVE SMOOTH",
"144 760 OFFCURVE",
"41 680 OFFCURVE",
"41 537 CURVE SMOOTH",
"41 403 OFFCURVE",
"97 352 OFFCURVE",
"250 307 CURVE SMOOTH",
"359 275 OFFCURVE",
"399 252 OFFCURVE",
"399 205 CURVE SMOOTH",
"399 157 OFFCURVE",
"350 130 OFFCURVE",
"267 130 CURVE SMOOTH",
"196 130 OFFCURVE",
"118 165 OFFCURVE",
"44 229 CURVE",
"30 225 LINE",
"51 84 LINE",
"112 21 OFFCURVE",
"198 -11 OFFCURVE",
"286 -11 CURVE SMOOTH"
);
}
);
width = 579;
},
{
anchors = (
{
name = bottom;
position = "{312, 0}";
},
{
name = top;
position = "{312, 750}";
}
);
layerId = "3B8C7C8F-80C4-4490-BC4D-FB44BC992E9B";
paths = (
{
closed = 1;
nodes = (
"475 -11 OFFCURVE",
"567 68 OFFCURVE",
"567 201 CURVE SMOOTH",
"567 310 OFFCURVE",
"512 365 OFFCURVE",
"342 408 CURVE SMOOTH",
"197 444 OFFCURVE",
"158 478 OFFCURVE",
"158 558 CURVE SMOOTH",
"158 636 OFFCURVE",
"213 679 OFFCURVE",
"324 679 CURVE SMOOTH",
"393 679 OFFCURVE",
"469 645 OFFCURVE",
"514 599 CURVE",
"529 603 LINE",
"541 683 LINE",
"489 730 OFFCURVE",
"403 760 OFFCURVE",
"311 760 CURVE SMOOTH",
"153 760 OFFCURVE",
"71 672 OFFCURVE",
"71 545 CURVE SMOOTH",
"71 432 OFFCURVE",
"133 368 OFFCURVE",
"285 330 CURVE SMOOTH",
"450 289 OFFCURVE",
"480 261 OFFCURVE",
"480 188 CURVE SMOOTH",
"480 117 OFFCURVE",
"420 70 OFFCURVE",
"312 70 CURVE SMOOTH",
"229 70 OFFCURVE",
"153 102 OFFCURVE",
"79 165 CURVE",
"65 161 LINE",
"77 79 LINE",
"152 11 OFFCURVE",
"224 -11 OFFCURVE",
"324 -11 CURVE SMOOTH"
);
}
);
width = 632;
},
{
anchors = (
{
name = bottom;
position = "{297, 0}";
},
{
name = top;
position = "{297, 750}";
}
);
associatedMasterId = "3B8C7C8F-80C4-4490-BC4D-FB44BC992E9B";
layerId = "631FD069-7030-40FD-BC6A-3D7D659EEDF7";
name = "Sep 21 17, 13:33";
paths = (
{
closed = 1;
nodes = (
"456 -11 OFFCURVE",
"548 68 OFFCURVE",
"548 207 CURVE SMOOTH",
"548 316 OFFCURVE",
"487 377 OFFCURVE",
"323 408 CURVE SMOOTH",
"186 433 OFFCURVE",
"139 472 OFFCURVE",
"139 558 CURVE SMOOTH",
"139 636 OFFCURVE",
"194 679 OFFCURVE",
"305 679 CURVE SMOOTH",
"374 679 OFFCURVE",
"450 645 OFFCURVE",
"495 599 CURVE",
"510 603 LINE",
"522 683 LINE",
"470 730 OFFCURVE",
"384 760 OFFCURVE",
"292 760 CURVE SMOOTH",
"134 760 OFFCURVE",
"52 672 OFFCURVE",
"52 545 CURVE SMOOTH",
"52 430 OFFCURVE",
"116 358 OFFCURVE",
"266 330 CURVE SMOOTH",
"422 299 OFFCURVE",
"461 269 OFFCURVE",
"461 194 CURVE SMOOTH",
"461 117 OFFCURVE",
"401 70 OFFCURVE",
"293 70 CURVE SMOOTH",
"210 70 OFFCURVE",
"134 102 OFFCURVE",
"60 165 CURVE",
"46 161 LINE",
"58 79 LINE",
"133 11 OFFCURVE",
"205 -11 OFFCURVE",
"305 -11 CURVE SMOOTH"
);
}
);
width = 594;
}
);
leftKerningGroup = S;
rightKerningGroup = S;
unicode = 0053;
},
{
glyphname = Germandbls;
lastChange = "2017-11-02 05:09:24 +0000";
layers = (
{
background = {
paths = (
{
closed = 1;
nodes = (
"181 0 LINE",
"171 150 LINE",
"171 565 LINE SMOOTH",
"171 646 OFFCURVE",
"211 678 OFFCURVE",
"258 678 CURVE SMOOTH",
"306 678 OFFCURVE",
"330 659 OFFCURVE",
"330 622 CURVE SMOOTH",
"330 600 OFFCURVE",
"323 586 OFFCURVE",
"291 552 CURVE SMOOTH",
"254 512 OFFCURVE",
"243 480 OFFCURVE",
"243 427 CURVE SMOOTH",
"243 370 OFFCURVE",
"270 325 OFFCURVE",
"331 282 CURVE SMOOTH",
"409 228 OFFCURVE",
"424 206 OFFCURVE",
"424 180 CURVE SMOOTH",
"424 141 OFFCURVE",
"397 129 OFFCURVE",
"355 129 CURVE SMOOTH",
"300 129 OFFCURVE",
"254 144 OFFCURVE",
"222 177 CURVE",
"208 173 LINE",
"227 47 LINE",
"261 6 OFFCURVE",
"307 -10 OFFCURVE",
"383 -10 CURVE SMOOTH",
"513 -10 OFFCURVE",
"568 44 OFFCURVE",
"568 168 CURVE SMOOTH",
"568 243 OFFCURVE",
"539 300 OFFCURVE",
"476 344 CURVE SMOOTH",
"411 390 OFFCURVE",
"387 419 OFFCURVE",
"387 441 CURVE SMOOTH",
"387 461 OFFCURVE",
"394 476 OFFCURVE",
"430 516 CURVE SMOOTH",
"460 549 OFFCURVE",
"474 584 OFFCURVE",
"474 622 CURVE SMOOTH",
"474 739 OFFCURVE",
"390 816 OFFCURVE",
"267 816 CURVE SMOOTH",
"103 816 OFFCURVE",
"31 727 OFFCURVE",
"31 573 CURVE SMOOTH",
"31 150 LINE",
"21 0 LINE"
);
}
);
};
hints = (
{
origin = "{0, 19}";
target = "{0, 2}";
type = Stem;
},
{
origin = "{1, 9}";
target = "{1, 2}";
type = Stem;
}
);
layerId = "9C4F76E1-3798-46C8-A886-41EF97D6106F";
paths = (
{
closed = 1;
nodes = (
"201 0 LINE",
"191 150 LINE",
"191 493 LINE SMOOTH",
"191 587 OFFCURVE",
"231 632 OFFCURVE",
"315 632 CURVE SMOOTH",
"354 632 OFFCURVE",
"383 628 OFFCURVE",
"405 621 CURVE",
"293 393 LINE",
"293 345 LINE",
"439 345 LINE",
"597 697 LINE",
"577 721 LINE",
"473 759 OFFCURVE",
"394 773 OFFCURVE",
"310 773 CURVE SMOOTH",
"133 773 OFFCURVE",
"47 670 OFFCURVE",
"47 449 CURVE SMOOTH",
"47 150 LINE",
"37 0 LINE"
);
},
{
closed = 1;
nodes = (
"538 -10 OFFCURVE",
"625 81 OFFCURVE",
"625 224 CURVE SMOOTH",
"625 333 OFFCURVE",
"570 423 OFFCURVE",
"480 452 CURVE",
"324 345 LINE SMOOTH",
"426 345 OFFCURVE",
"475 316 OFFCURVE",
"475 229 CURVE SMOOTH",
"475 171 OFFCURVE",
"439 131 OFFCURVE",
"377 131 CURVE SMOOTH",
"314 131 OFFCURVE",
"275 152 OFFCURVE",
"236 193 CURVE",
"225 191 LINE",
"243 43 LINE",
"294 8 OFFCURVE",
"341 -10 OFFCURVE",
"410 -10 CURVE SMOOTH"
);
}
);
width = 642;
},
{
associatedMasterId = "9C4F76E1-3798-46C8-A886-41EF97D6106F";
layerId = "3E85B842-E59B-414A-B817-024EC2D30C07";
name = "Sep 6 17, 13:56";
paths = (
{
closed = 1;
nodes = (
"264 0 LINE",
"254 150 LINE",
"254 565 LINE",
"114 523 LINE",
"114 150 LINE",
"104 0 LINE"
);
},
{
closed = 1;
nodes = (
"254 565 LINE",
"254 608 OFFCURVE",
"272 626 OFFCURVE",
"375 626 CURVE SMOOTH",
"510 626 OFFCURVE",
"589 607 OFFCURVE",
"607 590 CURVE",
"624 600 LINE",
"641 708 LINE",
"612 736 OFFCURVE",
"503 766 OFFCURVE",
"373 766 CURVE SMOOTH",
"161 766 OFFCURVE",
"114 704 OFFCURVE",
"114 523 CURVE"
);
},
{
closed = 1;
nodes = (
"596 -16 OFFCURVE",
"705 78 OFFCURVE",
"705 204 CURVE SMOOTH",
"705 327 OFFCURVE",
"668 411 OFFCURVE",
"566 441 CURVE",
"407 339 LINE",
"520 339 OFFCURVE",
"558 299 OFFCURVE",
"558 223 CURVE SMOOTH",
"558 165 OFFCURVE",
"507 121 OFFCURVE",
"460 121 CURVE SMOOTH",
"393 121 OFFCURVE",
"329 146 OFFCURVE",
"296 197 CURVE",
"285 195 LINE",
"303 47 LINE",
"349 7 OFFCURVE",
"422 -16 OFFCURVE",
"480 -16 CURVE SMOOTH"
);
},
{
closed = 1;
nodes = (
"522 339 LINE",
"624 600 LINE",
"521 680 LINE",
"382 387 LINE",
"382 339 LINE"
);
}
);
width = 847;
},
{
associatedMasterId = "9C4F76E1-3798-46C8-A886-41EF97D6106F";
background = {
paths = (
{
closed = 1;
nodes = (
"218 0 LINE",
"208 150 LINE",
"208 565 LINE SMOOTH",
"208 646 OFFCURVE",
"248 678 OFFCURVE",
"295 678 CURVE SMOOTH",
"343 678 OFFCURVE",
"367 659 OFFCURVE",
"367 622 CURVE SMOOTH",
"367 600 OFFCURVE",
"360 586 OFFCURVE",
"328 552 CURVE SMOOTH",
"291 512 OFFCURVE",
"280 480 OFFCURVE",
"280 427 CURVE SMOOTH",
"280 370 OFFCURVE",
"307 325 OFFCURVE",
"368 282 CURVE SMOOTH",
"446 228 OFFCURVE",
"461 206 OFFCURVE",
"461 180 CURVE SMOOTH",
"461 141 OFFCURVE",
"434 129 OFFCURVE",
"392 129 CURVE SMOOTH",
"337 129 OFFCURVE",
"291 144 OFFCURVE",
"259 177 CURVE",
"245 173 LINE",
"264 47 LINE",
"298 6 OFFCURVE",
"344 -10 OFFCURVE",
"420 -10 CURVE SMOOTH",
"550 -10 OFFCURVE",
"605 44 OFFCURVE",
"605 168 CURVE SMOOTH",
"605 243 OFFCURVE",
"576 300 OFFCURVE",
"513 344 CURVE SMOOTH",
"448 390 OFFCURVE",
"424 419 OFFCURVE",
"424 441 CURVE SMOOTH",
"424 461 OFFCURVE",
"431 476 OFFCURVE",
"467 516 CURVE SMOOTH",
"497 549 OFFCURVE",
"511 584 OFFCURVE",
"511 622 CURVE SMOOTH",
"511 739 OFFCURVE",
"427 816 OFFCURVE",
"304 816 CURVE SMOOTH",
"140 816 OFFCURVE",
"68 727 OFFCURVE",
"68 573 CURVE SMOOTH",
"68 150 LINE",
"58 0 LINE"
);
}
);
};
layerId = "06045DAE-D94F-483C-92B4-315AC8BDFCEE";
name = "Sep 6 17, 14:41";
paths = (
{
closed = 1;
nodes = (
"560 -10 OFFCURVE",
"662 79 OFFCURVE",
"662 224 CURVE SMOOTH",
"662 333 OFFCURVE",
"607 423 OFFCURVE",
"517 452 CURVE",
"361 345 LINE",
"462 344 OFFCURVE",
"512 312 OFFCURVE",
"512 229 CURVE SMOOTH",
"512 160 OFFCURVE",
"478 131 OFFCURVE",
"414 131 CURVE SMOOTH",
"348 131 OFFCURVE",
"290 154 OFFCURVE",
"250 203 CURVE",
"239 201 LINE",
"257 53 LINE",
"303 13 OFFCURVE",
"368 -10 OFFCURVE",
"434 -10 CURVE SMOOTH"
);
},
{
closed = 1;
nodes = (
"218 0 LINE",
"208 150 LINE",
"208 479 LINE SMOOTH",
"208 561 OFFCURVE",
"259 625 OFFCURVE",
"352 625 CURVE SMOOTH",
"389 625 OFFCURVE",
"417 620 OFFCURVE",
"438 610 CURVE",
"330 393 LINE",
"330 345 LINE",
"476 345 LINE",
"634 697 LINE",
"614 721 LINE",
"504 753 OFFCURVE",
"427 766 OFFCURVE",
"347 766 CURVE SMOOTH",
"164 766 OFFCURVE",
"64 639 OFFCURVE",
"64 449 CURVE SMOOTH",
"64 150 LINE",
"54 0 LINE"
);
}
);
width = 696;
},
{
layerId = "3B8C7C8F-80C4-4490-BC4D-FB44BC992E9B";
paths = (
{
closed = 1;
nodes = (
"174 0 LINE",
"169 150 LINE",
"169 493 LINE SMOOTH",
"169 622 OFFCURVE",
"229 692 OFFCURVE",
"353 692 CURVE SMOOTH",
"402 692 OFFCURVE",
"442 683 OFFCURVE",
"463 672 CURVE",
"334 393 LINE",
"334 345 LINE",
"407 345 LINE",
"569 705 LINE",
"549 729 LINE",
"479 764 OFFCURVE",
"443 773 OFFCURVE",
"348 773 CURVE SMOOTH",
"176 773 OFFCURVE",
"85 667 OFFCURVE",
"85 469 CURVE SMOOTH",
"85 150 LINE",
"80 0 LINE"
);
},
{
closed = 1;
nodes = (
"538 -10 OFFCURVE",
"613 75 OFFCURVE",
"613 200 CURVE SMOOTH",
"613 319 OFFCURVE",
"546 391 OFFCURVE",
"436 417 CURVE",
"342 345 LINE",
"471 345 OFFCURVE",
"526 302 OFFCURVE",
"526 199 CURVE SMOOTH",
"526 115 OFFCURVE",
"478 69 OFFCURVE",
"395 69 CURVE SMOOTH",
"331 69 OFFCURVE",
"289 91 OFFCURVE",
"241 130 CURVE",
"230 128 LINE",
"241 43 LINE",
"296 5 OFFCURVE",
"343 -10 OFFCURVE",
"408 -10 CURVE SMOOTH"
);
}
);
width = 663;
}
);
unicode = 1E9E;
},
{
glyphname = T;
lastChange = "2017-11-08 09:44:15 +0000";
layers = (
{
anchors = (
{
name = bottom;
position = "{275, 0}";
},
{
name = center;
position = "{275, 375}";
},
{
name = top;
position = "{275, 750}";
}
);
layerId = "9C4F76E1-3798-46C8-A886-41EF97D6106F";
paths = (
{
closed = 1;
nodes = (
"357 0 LINE",
"347 150 LINE",
"347 617 LINE",
"357 750 LINE",
"193 750 LINE",
"203 617 LINE",
"203 150 LINE",
"193 0 LINE"
);
},
{
closed = 1;
nodes = (
"111 617 LINE",
"439 617 LINE",
"529 605 LINE",
"540 608 LINE",
"518 750 LINE",
"32 750 LINE",
"10 608 LINE",
"21 605 LINE"
);
}
);
width = 550;
},
{
anchors = (
{
name = bottom;
position = "{287, 0}";
},
{
name = center;
position = "{287, 375}";
},
{
name = top;
position = "{287, 750}";
}
);
layerId = "3B8C7C8F-80C4-4490-BC4D-FB44BC992E9B";
paths = (
{
closed = 1;
nodes = (
"333 0 LINE",
"328 150 LINE",
"328 675 LINE",
"333 750 LINE",
"241 750 LINE",
"246 675 LINE",
"246 150 LINE",
"241 0 LINE"
);
},
{
closed = 1;
nodes = (
"142 675 LINE",
"432 675 LINE",
"531 662 LINE",
"542 665 LINE",
"529 750 LINE",
"45 750 LINE",
"32 665 LINE",
"43 662 LINE"
);
}
);
width = 574;
},
{
anchors = (
{
name = bottom;
position = "{273, 0}";
},
{
name = center;
position = "{273, 375}";
},
{
name = top;
position = "{273, 750}";
}
);
associatedMasterId = "9C4F76E1-3798-46C8-A886-41EF97D6106F";
layerId = "90283635-BE3F-480B-ACBD-CDBE0E42500D";
name = "Oct 31 17, 12:17";
paths = (
{
closed = 1;
nodes = (
"355 0 LINE",
"345 150 LINE",
"345 617 LINE",
"355 750 LINE",
"191 750 LINE",
"201 617 LINE",
"201 150 LINE",
"191 0 LINE"
);
},
{
closed = 1;
nodes = (
"131 617 LINE",
"415 617 LINE",
"505 605 LINE",
"516 608 LINE",
"538 750 LINE",
"8 750 LINE",
"30 608 LINE",
"41 605 LINE"
);
}
);
width = 546;
}
);
leftKerningGroup = T;
rightKerningGroup = T;
unicode = 0054;
},
{
glyphname = U;
lastChange = "2017-11-08 09:44:24 +0000";
layers = (
{
anchors = (
{
name = bottom;
position = "{316, 0}";
},
{
name = ogonek;
position = "{579, 10}";
},
{
name = top;
position = "{316, 750}";
},
{
name = topright;
position = "{625, 750}";
}
);
layerId = "9C4F76E1-3798-46C8-A886-41EF97D6106F";
paths = (
{
closed = 1;
nodes = (
"199 278 LINE",
"199 605 LINE",
"209 750 LINE",
"45 750 LINE",
"55 605 LINE",
"55 278 LINE"
);
},
{
closed = 1;
nodes = (
"494 -16 OFFCURVE",
"577 75 OFFCURVE",
"577 278 CURVE",
"433 278 LINE",
"433 168 OFFCURVE",
"401 125 OFFCURVE",
"316 125 CURVE SMOOTH",
"231 125 OFFCURVE",
"199 168 OFFCURVE",
"199 278 CURVE",
"55 278 LINE",
"55 75 OFFCURVE",
"138 -16 OFFCURVE",
"316 -16 CURVE SMOOTH"
);
},
{
closed = 1;
nodes = (
"577 278 LINE",
"577 605 LINE",
"587 750 LINE",
"423 750 LINE",
"433 605 LINE",
"433 278 LINE"
);
}
);
width = 632;
},
{
anchors = (
{
name = bottom;
position = "{330, 0}";
},
{
name = ogonek;
position = "{575, 10}";
},
{
name = top;
position = "{330, 750}";
},
{
name = topright;
position = "{616, 750}";
}
);
layerId = "3B8C7C8F-80C4-4490-BC4D-FB44BC992E9B";
paths = (
{
closed = 1;
nodes = (
"174 233 LINE",
"174 605 LINE",
"179 750 LINE",
"85 750 LINE",
"90 605 LINE",
"90 233 LINE"
);
},
{
closed = 1;
nodes = (
"491 -16 OFFCURVE",
"570 75 OFFCURVE",
"570 233 CURVE",
"486 233 LINE",
"486 123 OFFCURVE",
"434 65 OFFCURVE",
"330 65 CURVE SMOOTH",
"226 65 OFFCURVE",
"174 123 OFFCURVE",
"174 233 CURVE",
"90 233 LINE",
"90 75 OFFCURVE",
"169 -16 OFFCURVE",
"330 -16 CURVE SMOOTH"
);
},
{
closed = 1;
nodes = (
"570 233 LINE",
"570 605 LINE",
"575 750 LINE",
"481 750 LINE",
"486 605 LINE",
"486 233 LINE"
);
}
);
width = 660;
},
{
anchors = (
{
name = bottom;
position = "{316, 0}";
},
{
name = ogonek;
position = "{579, 10}";
},
{
name = top;
position = "{316, 750}";
},
{
name = topright;
position = "{625, 750}";
}
);
associatedMasterId = "9C4F76E1-3798-46C8-A886-41EF97D6106F";
layerId = "EC7830A2-EA43-4142-80D0-51199842C7FD";
name = "Sep 21 17, 11:01";
paths = (
{
closed = 1;
nodes = (
"505 -15 OFFCURVE",
"577 85 OFFCURVE",
"577 278 CURVE",
"433 278 LINE",
"433 167 OFFCURVE",
"406 125 OFFCURVE",
"321 125 CURVE SMOOTH",
"226 125 OFFCURVE",
"199 167 OFFCURVE",
"199 278 CURVE",
"55 278 LINE",
"55 85 OFFCURVE",
"119 -17 OFFCURVE",
"320 -16 CURVE SMOOTH"
);
},
{
closed = 1;
nodes = (
"199 278 LINE",
"199 605 LINE",
"209 750 LINE",
"45 750 LINE",
"55 605 LINE",
"55 278 LINE"
);
},
{
closed = 1;
nodes = (
"577 278 LINE",
"577 605 LINE",
"587 750 LINE",
"423 750 LINE",
"433 605 LINE",
"433 278 LINE"
);
}
);
width = 632;
}
);
leftKerningGroup = U;
rightKerningGroup = U;
unicode = 0055;
},
{
glyphname = Uogonek;
lastChange = "2017-11-08 09:44:24 +0000";
layers = (
{
components = (
{
name = U;
}
);
layerId = "3B8C7C8F-80C4-4490-BC4D-FB44BC992E9B";
paths = (
{
closed = 1;
nodes = (
"439 -206 OFFCURVE",
"463 -196 OFFCURVE",
"490 -172 CURVE",
"501 -115 LINE",
"494 -111 LINE",
"474 -129 OFFCURVE",
"458 -137 OFFCURVE",
"431 -137 CURVE SMOOTH",
"397 -137 OFFCURVE",
"375 -117 OFFCURVE",
"375 -85 CURVE SMOOTH",
"375 -55 OFFCURVE",
"393 -27 OFFCURVE",
"469 34 CURVE SMOOTH",
"438 51 LINE",
"392 27 LINE SMOOTH",
"335 -3 OFFCURVE",
"298 -49 OFFCURVE",
"298 -106 CURVE SMOOTH",
"298 -162 OFFCURVE",
"342 -206 OFFCURVE",
"403 -206 CURVE SMOOTH"
);
}
);
width = 610;
},
{
components = (
{
name = U;
}
);
layerId = "9C4F76E1-3798-46C8-A886-41EF97D6106F";
paths = (
{
closed = 1;
nodes = (
"462 -206 OFFCURVE",
"502 -194 OFFCURVE",
"527 -172 CURVE",
"545 -83 LINE",
"538 -79 LINE",
"516 -99 OFFCURVE",
"502 -104 OFFCURVE",
"483 -104 CURVE SMOOTH",
"459 -104 OFFCURVE",
"442 -88 OFFCURVE",
"442 -57 CURVE SMOOTH",
"442 -23 OFFCURVE",
"457 7 OFFCURVE",
"496 38 CURVE",
"436 55 LINE",
"387 30 LINE SMOOTH",
"335 3 OFFCURVE",
"303 -40 OFFCURVE",
"303 -100 CURVE SMOOTH",
"303 -162 OFFCURVE",
"351 -206 OFFCURVE",
"421 -206 CURVE SMOOTH"
);
}
);
width = 658;
}
);
leftKerningGroup = U;
rightKerningGroup = U;
unicode = 0172;
},
{
glyphname = V;
lastChange = "2017-11-08 08:57:20 +0000";
layers = (
{
anchors = (
{
name = bottom;
position = "{311, 0}";
},
{
name = top;
position = "{311, 750}";
}
);
layerId = "9C4F76E1-3798-46C8-A886-41EF97D6106F";
paths = (
{
closed = 1;
nodes = (
"360 0 LINE",
"203 600 LINE",
"180 750 LINE",
"5 750 LINE",
"54 600 LINE",
"170 150 LINE",
"200 0 LINE"
);
},
{
closed = 1;
nodes = (
"421 0 LINE",
"451 150 LINE",
"568 600 LINE",
"617 750 LINE",
"453 750 LINE",
"430 600 LINE",
"272 0 LINE"
);
}
);
width = 622;
},
{
associatedMasterId = "3B8C7C8F-80C4-4490-BC4D-FB44BC992E9B";
layerId = "0D0E28A5-BCAF-4F07-AC7F-D646CB34617A";
name = "Sep 21 17, 12:00";
paths = (
{
closed = 1;
nodes = (
"307 0 LINE",
"147 600 LINE",
"113 750 LINE",
"13 750 LINE",
"60 600 LINE",
"186 150 LINE",
"227 0 LINE"
);
},
{
closed = 1;
nodes = (
"342 0 LINE",
"383 150 LINE",
"516 600 LINE",
"565 750 LINE",
"475 750 LINE",
"439 600 LINE",
"270 0 LINE"
);
}
);
width = 578;
},
{
anchors = (
{
name = bottom;
position = "{322, 0}";
},
{
name = top;
position = "{322, 750}";
}
);
layerId = "3B8C7C8F-80C4-4490-BC4D-FB44BC992E9B";
paths = (
{
closed = 1;
nodes = (
"339 0 LINE",
"179 600 LINE",
"142 750 LINE",
"40 750 LINE",
"90 600 LINE",
"216 150 LINE",
"257 0 LINE"
);
},
{
closed = 1;
nodes = (
"381 0 LINE",
"422 150 LINE",
"553 600 LINE",
"603 750 LINE",
"506 750 LINE",
"469 600 LINE",
"302 0 LINE"
);
}
);
width = 643;
},
{
anchors = (
{
name = bottom;
position = "{311, 0}";
},
{
name = top;
position = "{311, 750}";
}
);
associatedMasterId = "9C4F76E1-3798-46C8-A886-41EF97D6106F";
layerId = "F2259CD7-9BD6-4E61-9AF1-AA2FCFC12296";
name = "Oct 31 17, 13:11";
paths = (
{
closed = 1;
nodes = (
"364 0 LINE",
"203 600 LINE",
"180 750 LINE",
"5 750 LINE",
"54 600 LINE",
"174 150 LINE",
"204 0 LINE"
);
},
{
closed = 1;
nodes = (
"425 0 LINE",
"455 150 LINE",
"568 600 LINE",
"617 750 LINE",
"462 750 LINE",
"439 600 LINE",
"285 0 LINE"
);
}
);
width = 622;
},
{
anchors = (
{
name = bottom;
position = "{295, 0}";
},
{
name = top;
position = "{295, 750}";
}
);
associatedMasterId = "3B8C7C8F-80C4-4490-BC4D-FB44BC992E9B";
layerId = "E5B6C09E-38C8-4778-AE73-FCFAF0E54BF4";
name = "Oct 31 17, 13:32";
paths = (
{
closed = 1;
nodes = (
"312 0 LINE",
"147 600 LINE",
"110 750 LINE",
"8 750 LINE",
"58 600 LINE",
"189 150 LINE",
"230 0 LINE"
);
},
{
closed = 1;
nodes = (
"354 0 LINE",
"395 150 LINE",
"531 600 LINE",
"581 750 LINE",
"484 750 LINE",
"447 600 LINE",
"275 0 LINE"
);
}
);
width = 589;
}
);
unicode = 0056;
},
{
glyphname = W;
lastChange = "2017-11-08 09:44:33 +0000";
layers = (
{
anchors = (
{
name = bottom;
position = "{443, 0}";
},
{
name = top;
position = "{456, 750}";
}
);
layerId = "9C4F76E1-3798-46C8-A886-41EF97D6106F";
paths = (
{
closed = 1;
nodes = (
"38 600 LINE",
"113 150 LINE",
"128 0 LINE",
"354 0 LINE",
"444 576 LINE",
"532 0 LINE",
"767 0 LINE",
"781 146 LINE",
"855 600 LINE",
"889 750 LINE",
"728 750 LINE",
"725 600 LINE",
"653 120 LINE",
"547 750 LINE",
"370 750 LINE",
"259 127 LINE",
"190 600 LINE",
"187 750 LINE",
"4 750 LINE"
);
}
);
width = 889;
},
{
associatedMasterId = "9C4F76E1-3798-46C8-A886-41EF97D6106F";
layerId = "B9ADB8C6-FDD3-4E22-868B-B7146D9B818F";
name = "Sep 4 17, 12:53";
paths = (
{
closed = 1;
nodes = (
"699 751 LINE",
"696 601 LINE",
"627 146 LINE",
"617 1 LINE",
"738 1 LINE",
"752 146 LINE",
"823 601 LINE",
"857 751 LINE"
);
},
{
closed = 1;
nodes = (
"356 751 LINE",
"235 1 LINE",
"355 1 LINE",
"466 751 LINE"
);
},
{
closed = 1;
nodes = (
"533 751 LINE",
"397 751 LINE",
"507 1 LINE",
"652 1 LINE"
);
},
{
closed = 1;
nodes = (
"8 751 LINE",
"42 601 LINE",
"116 146 LINE",
"130 1 LINE",
"272 1 LINE",
"262 146 LINE",
"191 601 LINE",
"188 751 LINE"
);
}
);
width = 865;
},
{
anchors = (
{
name = bottom;
position = "{451, 0}";
},
{
name = top;
position = "{464, 750}";
}
);
associatedMasterId = "9C4F76E1-3798-46C8-A886-41EF97D6106F";
layerId = "28967BA8-9F5A-48F8-B115-F7D278694B6C";
name = "Sep 7 17, 15:46";
paths = (
{
closed = 1;
nodes = (
"285 0 LINE",
"198 600 LINE",
"195 750 LINE",
"15 750 LINE",
"49 600 LINE",
"115 150 LINE",
"130 0 LINE"
);
},
{
closed = 1;
nodes = (
"365 0 LINE",
"483 750 LINE",
"373 750 LINE",
"245 0 LINE"
);
},
{
closed = 1;
nodes = (
"682 0 LINE",
"560 750 LINE",
"424 750 LINE",
"537 0 LINE"
);
},
{
closed = 1;
nodes = (
"778 0 LINE",
"792 146 LINE",
"860 600 LINE",
"894 750 LINE",
"736 750 LINE",
"733 600 LINE",
"645 0 LINE"
);
}
);
width = 902;
},
{
anchors = (
{
name = bottom;
position = "{444, 0}";
},
{
name = top;
position = "{457, 750}";
}
);
associatedMasterId = "9C4F76E1-3798-46C8-A886-41EF97D6106F";
layerId = "828866E9-9272-4D24-ABAC-13E9AE619471";
name = "Sep 12 17, 11:49";
paths = (
{
closed = 1;
nodes = (
"278 0 LINE",
"191 600 LINE",
"188 750 LINE",
"5 750 LINE",
"39 600 LINE",
"111 150 LINE",
"126 0 LINE"
);
},
{
closed = 1;
nodes = (
"358 0 LINE",
"476 750 LINE",
"366 750 LINE",
"238 0 LINE"
);
},
{
closed = 1;
nodes = (
"675 0 LINE",
"553 750 LINE",
"417 750 LINE",
"530 0 LINE"
);
},
{
closed = 1;
nodes = (
"768 0 LINE",
"782 146 LINE",
"856 600 LINE",
"890 750 LINE",
"729 750 LINE",
"726 600 LINE",
"638 0 LINE"
);
}
);
width = 890;
},
{
anchors = (
{
name = bottom;
position = "{463, 0}";
},
{
name = top;
position = "{463, 750}";
}
);
background = {
paths = (
{
closed = 1;
nodes = (
"314 0 LINE",
"149 600 LINE",
"112 750 LINE",
"10 750 LINE",
"60 600 LINE",
"191 150 LINE",
"232 0 LINE"
);
},
{
closed = 1;
nodes = (
"356 0 LINE",
"397 150 LINE",
"533 600 LINE",
"583 750 LINE",
"486 750 LINE",
"449 600 LINE",
"277 0 LINE"
);
}
);
};
layerId = "3B8C7C8F-80C4-4490-BC4D-FB44BC992E9B";
paths = (
{
closed = 1;
nodes = (
"64 600 LINE",
"155 150 LINE",
"180 0 LINE",
"306 0 LINE",
"455 590 LINE",
"603 0 LINE",
"746 0 LINE",
"770 146 LINE",
"862 600 LINE",
"896 750 LINE",
"812 750 LINE",
"789 600 LINE",
"678 54 LINE",
"499 750 LINE",
"431 750 LINE",
"249 71 LINE",
"145 600 LINE",
"122 750 LINE",
"30 750 LINE"
);
}
);
width = 926;
},
{
associatedMasterId = "3B8C7C8F-80C4-4490-BC4D-FB44BC992E9B";
background = {
paths = (
{
closed = 1;
nodes = (
"289 0 LINE",
"124 600 LINE",
"87 750 LINE",
"-15 750 LINE",
"35 600 LINE",
"166 150 LINE",
"207 0 LINE"
);
},
{
closed = 1;
nodes = (
"331 0 LINE",
"372 150 LINE",
"508 600 LINE",
"558 750 LINE",
"461 750 LINE",
"424 600 LINE",
"252 0 LINE"
);
}
);
};
layerId = "9D486B83-DD67-4D07-84F4-1780F2D1C875";
name = "Sep 21 17, 13:44";
paths = (
{
closed = 1;
nodes = (
"39 600 LINE",
"130 150 LINE",
"155 0 LINE",
"281 0 LINE",
"438 620 LINE",
"423 620 LINE",
"578 0 LINE",
"721 0 LINE",
"745 146 LINE",
"837 600 LINE",
"871 750 LINE",
"787 750 LINE",
"764 600 LINE",
"649 36 LINE",
"657 37 LINE",
"474 750 LINE",
"406 750 LINE",
"218 49 LINE",
"228 49 LINE",
"120 600 LINE",
"97 750 LINE",
"5 750 LINE"
);
}
);
width = 840;
}
);
leftKerningGroup = W;
rightKerningGroup = W;
unicode = 0057;
},
{
glyphname = X;
lastChange = "2017-11-08 08:07:22 +0000";
layers = (
{
anchors = (
{
name = bottom;
position = "{325, 0}";
},
{
name = top;
position = "{325, 750}";
}
);
layerId = "9C4F76E1-3798-46C8-A886-41EF97D6106F";
paths = (
{
closed = 1;
nodes = (
"188 0 LINE",
"253 150 LINE",
"354 327 LINE",
"283 327 LINE",
"386 150 LINE",
"455 0 LINE",
"649 0 LINE",
"547 150 LINE",
"383 443 LINE",
"383 324 LINE",
"532 605 LINE",
"628 750 LINE",
"435 750 LINE",
"375 605 LINE",
"284 439 LINE",
"357 439 LINE",
"264 605 LINE",
"200 750 LINE",
"6 750 LINE",
"103 605 LINE",
"260 315 LINE",
"255 436 LINE",
"96 150 LINE",
"-5 0 LINE"
);
}
);
width = 644;
},
{
associatedMasterId = "9C4F76E1-3798-46C8-A886-41EF97D6106F";
layerId = "493966F3-F788-4341-91E6-499D744A9CCC";
name = "Sep 4 17, 18:39";
paths = (
{
closed = 1;
nodes = (
"636 0 LINE",
"541 150 LINE",
"421 380 LINE",
"266 380 LINE",
"384 150 LINE",
"443 0 LINE"
);
},
{
closed = 1;
nodes = (
"201 0 LINE",
"260 150 LINE",
"378 380 LINE",
"223 380 LINE",
"103 150 LINE",
"8 0 LINE"
);
},
{
closed = 1;
nodes = (
"378 380 LINE",
"269 605 LINE",
"213 750 LINE",
"20 750 LINE",
"112 605 LINE",
"223 380 LINE"
);
},
{
closed = 1;
nodes = (
"421 380 LINE",
"532 605 LINE",
"624 750 LINE",
"431 750 LINE",
"375 605 LINE",
"266 380 LINE"
);
}
);
width = 644;
},
{
anchors = (
{
name = bottom;
position = "{314, 0}";
},
{
name = top;
position = "{314, 750}";
}
);
associatedMasterId = "9C4F76E1-3798-46C8-A886-41EF97D6106F";
layerId = "9BC962C1-3AB9-452E-83A4-2AA15DE4DC9D";
name = "Sep 12 17, 11:58";
paths = (
{
closed = 1;
nodes = (
"193 0 LINE",
"252 150 LINE",
"343 327 LINE",
"285 327 LINE",
"376 150 LINE",
"435 0 LINE",
"628 0 LINE",
"533 150 LINE",
"384 436 LINE",
"385 324 LINE",
"524 605 LINE",
"616 750 LINE",
"423 750 LINE",
"367 605 LINE",
"286 439 LINE",
"342 439 LINE",
"261 605 LINE",
"205 750 LINE",
"12 750 LINE",
"104 605 LINE",
"243 324 LINE",
"244 436 LINE",
"95 150 LINE",
"0 0 LINE"
);
}
);
width = 629;
},
{
anchors = (
{
name = bottom;
position = "{319, 0}";
},
{
name = top;
position = "{319, 750}";
}
);
layerId = "3B8C7C8F-80C4-4490-BC4D-FB44BC992E9B";
paths = (
{
closed = 1;
nodes = (
"123 0 LINE",
"206 150 LINE",
"321 337 LINE",
"303 337 LINE",
"419 150 LINE",
"509 0 LINE",
"620 0 LINE",
"514 150 LINE",
"335 434 LINE",
"334 332 LINE",
"497 605 LINE",
"594 750 LINE",
"495 750 LINE",
"414 605 LINE",
"309 429 LINE",
"328 429 LINE",
"219 605 LINE",
"139 750 LINE",
"32 750 LINE",
"128 605 LINE",
"302 324 LINE",
"295 428 LINE",
"120 150 LINE",
"18 0 LINE"
);
}
);
width = 638;
},
{
associatedMasterId = "3B8C7C8F-80C4-4490-BC4D-FB44BC992E9B";
layerId = "D66D45CC-49C0-4848-9D04-CF190D29D0D0";
name = "Sep 21 17, 14:10";
paths = (
{
closed = 1;
nodes = (
"102 0 LINE",
"185 150 LINE",
"300 337 LINE",
"286 337 LINE",
"400 150 LINE",
"488 0 LINE",
"599 0 LINE",
"495 150 LINE",
"318 434 LINE",
"312 332 LINE",
"476 605 LINE",
"573 750 LINE",
"474 750 LINE",
"393 605 LINE",
"287 429 LINE",
"303 429 LINE",
"199 605 LINE",
"118 750 LINE",
"11 750 LINE",
"108 605 LINE",
"277 324 LINE",
"274 428 LINE",
"99 150 LINE",
"-3 0 LINE"
);
}
);
width = 597;
}
);
unicode = 0058;
},
{
glyphname = Y;
lastChange = "2017-11-08 09:44:41 +0000";
layers = (
{
anchors = (
{
name = bottom;
position = "{300, 0}";
},
{
name = top;
position = "{300, 750}";
},
{
name = topleft;
position = "{11, 750}";
}
);
layerId = "9C4F76E1-3798-46C8-A886-41EF97D6106F";
paths = (
{
closed = 1;
nodes = (
"356 308 LINE",
"229 605 LINE",
"184 750 LINE",
"-9 750 LINE",
"72 605 LINE",
"248 213 LINE"
);
},
{
closed = 1;
nodes = (
"383 1 LINE",
"373 151 LINE",
"373 357 LINE",
"229 357 LINE",
"229 151 LINE",
"219 1 LINE"
);
},
{
closed = 1;
nodes = (
"528 605 LINE",
"609 750 LINE",
"416 750 LINE",
"371 605 LINE",
"244 308 LINE",
"357 223 LINE"
);
}
);
width = 600;
},
{
anchors = (
{
name = bottom;
position = "{302, 0}";
},
{
name = top;
position = "{302, 750}";
},
{
name = topleft;
position = "{42, 750}";
}
);
layerId = "3B8C7C8F-80C4-4490-BC4D-FB44BC992E9B";
paths = (
{
closed = 1;
nodes = (
"311 308 LINE",
"195 605 LINE",
"143 750 LINE",
"40 750 LINE",
"108 605 LINE",
"273 213 LINE"
);
},
{
closed = 1;
nodes = (
"352 1 LINE",
"347 151 LINE",
"347 307 LINE",
"265 307 LINE",
"265 151 LINE",
"260 1 LINE"
);
},
{
closed = 1;
nodes = (
"504 605 LINE",
"572 750 LINE",
"469 750 LINE",
"417 605 LINE",
"299 308 LINE",
"342 223 LINE"
);
}
);
width = 612;
}
);
leftKerningGroup = Y;
rightKerningGroup = Y;
unicode = 0059;
},
{
glyphname = Z;
lastChange = "2017-11-08 09:44:47 +0000";
layers = (
{
anchors = (
{
name = bottom;
position = "{289, 0}";
},
{
name = top;
position = "{289, 750}";
}
);
layerId = "9C4F76E1-3798-46C8-A886-41EF97D6106F";
paths = (
{
closed = 1;
nodes = (
"539 0 LINE",
"561 138 LINE",
"214 138 LINE",
"530 649 LINE",
"545 750 LINE",
"62 750 LINE",
"39 603 LINE",
"50 600 LINE",
"140 612 LINE",
"345 612 LINE",
"35 117 LINE",
"35 0 LINE"
);
}
);
width = 586;
},
{
anchors = (
{
name = bottom;
position = "{301, 0}";
},
{
name = top;
position = "{301, 750}";
}
);
associatedMasterId = "9C4F76E1-3798-46C8-A886-41EF97D6106F";
layerId = "A07CE8D2-619B-40E5-B28D-3E61CC400B5C";
name = "Sep 12 17, 13:07";
paths = (
{
closed = 1;
nodes = (
"141 0 LINE",
"542 649 LINE",
"395 672 LINE",
"47 117 LINE",
"47 0 LINE"
);
},
{
closed = 1;
nodes = (
"536 0 LINE",
"558 138 LINE",
"126 138 LINE",
"62 74 LINE",
"62 0 LINE"
);
},
{
closed = 1;
nodes = (
"165 612 LINE",
"489 612 LINE",
"542 649 LINE",
"557 750 LINE",
"42 750 LINE",
"64 603 LINE",
"75 600 LINE"
);
}
);
width = 601;
},
{
anchors = (
{
name = bottom;
position = "{311, 0}";
},
{
name = top;
position = "{311, 750}";
}
);
layerId = "3B8C7C8F-80C4-4490-BC4D-FB44BC992E9B";
paths = (
{
closed = 1;
nodes = (
"560 0 LINE",
"573 78 LINE",
"169 78 LINE",
"545 649 LINE",
"560 750 LINE",
"91 750 LINE",
"77 663 LINE",
"88 660 LINE",
"178 672 LINE",
"465 672 LINE",
"65 58 LINE",
"65 0 LINE"
);
}
);
width = 638;
},
{
anchors = (
{
name = bottom;
position = "{292, 0}";
},
{
name = top;
position = "{292, 750}";
}
);
associatedMasterId = "3B8C7C8F-80C4-4490-BC4D-FB44BC992E9B";
layerId = "78024BE1-73A7-4388-910D-DC65FF8C00DA";
name = "Sep 21 17, 14:37";
paths = (
{
closed = 1;
nodes = (
"60 663 LINE",
"71 660 LINE",
"161 672 LINE",
"470 672 LINE",
"481 726 LINE",
"46 58 LINE",
"46 0 LINE",
"531 0 LINE",
"544 78 LINE",
"133 78 LINE",
"139 61 LINE",
"526 649 LINE",
"541 750 LINE",
"46 750 LINE"
);
}
);
width = 583;
}
);
leftKerningGroup = Z;
rightKerningGroup = Z;
unicode = 005A;
},
{
glyphname = a;
lastChange = "2024-02-05 08:35:26 +0000";
layers = (
{
anchors = (
{
name = bottom;
position = "{279, 0}";
},
{
name = ogonek;
position = "{525, 0}";
},
{
name = top;
position = "{288, 600}";
}
);
guideLines = (
{
angle = 180;
position = "{204, 40}";
}
);
hints = (
{
place = "{375, 140}";
type = Stem;
},
{
place = "{33, 144}";
type = Stem;
}
);
layerId = "9C4F76E1-3798-46C8-A886-41EF97D6106F";
paths = (
{
closed = 1;
nodes = (
"33 40 OFFCURVE",
"101 -9 OFFCURVE",
"202 -9 CURVE SMOOTH",
"305 -9 OFFCURVE",
"378 56 OFFCURVE",
"391 99 CURVE",
"371 118 LINE",
"378 0 LINE",
"525 0 LINE",
"515 149 LINE",
"515 412 LINE SMOOTH",
"515 562 OFFCURVE",
"419 614 OFFCURVE",
"292 614 CURVE SMOOTH",
"211 614 OFFCURVE",
"136 591 OFFCURVE",
"92 564 CURVE",
"75 417 LINE",
"130 456 OFFCURVE",
"202 481 OFFCURVE",
"264 481 CURVE SMOOTH",
"333 481 OFFCURVE",
"375 452 OFFCURVE",
"375 392 CURVE SMOOTH",
"375 281 LINE",
"398 338 LINE",
"343 354 OFFCURVE",
"278 361 OFFCURVE",
"231 361 CURVE SMOOTH",
"108 361 OFFCURVE",
"33 300 OFFCURVE",
"33 167 CURVE SMOOTH"
);
},
{
closed = 1;
nodes = (
"177 227 OFFCURVE",
"204 256 OFFCURVE",
"256 256 CURVE SMOOTH",
"283 256 OFFCURVE",
"349 248 OFFCURVE",
"394 231 CURVE",
"375 292 LINE",
"375 98 LINE",
"401 198 LINE",
"362 132 OFFCURVE",
"302 105 OFFCURVE",
"251 105 CURVE SMOOTH",
"204 105 OFFCURVE",
"177 128 OFFCURVE",
"177 178 CURVE SMOOTH"
);
}
);
width = 573;
},
{
anchors = (
{
name = bottom;
position = "{267, 0}";
},
{
name = ogonek;
position = "{513, 0}";
},
{
name = top;
position = "{277, 600}";
}
);
associatedMasterId = "9C4F76E1-3798-46C8-A886-41EF97D6106F";
guideLines = (
{
angle = 180;
position = "{192, 40}";
}
);
layerId = "A2F4ABEF-EF40-4FC7-A2E5-17843A2FCC99";
name = "Sep 12 17, 14:29";
paths = (
{
closed = 1;
nodes = (
"513 0 LINE",
"503 149 LINE",
"503 424 LINE SMOOTH",
"503 550 OFFCURVE",
"413 614 OFFCURVE",
"277 614 CURVE SMOOTH",
"209 614 OFFCURVE",
"136 591 OFFCURVE",
"90 551 CURVE",
"72 403 LINE",
"83 401 LINE",
"116 452 OFFCURVE",
"180 477 OFFCURVE",
"257 477 CURVE SMOOTH",
"324 477 OFFCURVE",
"363 454 OFFCURVE",
"363 397 CURVE",
"363 115 LINE",
"360 98 LINE",
"366 0 LINE"
);
},
{
closed = 1;
nodes = (
"298 -16 OFFCURVE",
"367 23 OFFCURVE",
"377 95 CURVE SMOOTH",
"393 204 LINE",
"355 132 OFFCURVE",
"303 106 OFFCURVE",
"233 105 CURVE SMOOTH",
"191 105 OFFCURVE",
"169 128 OFFCURVE",
"169 176 CURVE SMOOTH",
"169 237 OFFCURVE",
"187 256 OFFCURVE",
"247 256 CURVE SMOOTH",
"307 256 OFFCURVE",
"366 239 OFFCURVE",
"404 199 CURVE",
"390 324 LINE",
"362 355 OFFCURVE",
"309 371 OFFCURVE",
"230 371 CURVE SMOOTH",
"141 371 OFFCURVE",
"31 301 OFFCURVE",
"31 167 CURVE SMOOTH",
"31 20 OFFCURVE",
"146 -16 OFFCURVE",
"217 -16 CURVE SMOOTH"
);
}
);
width = 561;
},
{
anchors = (
{
name = bottom;
position = "{279, 0}";
},
{
name = ogonek;
position = "{525, 0}";
},
{
name = top;
position = "{288, 600}";
}
);
associatedMasterId = "9C4F76E1-3798-46C8-A886-41EF97D6106F";
guideLines = (
{
angle = 180;
position = "{204, 40}";
}
);
layerId = "99CA55F8-8531-4DFF-94DD-4CA6065C5EC9";
name = "Sep 12 17, 17:15";
paths = (
{
closed = 1;
nodes = (
"525 0 LINE",
"515 149 LINE",
"515 424 LINE SMOOTH",
"515 542 OFFCURVE",
"422 614 OFFCURVE",
"279 614 CURVE SMOOTH",
"211 614 OFFCURVE",
"138 591 OFFCURVE",
"92 551 CURVE",
"74 403 LINE",
"85 401 LINE",
"118 452 OFFCURVE",
"182 477 OFFCURVE",
"259 477 CURVE SMOOTH",
"333 477 OFFCURVE",
"375 447 OFFCURVE",
"375 397 CURVE",
"375 115 LINE",
"372 98 LINE",
"378 0 LINE"
);
},
{
closed = 1;
nodes = (
"307 -16 OFFCURVE",
"380 29 OFFCURVE",
"389 95 CURVE",
"405 204 LINE",
"367 132 OFFCURVE",
"305 106 OFFCURVE",
"235 105 CURVE",
"190 105 OFFCURVE",
"171 129 OFFCURVE",
"171 176 CURVE SMOOTH",
"171 237 OFFCURVE",
"189 256 OFFCURVE",
"249 256 CURVE SMOOTH",
"322 256 OFFCURVE",
"385 232 OFFCURVE",
"416 199 CURVE",
"402 324 LINE",
"376 353 OFFCURVE",
"316 371 OFFCURVE",
"232 371 CURVE SMOOTH",
"126 371 OFFCURVE",
"33 283 OFFCURVE",
"33 167 CURVE SMOOTH",
"33 53 OFFCURVE",
"106 -16 OFFCURVE",
"219 -16 CURVE SMOOTH"
);
}
);
width = 573;
},
{
anchors = (
{
name = bottom;
position = "{294, 0}";
},
{
name = ogonek;
position = "{523, 0}";
},
{
name = top;
position = "{303, 600}";
}
);
background = {
paths = (
{
closed = 1;
nodes = (
"359 -8 OFFCURVE",
"414 23 OFFCURVE",
"441 74 CURVE",
"438 119 LINE",
"410 84 OFFCURVE",
"369 68 OFFCURVE",
"304 68 CURVE SMOOTH",
"200 68 OFFCURVE",
"152 136 OFFCURVE",
"152 301 CURVE SMOOTH",
"152 479 OFFCURVE",
"194 535 OFFCURVE",
"313 535 CURVE SMOOTH",
"381 535 OFFCURVE",
"429 522 OFFCURVE",
"458 500 CURVE",
"469 542 LINE",
"431 587 OFFCURVE",
"372 612 OFFCURVE",
"296 612 CURVE SMOOTH",
"142 612 OFFCURVE",
"68 519 OFFCURVE",
"68 301 CURVE SMOOTH",
"68 95 OFFCURVE",
"152 -8 OFFCURVE",
"298 -8 CURVE SMOOTH"
);
}
);
};
layerId = "3B8C7C8F-80C4-4490-BC4D-FB44BC992E9B";
paths = (
{
closed = 1;
nodes = (
"64 53 OFFCURVE",
"134 -16 OFFCURVE",
"261 -16 CURVE SMOOTH",
"333 -16 OFFCURVE",
"417 24 OFFCURVE",
"438 63 CURVE",
"441 0 LINE",
"523 0 LINE",
"518 149 LINE",
"518 417 LINE SMOOTH",
"518 546 OFFCURVE",
"442 614 OFFCURVE",
"309 614 CURVE SMOOTH",
"223 614 OFFCURVE",
"152 588 OFFCURVE",
"107 542 CURVE",
"95 447 LINE",
"106 445 LINE",
"143 503 OFFCURVE",
"215 536 OFFCURVE",
"296 536 CURVE SMOOTH",
"395 536 OFFCURVE",
"438 495 OFFCURVE",
"438 397 CURVE SMOOTH",
"438 335 LINE",
"402 357 OFFCURVE",
"327 371 OFFCURVE",
"269 371 CURVE SMOOTH",
"150 371 OFFCURVE",
"64 290 OFFCURVE",
"64 167 CURVE SMOOTH"
);
},
{
closed = 1;
nodes = (
"148 252 OFFCURVE",
"183 292 OFFCURVE",
"270 292 CURVE SMOOTH",
"334 292 OFFCURVE",
"407 275 OFFCURVE",
"438 253 CURVE",
"438 117 LINE",
"415 92 OFFCURVE",
"323 61 OFFCURVE",
"272 61 CURVE SMOOTH",
"176 61 OFFCURVE",
"148 91 OFFCURVE",
"148 176 CURVE SMOOTH"
);
}
);
width = 608;
},
{
anchors = (
{
name = bottom;
position = "{279, 0}";
},
{
name = ogonek;
position = "{525, 0}";
},
{
name = top;
position = "{288, 600}";
}
);
associatedMasterId = "3B8C7C8F-80C4-4490-BC4D-FB44BC992E9B";
background = {
paths = (
{
closed = 1;
nodes = (
"350 -8 OFFCURVE",
"405 23 OFFCURVE",
"432 74 CURVE",
"429 119 LINE",
"401 84 OFFCURVE",
"360 68 OFFCURVE",
"295 68 CURVE SMOOTH",
"191 68 OFFCURVE",
"143 136 OFFCURVE",
"143 301 CURVE SMOOTH",
"143 479 OFFCURVE",
"185 535 OFFCURVE",
"304 535 CURVE SMOOTH",
"372 535 OFFCURVE",
"420 522 OFFCURVE",
"449 500 CURVE",
"460 542 LINE",
"422 587 OFFCURVE",
"363 612 OFFCURVE",
"287 612 CURVE SMOOTH",
"133 612 OFFCURVE",
"59 519 OFFCURVE",
"59 301 CURVE SMOOTH",
"59 95 OFFCURVE",
"143 -8 OFFCURVE",
"289 -8 CURVE SMOOTH"
);
}
);
};
layerId = "B40F1202-061C-4FC9-8D23-6D9BCFFE00B1";
name = "Sep 19 17, 16:14";
paths = (
{
closed = 1;
nodes = (
"55 53 OFFCURVE",
"125 -16 OFFCURVE",
"252 -16 CURVE SMOOTH",
"324.229 -16 OFFCURVE",
"407.548 23.926 OFFCURVE",
"428.846 63.089 CURVE",
"432 0 LINE",
"514 0 LINE",
"509 149 LINE",
"509 417 LINE SMOOTH",
"509 536 OFFCURVE",
"427 614 OFFCURVE",
"300 614 CURVE SMOOTH",
"216 614 OFFCURVE",
"157 594 OFFCURVE",
"109 551 CURVE",
"97 455 LINE",
"108 453 LINE",
"144 508 OFFCURVE",
"200 536 OFFCURVE",
"287 536 CURVE SMOOTH",
"381 536 OFFCURVE",
"429 489 OFFCURVE",
"429 397 CURVE SMOOTH",
"429 335 LINE",
"393 357 OFFCURVE",
"318 371 OFFCURVE",
"260 371 CURVE SMOOTH",
"141 371 OFFCURVE",
"55 290 OFFCURVE",
"55 167 CURVE SMOOTH"
);
},
{
closed = 1;
nodes = (
"139 252 OFFCURVE",
"174 292 OFFCURVE",
"261 292 CURVE SMOOTH",
"325 292 OFFCURVE",
"398 275 OFFCURVE",
"429 253 CURVE",
"429 117 LINE",
"406 92 OFFCURVE",
"314 61 OFFCURVE",
"263 61 CURVE SMOOTH",
"167 61 OFFCURVE",
"139 91 OFFCURVE",
"139 176 CURVE SMOOTH"
);
}
);
width = 577;
},
{
anchors = (
{
name = bottom;
position = "{264, 0}";
},
{
name = ogonek;
position = "{510, 0}";
},
{
name = top;
position = "{273, 600}";
}
);
associatedMasterId = "3B8C7C8F-80C4-4490-BC4D-FB44BC992E9B";
background = {
paths = (
{
closed = 1;
nodes = (
"335 -8 OFFCURVE",
"390 23 OFFCURVE",
"417 74 CURVE",
"414 119 LINE",
"386 84 OFFCURVE",
"345 68 OFFCURVE",
"280 68 CURVE SMOOTH",
"176 68 OFFCURVE",
"128 136 OFFCURVE",
"128 301 CURVE SMOOTH",
"128 479 OFFCURVE",
"170 535 OFFCURVE",
"289 535 CURVE SMOOTH",
"357 535 OFFCURVE",
"405 522 OFFCURVE",
"434 500 CURVE",
"445 542 LINE",
"407 587 OFFCURVE",
"348 612 OFFCURVE",
"272 612 CURVE SMOOTH",
"118 612 OFFCURVE",
"44 519 OFFCURVE",
"44 301 CURVE SMOOTH",
"44 95 OFFCURVE",
"128 -8 OFFCURVE",
"274 -8 CURVE SMOOTH"
);
}
);
};
layerId = "FB409EC3-F8C0-44A9-B1EC-0FB4DB1B30E9";
name = "Sep 20 17, 14:13";
paths = (
{
closed = 1;
nodes = (
"40 53 OFFCURVE",
"110 -16 OFFCURVE",
"237 -16 CURVE SMOOTH",
"309 -16 OFFCURVE",
"393 24 OFFCURVE",
"414 63 CURVE",
"417 0 LINE",
"499 0 LINE",
"494 149 LINE",
"494 417 LINE SMOOTH",
"494 536 OFFCURVE",
"412 614 OFFCURVE",
"285 614 CURVE SMOOTH",
"199 614 OFFCURVE",
"128 588 OFFCURVE",
"83 542 CURVE",
"72 453 LINE",
"83 451 LINE",
"118 505 OFFCURVE",
"187 536 OFFCURVE",
"272 536 CURVE SMOOTH",
"366 536 OFFCURVE",
"414 489 OFFCURVE",
"414 397 CURVE SMOOTH",
"414 335 LINE",
"378 357 OFFCURVE",
"303 371 OFFCURVE",
"245 371 CURVE SMOOTH",
"126 371 OFFCURVE",
"40 290 OFFCURVE",
"40 167 CURVE SMOOTH"
);
},
{
closed = 1;
nodes = (
"124 252 OFFCURVE",
"159 292 OFFCURVE",
"246 292 CURVE SMOOTH",
"310 292 OFFCURVE",
"383 275 OFFCURVE",
"414 253 CURVE",
"414 117 LINE",
"391 92 OFFCURVE",
"299 61 OFFCURVE",
"248 61 CURVE SMOOTH",
"152 61 OFFCURVE",
"124 91 OFFCURVE",
"124 176 CURVE SMOOTH"
);
}
);
width = 562;
},
{
anchors = (
{
name = bottom;
position = "{279, 0}";
},
{
name = ogonek;
position = "{525, 0}";
},
{
name = top;
position = "{288, 600}";
}
);
associatedMasterId = "9C4F76E1-3798-46C8-A886-41EF97D6106F";
guideLines = (
{
angle = 180;
position = "{204, 40}";
}
);
hints = (
{
origin = "{1, 6}";
target = "{0, 8}";
type = Stem;
},
{
origin = "{0, 30}";
target = "{1, 12}";
type = Stem;
}
);
layerId = "D26C9388-7B3B-4378-933D-AB23431777CD";
name = "19 Nov 21, 14:13";
paths = (
{
closed = 1;
nodes = (
"33 53 OFFCURVE",
"106 -16 OFFCURVE",
"219 -16 CURVE SMOOTH",
"287.917 -16 OFFCURVE",
"347.634 11.6 OFFCURVE",
"374.616 55.271 CURVE",
"378 0 LINE",
"525 0 LINE",
"515 149 LINE",
"515 424 LINE SMOOTH",
"515 542 OFFCURVE",
"422 614 OFFCURVE",
"279 614 CURVE SMOOTH",
"211 614 OFFCURVE",
"138 591 OFFCURVE",
"92 551 CURVE",
"74 403 LINE",
"85 401 LINE",
"118 452 OFFCURVE",
"182 477 OFFCURVE",
"259 477 CURVE SMOOTH",
"333 477 OFFCURVE",
"375 447 OFFCURVE",
"375 397 CURVE SMOOTH",
"375 344.266 LINE",
"343.177 361.143 OFFCURVE",
"294.16 371 OFFCURVE",
"232 371 CURVE SMOOTH",
"126 371 OFFCURVE",
"33 283 OFFCURVE",
"33 167 CURVE SMOOTH"
);
},
{
closed = 1;
nodes = (
"177 229 OFFCURVE",
"199 256 OFFCURVE",
"249 256 CURVE SMOOTH",
"298 256 OFFCURVE",
"342 245 OFFCURVE",
"375 228.52 CURVE",
"375 161.186 LINE",
"341 124 OFFCURVE",
"295 105 OFFCURVE",
"246 105 CURVE SMOOTH",
"199 105 OFFCURVE",
"177 132 OFFCURVE",
"177 176 CURVE SMOOTH"
);
}
);
width = 573;
},
{
anchors = (
{
name = bottom;
position = "{279, 0}";
},
{
name = ogonek;
position = "{525, 0}";
},
{
name = top;
position = "{288, 600}";
}
);
associatedMasterId = "9C4F76E1-3798-46C8-A886-41EF97D6106F";
guideLines = (
{
angle = 180;
position = "{204, 40}";
}
);
hints = (
{
origin = "{1, 7, 1, 11}";
target = "{0, 9}";
type = Stem;
stem = 1000;
},
{
origin = "{0, 32}";
target = "{1, 14}";
type = Stem;
}
);
layerId = "E7E992C6-9D8D-4D49-B2AC-5FCC8BE45419";
name = "5 Feb 24 at 16:31";
paths = (
{
closed = 1;
nodes = (
"33 53 OFFCURVE",
"96 -9 OFFCURVE",
"202 -9 CURVE SMOOTH",
"300 -9 OFFCURVE",
"378 56 OFFCURVE",
"391 99 CURVE",
"371 118 LINE",
"378 0 LINE",
"525 0 LINE",
"515 149 LINE",
"515 412 LINE SMOOTH",
"515 562 OFFCURVE",
"419 614 OFFCURVE",
"279 614 CURVE SMOOTH",
"211 614 OFFCURVE",
"136 591 OFFCURVE",
"92 564 CURVE",
"75 417 LINE",
"78 415 LINE",
"130 456 OFFCURVE",
"202 481 OFFCURVE",
"264 481 CURVE SMOOTH",
"333 481 OFFCURVE",
"375 452 OFFCURVE",
"375 392 CURVE SMOOTH",
"375 281 LINE",
"398 338 LINE",
"343 354 OFFCURVE",
"287 361 OFFCURVE",
"231 361 CURVE SMOOTH",
"117 361 OFFCURVE",
"33 313 OFFCURVE",
"33 167 CURVE SMOOTH"
);
},
{
closed = 1;
nodes = (
"177 229 OFFCURVE",
"199 256 OFFCURVE",
"251 256 CURVE SMOOTH",
"293 256 OFFCURVE",
"349 248 OFFCURVE",
"394 231 CURVE",
"375 292 LINE",
"375 98 LINE",
"401 198 LINE",
"362 132 OFFCURVE",
"309 105 OFFCURVE",
"246 105 CURVE SMOOTH",
"199 105 OFFCURVE",
"177 132 OFFCURVE",
"177 178 CURVE SMOOTH"
);
}
);
width = 573;
}
);
leftKerningGroup = a;
rightKerningGroup = n;
rightMetricsKey = "=n";
unicode = 0061;
},
{
glyphname = ae;
lastChange = "2017-11-08 09:45:23 +0000";
layers = (
{
anchors = (
{
name = bottom;
position = "{465, 0}";
},
{
name = top;
position = "{465, 600}";
}
);
components = (
{
alignment = -1;
name = e;
transform = "{1, 0, 0, 1, 346, 0}";
}
);
layerId = "9C4F76E1-3798-46C8-A886-41EF97D6106F";
paths = (
{
closed = 1;
nodes = (
"527 300 LINE",
"527 424 LINE SMOOTH",
"527 548 OFFCURVE",
"440 614 OFFCURVE",
"283 614 CURVE SMOOTH",
"206 614 OFFCURVE",
"133 592 OFFCURVE",
"86 551 CURVE",
"68 403 LINE",
"79 401 LINE",
"114 455 OFFCURVE",
"179 477 OFFCURVE",
"263 477 CURVE SMOOTH",
"339 477 OFFCURVE",
"387 455 OFFCURVE",
"387 397 CURVE SMOOTH",
"387 266 LINE"
);
},
{
closed = 1;
nodes = (
"346 -16 OFFCURVE",
"439 26 OFFCURVE",
"467 117 CURVE",
"417 204 LINE",
"380 134 OFFCURVE",
"319 105 OFFCURVE",
"235 105 CURVE SMOOTH",
"193 105 OFFCURVE",
"171 129 OFFCURVE",
"171 169 CURVE SMOOTH",
"171 227 OFFCURVE",
"199 249 OFFCURVE",
"289 249 CURVE SMOOTH",
"531 249 LINE",
"531 354 LINE",
"289 356 LINE SMOOTH",
"118 357 OFFCURVE",
"33 300 OFFCURVE",
"33 167 CURVE SMOOTH",
"33 20 OFFCURVE",
"148 -16 OFFCURVE",
"219 -16 CURVE SMOOTH"
);
}
);
width = 928;
},
{
anchors = (
{
name = bottom;
position = "{476, 0}";
},
{
name = top;
position = "{476, 600}";
}
);
background = {
paths = (
{
closed = 1;
nodes = (
"521 300 LINE",
"521 424 LINE SMOOTH",
"521 548 OFFCURVE",
"434 614 OFFCURVE",
"277 614 CURVE SMOOTH",
"200 614 OFFCURVE",
"127 592 OFFCURVE",
"80 551 CURVE",
"62 403 LINE",
"73 401 LINE",
"108 455 OFFCURVE",
"173 477 OFFCURVE",
"257 477 CURVE SMOOTH",
"333 477 OFFCURVE",
"381 455 OFFCURVE",
"381 397 CURVE SMOOTH",
"381 266 LINE"
);
},
{
closed = 1;
nodes = (
"340 -16 OFFCURVE",
"433 26 OFFCURVE",
"461 117 CURVE",
"411 204 LINE",
"374 134 OFFCURVE",
"313 105 OFFCURVE",
"229 105 CURVE SMOOTH",
"187 105 OFFCURVE",
"165 128 OFFCURVE",
"165 176 CURVE SMOOTH",
"165 228 OFFCURVE",
"192 249 OFFCURVE",
"283 249 CURVE SMOOTH",
"525 249 LINE",
"525 354 LINE",
"283 356 LINE SMOOTH",
"112 357 OFFCURVE",
"27 300 OFFCURVE",
"27 167 CURVE SMOOTH",
"27 20 OFFCURVE",
"142 -16 OFFCURVE",
"213 -16 CURVE SMOOTH"
);
}
);
};
components = (
{
alignment = -1;
name = e;
transform = "{1, 0, 0, 1, 357, 0}";
}
);
layerId = "3B8C7C8F-80C4-4490-BC4D-FB44BC992E9B";
paths = (
{
closed = 1;
nodes = (
"497 297 LINE",
"497 417 LINE SMOOTH",
"497 544 OFFCURVE",
"416 614 OFFCURVE",
"290 614 CURVE SMOOTH",
"204 614 OFFCURVE",
"141 588 OFFCURVE",
"96 542 CURVE",
"84 447 LINE",
"95 445 LINE",
"132 503 OFFCURVE",
"196 536 OFFCURVE",
"277 536 CURVE SMOOTH",
"376 536 OFFCURVE",
"427 495 OFFCURVE",
"427 397 CURVE SMOOTH",
"427 299 LINE"
);
},
{
closed = 1;
nodes = (
"347 -16 OFFCURVE",
"460 51 OFFCURVE",
"473 120 CURVE",
"438 176 LINE",
"415 109 OFFCURVE",
"335 61 OFFCURVE",
"243 61 CURVE SMOOTH",
"161 61 OFFCURVE",
"119 95 OFFCURVE",
"119 158 CURVE SMOOTH",
"119 231 OFFCURVE",
"158 258 OFFCURVE",
"274 258 CURVE SMOOTH",
"496 258 LINE",
"496 331 LINE",
"273 332 LINE SMOOTH",
"112 333 OFFCURVE",
"35 271 OFFCURVE",
"35 158 CURVE SMOOTH",
"35 50 OFFCURVE",
"101 -16 OFFCURVE",
"232 -16 CURVE SMOOTH"
);
}
);
width = 969;
},
{
anchors = (
{
name = bottom;
position = "{462, 0}";
},
{
name = top;
position = "{462, 600}";
}
);
associatedMasterId = "9C4F76E1-3798-46C8-A886-41EF97D6106F";
components = (
{
alignment = -1;
name = e;
transform = "{1, 0, 0, 1, 343, 0}";
}
);
layerId = "583A9FE3-1B71-4E16-860D-8A663CFC7F33";
name = "Sep 22 17, 11:15";
paths = (
{
closed = 1;
nodes = (
"524 300 LINE",
"524 424 LINE SMOOTH",
"524 548 OFFCURVE",
"437 614 OFFCURVE",
"280 614 CURVE SMOOTH",
"203 614 OFFCURVE",
"130 592 OFFCURVE",
"83 551 CURVE",
"65 403 LINE",
"76 401 LINE",
"111 455 OFFCURVE",
"176 477 OFFCURVE",
"260 477 CURVE SMOOTH",
"336 477 OFFCURVE",
"384 455 OFFCURVE",
"384 397 CURVE SMOOTH",
"384 266 LINE"
);
},
{
closed = 1;
nodes = (
"343 -16 OFFCURVE",
"436 26 OFFCURVE",
"464 117 CURVE",
"414 204 LINE",
"377 134 OFFCURVE",
"316 105 OFFCURVE",
"232 105 CURVE SMOOTH",
"190 105 OFFCURVE",
"168 128 OFFCURVE",
"168 176 CURVE SMOOTH",
"168 228 OFFCURVE",
"195 249 OFFCURVE",
"286 249 CURVE SMOOTH",
"528 249 LINE",
"528 354 LINE",
"286 356 LINE SMOOTH",
"115 357 OFFCURVE",
"30 300 OFFCURVE",
"30 167 CURVE SMOOTH",
"30 20 OFFCURVE",
"145 -16 OFFCURVE",
"216 -16 CURVE SMOOTH"
);
}
);
width = 925;
}
);
leftKerningGroup = a;
rightKerningGroup = e;
rightMetricsKey = e;
unicode = 00E6;
},
{
glyphname = b;
lastChange = "2024-02-12 09:54:26 +0000";
layers = (
{
anchors = (
{
name = bottom;
position = "{294, 0}";
},
{
name = top;
position = "{294, 600}";
}
);
layerId = "9C4F76E1-3798-46C8-A886-41EF97D6106F";
paths = (
{
closed = 1;
nodes = (
"482 -5 OFFCURVE",
"551 103 OFFCURVE",
"551 301 CURVE SMOOTH",
"551 504 OFFCURVE",
"479 609 OFFCURVE",
"340 609 CURVE SMOOTH",
"270 609 OFFCURVE",
"216 583 OFFCURVE",
"188 535 CURVE",
"205 512 LINE",
"205 655 LINE",
"215 800 LINE",
"55 800 LINE",
"65 655 LINE",
"65 149 LINE",
"55 0 LINE",
"202 0 LINE",
"208 117 LINE",
"189 91 LINE",
"220 31 OFFCURVE",
"282 -5 OFFCURVE",
"355 -5 CURVE SMOOTH"
);
},
{
closed = 1;
nodes = (
"205 521 LINE",
"205 412 LINE",
"227 457 OFFCURVE",
"262 481 OFFCURVE",
"305 481 CURVE SMOOTH",
"373 481 OFFCURVE",
"407 421 OFFCURVE",
"407 301 CURVE SMOOTH",
"407 181 OFFCURVE",
"372 120 OFFCURVE",
"304 120 CURVE SMOOTH",
"257 120 OFFCURVE",
"221 148 OFFCURVE",
"198 202 CURVE",
"205 96 LINE"
);
}
);
width = 587;
},
{
anchors = (
{
name = bottom;
position = "{342, 0}";
},
{
name = top;
position = "{342, 600}";
}
);
background = {
paths = (
{
closed = 1;
nodes = (
"486 -16 OFFCURVE",
"563 87 OFFCURVE",
"563 301 CURVE SMOOTH",
"563 515 OFFCURVE",
"486 616 OFFCURVE",
"317 616 CURVE SMOOTH",
"148 616 OFFCURVE",
"71 515 OFFCURVE",
"71 301 CURVE SMOOTH",
"71 87 OFFCURVE",
"148 -16 OFFCURVE",
"317 -16 CURVE SMOOTH"
);
},
{
closed = 1;
nodes = (
"194 62 OFFCURVE",
"155 121 OFFCURVE",
"155 300 CURVE SMOOTH",
"155 479 OFFCURVE",
"194 538 OFFCURVE",
"317 538 CURVE SMOOTH",
"440 538 OFFCURVE",
"479 479 OFFCURVE",
"479 300 CURVE SMOOTH",
"479 121 OFFCURVE",
"440 62 OFFCURVE",
"317 62 CURVE SMOOTH"
);
}
);
};
layerId = "3B8C7C8F-80C4-4490-BC4D-FB44BC992E9B";
paths = (
{
closed = 1;
nodes = (
"461 -8 OFFCURVE",
"545 95 OFFCURVE",
"545 301 CURVE SMOOTH",
"545 519 OFFCURVE",
"471 612 OFFCURVE",
"317 612 CURVE SMOOTH",
"241 612 OFFCURVE",
"182 587 OFFCURVE",
"144 542 CURVE",
"175 512 LINE",
"205 527 OFFCURVE",
"246 535 OFFCURVE",
"300 535 CURVE SMOOTH",
"419 535 OFFCURVE",
"461 479 OFFCURVE",
"461 301 CURVE SMOOTH",
"461 136 OFFCURVE",
"413 68 OFFCURVE",
"309 68 CURVE SMOOTH",
"244 68 OFFCURVE",
"203 84 OFFCURVE",
"175 119 CURVE",
"172 74 LINE",
"199 23 OFFCURVE",
"254 -8 OFFCURVE",
"315 -8 CURVE SMOOTH"
);
},
{
closed = 1;
nodes = (
"171 0 LINE",
"177 93 LINE",
"175 115 LINE",
"175 655 LINE",
"180 800 LINE",
"90 800 LINE",
"95 655 LINE",
"95 149 LINE",
"90 0 LINE"
);
}
);
width = 615;
},
{
anchors = (
{
name = bottom;
position = "{294, 0}";
},
{
name = top;
position = "{294, 600}";
}
);
associatedMasterId = "9C4F76E1-3798-46C8-A886-41EF97D6106F";
background = {
paths = (
{
closed = 1;
nodes = (
"330 474 OFFCURVE",
"362 463 OFFCURVE",
"383 450 CURVE",
"401 407 OFFCURVE",
"409 351 OFFCURVE",
"407 289 CURVE SMOOTH",
"407 153 OFFCURVE",
"373 124 OFFCURVE",
"313 124 CURVE SMOOTH",
"270 124 OFFCURVE",
"237 138 OFFCURVE",
"205 176 CURVE",
"205 73 LINE",
"229 26 OFFCURVE",
"297 -12 OFFCURVE",
"363 -12 CURVE SMOOTH",
"477 -12 OFFCURVE",
"551 95 OFFCURVE",
"551 295 CURVE SMOOTH",
"551 502 OFFCURVE",
"477 612 OFFCURVE",
"303 612 CURVE SMOOTH",
"209 612 OFFCURVE",
"170 598 OFFCURVE",
"125 564 CURVE",
"148 429 LINE",
"163 432 LINE",
"192 461 OFFCURVE",
"221 474 OFFCURVE",
"293 474 CURVE SMOOTH"
);
}
);
};
layerId = "B965F93F-0BC7-4B21-991F-1CDC6125168D";
name = "19 Nov 21, 14:34";
paths = (
{
closed = 1;
nodes = (
"473 -8 OFFCURVE",
"551 101 OFFCURVE",
"551 301 CURVE SMOOTH",
"551 517 OFFCURVE",
"478 612 OFFCURVE",
"343 612 CURVE SMOOTH",
"271 612 OFFCURVE",
"209 591 OFFCURVE",
"181 557 CURVE",
"205 461 LINE",
"228 470 OFFCURVE",
"266 474 OFFCURVE",
"303 474 CURVE SMOOTH",
"384 474 OFFCURVE",
"407 442 OFFCURVE",
"407 301 CURVE SMOOTH",
"407 166 OFFCURVE",
"386 127 OFFCURVE",
"313 127 CURVE SMOOTH",
"275 127 OFFCURVE",
"228 140 OFFCURVE",
"205 156 CURVE",
"205 55 LINE",
"230 17 OFFCURVE",
"290 -8 OFFCURVE",
"333 -8 CURVE SMOOTH"
);
},
{
closed = 1;
nodes = (
"202 0 LINE",
"208 98 LINE",
"205 115 LINE",
"205 655 LINE",
"215 800 LINE",
"55 800 LINE",
"65 655 LINE",
"65 149 LINE",
"55 0 LINE"
);
}
);
width = 590;
},
{
anchors = (
{
name = bottom;
position = "{294, 0}";
},
{
name = top;
position = "{294, 600}";
}
);
associatedMasterId = "9C4F76E1-3798-46C8-A886-41EF97D6106F";
layerId = "824D9B4E-8216-45CC-A987-D9A90EBF81F4";
name = "19 Nov 21, 14:56";
paths = (
{
closed = 1;
nodes = (
"501 -8 OFFCURVE",
"551 78 OFFCURVE",
"551 301 CURVE SMOOTH",
"551 541 OFFCURVE",
"498 612 OFFCURVE",
"370 612 CURVE SMOOTH",
"325 612 OFFCURVE",
"251 594 OFFCURVE",
"180 559 CURVE",
"205 515 LINE",
"205 655 LINE",
"215 800 LINE",
"55 800 LINE",
"65 655 LINE",
"65 149 LINE",
"55 0 LINE",
"202 0 LINE",
"208 117 LINE",
"192 88 LINE",
"223 28 OFFCURVE",
"289 -8 OFFCURVE",
"372 -8 CURVE SMOOTH"
);
},
{
closed = 1;
nodes = (
"205 524 LINE",
"185 450 LINE",
"221 470 OFFCURVE",
"275 484 OFFCURVE",
"313 484 CURVE SMOOTH",
"383 484 OFFCURVE",
"407 449 OFFCURVE",
"407 301 CURVE SMOOTH",
"407 150 OFFCURVE",
"390 117 OFFCURVE",
"313 117 CURVE SMOOTH",
"260 117 OFFCURVE",
"218 135 OFFCURVE",
"191 159 CURVE",
"205 93 LINE"
);
}
);
width = 590;
},
{
anchors = (
{
name = bottom;
position = "{294, 0}";
},
{
name = top;
position = "{294, 600}";
}
);
associatedMasterId = "9C4F76E1-3798-46C8-A886-41EF97D6106F";
layerId = "34D385E5-B7E0-4522-B6C2-38ABE0308746";
name = "5 Feb 24 at 12:23";
paths = (
{
closed = 1;
nodes = (
"463 -5 OFFCURVE",
"548 81 OFFCURVE",
"548 301 CURVE SMOOTH",
"548 535 OFFCURVE",
"481 609 OFFCURVE",
"359 609 CURVE SMOOTH",
"309 609 OFFCURVE",
"239 594 OFFCURVE",
"177 556 CURVE",
"205 512 LINE",
"205 655 LINE",
"215 800 LINE",
"55 800 LINE",
"65 655 LINE",
"65 149 LINE",
"55 0 LINE",
"202 0 LINE",
"208 117 LINE",
"189 91 LINE",
"220 31 OFFCURVE",
"286 -5 OFFCURVE",
"369 -5 CURVE SMOOTH"
);
},
{
closed = 1;
nodes = (
"205 521 LINE",
"182 447 LINE",
"218 467 OFFCURVE",
"270 481 OFFCURVE",
"308 481 CURVE SMOOTH",
"370 481 OFFCURVE",
"404 446 OFFCURVE",
"404 301 CURVE SMOOTH",
"404 159 OFFCURVE",
"369 120 OFFCURVE",
"312 120 CURVE SMOOTH",
"278 120 OFFCURVE",
"221 133 OFFCURVE",
"188 162 CURVE",
"205 96 LINE"
);
}
);
width = 587;
},
{
anchors = (
{
name = bottom;
position = "{294, 0}";
},
{
name = top;
position = "{294, 600}";
}
);
associatedMasterId = "9C4F76E1-3798-46C8-A886-41EF97D6106F";
layerId = "CB789793-30F6-4CF7-9254-284666ACCEBD";
name = "11 Feb 24 at 20:33";
paths = (
{
closed = 1;
nodes = (
"488 -5 OFFCURVE",
"548 98 OFFCURVE",
"548 301 CURVE SMOOTH",
"548 505 OFFCURVE",
"481 609 OFFCURVE",
"359 609 CURVE SMOOTH",
"309 609 OFFCURVE",
"241 592 OFFCURVE",
"177 565 CURVE",
"205 512 LINE",
"205 655 LINE",
"215 800 LINE",
"55 800 LINE",
"65 655 LINE",
"65 149 LINE",
"55 0 LINE",
"202 0 LINE",
"208 117 LINE",
"189 91 LINE",
"220 31 OFFCURVE",
"288 -5 OFFCURVE",
"362 -5 CURVE SMOOTH"
);
},
{
closed = 1;
nodes = (
"205 521 LINE",
"182 454 LINE",
"218 470 OFFCURVE",
"274 481 OFFCURVE",
"308 481 CURVE SMOOTH",
"374 481 OFFCURVE",
"404 438 OFFCURVE",
"404 301 CURVE SMOOTH",
"404 158 OFFCURVE",
"365 120 OFFCURVE",
"298 120 CURVE SMOOTH",
"259 120 OFFCURVE",
"221 133 OFFCURVE",
"188 162 CURVE",
"205 96 LINE"
);
}
);
width = 587;
}
);
leftKerningGroup = l;
leftMetricsKey = l;
rightKerningGroup = o;
rightMetricsKey = o;
unicode = 0062;
},
{
glyphname = c;
lastChange = "2024-02-11 12:33:07 +0000";
layers = (
{
anchors = (
{
name = bottom;
position = "{274, 0}";
},
{
name = top;
position = "{274, 600}";
}
);
background = {
paths = (
{
closed = 1;
nodes = (
"361 -16 OFFCURVE",
"391 -4 OFFCURVE",
"442 36 CURVE",
"473 159 LINE",
"456 167 LINE",
"424 136 OFFCURVE",
"388 124 OFFCURVE",
"318 124 CURVE SMOOTH",
"209 124 OFFCURVE",
"184 163 OFFCURVE",
"184 295 CURVE SMOOTH",
"184 422 OFFCURVE",
"216 474 OFFCURVE",
"303 474 CURVE SMOOTH",
"370 474 OFFCURVE",
"399 461 OFFCURVE",
"428 432 CURVE",
"444 439 LINE",
"466 564 LINE",
"421 598 OFFCURVE",
"382 612 OFFCURVE",
"288 612 CURVE SMOOTH",
"120 612 OFFCURVE",
"40 492 OFFCURVE",
"40 295 CURVE SMOOTH",
"40 95 OFFCURVE",
"114 -16 OFFCURVE",
"288 -16 CURVE SMOOTH"
);
}
);
};
layerId = "9C4F76E1-3798-46C8-A886-41EF97D6106F";
paths = (
{
closed = 1;
nodes = (
"416 140 OFFCURVE",
"362 126 OFFCURVE",
"314 126 CURVE SMOOTH",
"222 126 OFFCURVE",
"183 179 OFFCURVE",
"183 293 CURVE SMOOTH",
"183 434 OFFCURVE",
"243 482 OFFCURVE",
"319 482 CURVE SMOOTH",
"357 482 OFFCURVE",
"393 470 OFFCURVE",
"444 437 CURVE",
"469 576 LINE",
"418 603 OFFCURVE",
"352 612 OFFCURVE",
"303 612 CURVE SMOOTH",
"128 612 OFFCURVE",
"36 499 OFFCURVE",
"36 293 CURVE SMOOTH",
"36 104 OFFCURVE",
"113 -8 OFFCURVE",
"295 -8 CURVE SMOOTH",
"354 -8 OFFCURVE",
"402 3 OFFCURVE",
"451 30 CURVE",
"469 174 LINE"
);
}
);
width = 497;
},
{
associatedMasterId = "9C4F76E1-3798-46C8-A886-41EF97D6106F";
background = {
paths = (
{
closed = 1;
nodes = (
"488 -16 OFFCURVE",
"562 97 OFFCURVE",
"562 301 CURVE SMOOTH",
"562 505 OFFCURVE",
"488 616 OFFCURVE",
"304 616 CURVE SMOOTH",
"120 616 OFFCURVE",
"46 505 OFFCURVE",
"46 301 CURVE SMOOTH",
"46 97 OFFCURVE",
"120 -16 OFFCURVE",
"304 -16 CURVE SMOOTH"
);
},
{
closed = 1;
nodes = (
"220 124 OFFCURVE",
"190 167 OFFCURVE",
"190 301 CURVE SMOOTH",
"190 361 OFFCURVE",
"196 414 OFFCURVE",
"214 456 CURVE",
"235 469 OFFCURVE",
"277 478 OFFCURVE",
"314 478 CURVE SMOOTH",
"388 478 OFFCURVE",
"418 435 OFFCURVE",
"418 301 CURVE SMOOTH",
"418 241 OFFCURVE",
"412 188 OFFCURVE",
"394 146 CURVE",
"373 133 OFFCURVE",
"331 124 OFFCURVE",
"294 124 CURVE SMOOTH"
);
},
{
closed = 1;
nodes = (
"440 594 OFFCURVE",
"385 613 OFFCURVE",
"304 613 CURVE SMOOTH",
"202 613 OFFCURVE",
"101 535 OFFCURVE",
"101 424 CURVE SMOOTH",
"101 341 OFFCURVE",
"149 286 OFFCURVE",
"245 252 CURVE SMOOTH",
"338 219 OFFCURVE",
"368 200 OFFCURVE",
"368 172 CURVE SMOOTH",
"368 145 OFFCURVE",
"341 131 OFFCURVE",
"285 131 CURVE SMOOTH",
"224 131 OFFCURVE",
"155 159 OFFCURVE",
"103 202 CURVE",
"91 198 LINE",
"110 72 LINE",
"159 21 OFFCURVE",
"204 -10 OFFCURVE",
"304 -10 CURVE SMOOTH",
"421 -10 OFFCURVE",
"512 71 OFFCURVE",
"512 183 CURVE SMOOTH",
"512 271 OFFCURVE",
"460 322 OFFCURVE",
"363 354 CURVE SMOOTH",
"270 385 OFFCURVE",
"245 403 OFFCURVE",
"245 433 CURVE SMOOTH",
"245 462 OFFCURVE",
"270 475 OFFCURVE",
"317 475 CURVE SMOOTH",
"369 475 OFFCURVE",
"431 455 OFFCURVE",
"453 419 CURVE",
"467 416 LINE",
"490 549 LINE"
);
}
);
};
layerId = "DDB35CD0-2C23-43FB-BBE8-AC283A0DDE1C";
name = "Aug 29 17, 18:18";
paths = (
{
closed = 1;
nodes = (
"380 472 OFFCURVE",
"427 459 OFFCURVE",
"454 432 CURVE",
"469 429 LINE",
"492 564 LINE",
"450 596 OFFCURVE",
"393 610 OFFCURVE",
"294 610 CURVE SMOOTH",
"120 610 OFFCURVE",
"46 502 OFFCURVE",
"46 295 CURVE SMOOTH",
"46 95 OFFCURVE",
"120 -16 OFFCURVE",
"294 -16 CURVE SMOOTH",
"374 -16 OFFCURVE",
"420 -4 OFFCURVE",
"474 36 CURVE",
"507 165 LINE",
"498 169 LINE",
"469 141 OFFCURVE",
"398 124 OFFCURVE",
"324 124 CURVE SMOOTH",
"224 124 OFFCURVE",
"190 153 OFFCURVE",
"190 289 CURVE",
"188 351 OFFCURVE",
"196 407 OFFCURVE",
"214 450 CURVE",
"235 463 OFFCURVE",
"267 472 OFFCURVE",
"304 472 CURVE SMOOTH"
);
}
);
width = 539;
},
{
anchors = (
{
name = bottom;
position = "{284, 0}";
},
{
name = top;
position = "{284, 600}";
}
);
associatedMasterId = "9C4F76E1-3798-46C8-A886-41EF97D6106F";
background = {
paths = (
{
closed = 1;
nodes = (
"492 -16 OFFCURVE",
"566 97 OFFCURVE",
"566 301 CURVE SMOOTH",
"566 505 OFFCURVE",
"492 616 OFFCURVE",
"308 616 CURVE SMOOTH",
"124 616 OFFCURVE",
"50 505 OFFCURVE",
"50 301 CURVE SMOOTH",
"50 97 OFFCURVE",
"124 -16 OFFCURVE",
"308 -16 CURVE SMOOTH"
);
},
{
closed = 1;
nodes = (
"224 124 OFFCURVE",
"194 167 OFFCURVE",
"194 301 CURVE SMOOTH",
"194 361 OFFCURVE",
"200 414 OFFCURVE",
"218 456 CURVE",
"239 469 OFFCURVE",
"281 478 OFFCURVE",
"318 478 CURVE SMOOTH",
"392 478 OFFCURVE",
"422 435 OFFCURVE",
"422 301 CURVE SMOOTH",
"422 241 OFFCURVE",
"416 188 OFFCURVE",
"398 146 CURVE",
"377 133 OFFCURVE",
"335 124 OFFCURVE",
"298 124 CURVE SMOOTH"
);
},
{
closed = 1;
nodes = (
"444 594 OFFCURVE",
"389 613 OFFCURVE",
"308 613 CURVE SMOOTH",
"206 613 OFFCURVE",
"105 535 OFFCURVE",
"105 424 CURVE SMOOTH",
"105 341 OFFCURVE",
"153 286 OFFCURVE",
"249 252 CURVE SMOOTH",
"342 219 OFFCURVE",
"372 200 OFFCURVE",
"372 172 CURVE SMOOTH",
"372 145 OFFCURVE",
"345 131 OFFCURVE",
"289 131 CURVE SMOOTH",
"228 131 OFFCURVE",
"159 159 OFFCURVE",
"107 202 CURVE",
"95 198 LINE",
"114 72 LINE",
"163 21 OFFCURVE",
"208 -10 OFFCURVE",
"308 -10 CURVE SMOOTH",
"425 -10 OFFCURVE",
"516 71 OFFCURVE",
"516 183 CURVE SMOOTH",
"516 271 OFFCURVE",
"464 322 OFFCURVE",
"367 354 CURVE SMOOTH",
"274 385 OFFCURVE",
"249 403 OFFCURVE",
"249 433 CURVE SMOOTH",
"249 462 OFFCURVE",
"274 475 OFFCURVE",
"321 475 CURVE SMOOTH",
"373 475 OFFCURVE",
"435 455 OFFCURVE",
"457 419 CURVE",
"471 416 LINE",
"494 549 LINE"
);
}
);
};
layerId = "33D386A4-4E9A-4A6B-AEDB-2B8ADCCD0FB3";
name = "Sep 12 17, 10:00";
paths = (
{
closed = 1;
nodes = (
"374 -16 OFFCURVE",
"394 -7 OFFCURVE",
"452 36 CURVE",
"485 165 LINE",
"476 169 LINE",
"445 139 OFFCURVE",
"400 124 OFFCURVE",
"328 124 CURVE SMOOTH",
"219 124 OFFCURVE",
"194 163 OFFCURVE",
"194 295 CURVE SMOOTH",
"194 422 OFFCURVE",
"226 474 OFFCURVE",
"313 474 CURVE SMOOTH",
"380 474 OFFCURVE",
"409 461 OFFCURVE",
"438 432 CURVE",
"454 439 LINE",
"476 564 LINE",
"431 598 OFFCURVE",
"392 612 OFFCURVE",
"298 612 CURVE SMOOTH",
"130 612 OFFCURVE",
"50 492 OFFCURVE",
"50 295 CURVE SMOOTH",
"50 95 OFFCURVE",
"124 -16 OFFCURVE",
"298 -16 CURVE SMOOTH"
);
}
);
width = 520;
},
{
anchors = (
{
name = bottom;
position = "{311, 0}";
},
{
name = top;
position = "{311, 600}";
}
);
background = {
paths = (
{
closed = 1;
nodes = (
"486 -16 OFFCURVE",
"563 87 OFFCURVE",
"563 301 CURVE SMOOTH",
"563 515 OFFCURVE",
"486 616 OFFCURVE",
"317 616 CURVE SMOOTH",
"148 616 OFFCURVE",
"71 515 OFFCURVE",
"71 301 CURVE SMOOTH",
"71 87 OFFCURVE",
"148 -16 OFFCURVE",
"317 -16 CURVE SMOOTH"
);
},
{
closed = 1;
nodes = (
"194 62 OFFCURVE",
"155 121 OFFCURVE",
"155 300 CURVE SMOOTH",
"155 479 OFFCURVE",
"194 538 OFFCURVE",
"317 538 CURVE SMOOTH",
"440 538 OFFCURVE",
"479 479 OFFCURVE",
"479 300 CURVE SMOOTH",
"479 121 OFFCURVE",
"440 62 OFFCURVE",
"317 62 CURVE SMOOTH"
);
},
{
closed = 1;
nodes = (
"368 -12 OFFCURVE",
"428 5 OFFCURVE",
"474 38 CURVE",
"492 109 LINE",
"475 117 LINE",
"425 82 OFFCURVE",
"360 62 OFFCURVE",
"279 62 CURVE SMOOTH",
"146 62 OFFCURVE",
"215 337 OFFCURVE",
"103 264 CURVE SMOOTH",
"80 249 LINE",
"482 249 LINE",
"509 350 LINE SMOOTH",
"558 534 OFFCURVE",
"419 616 OFFCURVE",
"265 616 CURVE SMOOTH",
"93 616 OFFCURVE",
"17 499 OFFCURVE",
"17 301 CURVE SMOOTH",
"17 101 OFFCURVE",
"81 -12 OFFCURVE",
"265 -12 CURVE SMOOTH"
);
},
{
closed = 1;
nodes = (
"233 227 OFFCURVE",
"146 538 OFFCURVE",
"269 538 CURVE SMOOTH",
"381 538 OFFCURVE",
"271 288 OFFCURVE",
"424 323 CURVE SMOOTH",
"472 334 LINE",
"79 334 LINE",
"102 318 LINE SMOOTH"
);
}
);
};
layerId = "3B8C7C8F-80C4-4490-BC4D-FB44BC992E9B";
paths = (
{
closed = 1;
nodes = (
"380 -16 OFFCURVE",
"421 -2 OFFCURVE",
"474 38 CURVE",
"492 109 LINE",
"475 117 LINE",
"422 74 OFFCURVE",
"388 62 OFFCURVE",
"322 62 CURVE SMOOTH",
"204 62 OFFCURVE",
"154 132 OFFCURVE",
"154 295 CURVE SMOOTH",
"154 459 OFFCURVE",
"204 534 OFFCURVE",
"321 534 CURVE SMOOTH",
"380 534 OFFCURVE",
"419 520 OFFCURVE",
"453 487 CURVE",
"468 494 LINE",
"482 565 LINE",
"435 599 OFFCURVE",
"392 612 OFFCURVE",
"311 612 CURVE SMOOTH",
"152 612 OFFCURVE",
"70 498 OFFCURVE",
"70 295 CURVE SMOOTH",
"70 89 OFFCURVE",
"149 -16 OFFCURVE",
"306 -16 CURVE SMOOTH"
);
}
);
width = 552;
},
{
anchors = (
{
name = bottom;
position = "{273, 0}";
},
{
name = top;
position = "{273, 600}";
}
);
associatedMasterId = "9C4F76E1-3798-46C8-A886-41EF97D6106F";
background = {
paths = (
{
closed = 1;
nodes = (
"481 -16 OFFCURVE",
"555 97 OFFCURVE",
"555 301 CURVE SMOOTH",
"555 505 OFFCURVE",
"481 616 OFFCURVE",
"297 616 CURVE SMOOTH",
"113 616 OFFCURVE",
"39 505 OFFCURVE",
"39 301 CURVE SMOOTH",
"39 97 OFFCURVE",
"113 -16 OFFCURVE",
"297 -16 CURVE SMOOTH"
);
},
{
closed = 1;
nodes = (
"213 124 OFFCURVE",
"183 167 OFFCURVE",
"183 301 CURVE SMOOTH",
"183 361 OFFCURVE",
"189 414 OFFCURVE",
"207 456 CURVE",
"228 469 OFFCURVE",
"270 478 OFFCURVE",
"307 478 CURVE SMOOTH",
"381 478 OFFCURVE",
"411 435 OFFCURVE",
"411 301 CURVE SMOOTH",
"411 241 OFFCURVE",
"405 188 OFFCURVE",
"387 146 CURVE",
"366 133 OFFCURVE",
"324 124 OFFCURVE",
"287 124 CURVE SMOOTH"
);
},
{
closed = 1;
nodes = (
"433 594 OFFCURVE",
"378 613 OFFCURVE",
"297 613 CURVE SMOOTH",
"195 613 OFFCURVE",
"94 535 OFFCURVE",
"94 424 CURVE SMOOTH",
"94 341 OFFCURVE",
"142 286 OFFCURVE",
"238 252 CURVE SMOOTH",
"331 219 OFFCURVE",
"361 200 OFFCURVE",
"361 172 CURVE SMOOTH",
"361 145 OFFCURVE",
"334 131 OFFCURVE",
"278 131 CURVE SMOOTH",
"217 131 OFFCURVE",
"148 159 OFFCURVE",
"96 202 CURVE",
"84 198 LINE",
"103 72 LINE",
"152 21 OFFCURVE",
"197 -10 OFFCURVE",
"297 -10 CURVE SMOOTH",
"414 -10 OFFCURVE",
"505 71 OFFCURVE",
"505 183 CURVE SMOOTH",
"505 271 OFFCURVE",
"453 322 OFFCURVE",
"356 354 CURVE SMOOTH",
"263 385 OFFCURVE",
"238 403 OFFCURVE",
"238 433 CURVE SMOOTH",
"238 462 OFFCURVE",
"263 475 OFFCURVE",
"310 475 CURVE SMOOTH",
"362 475 OFFCURVE",
"424 455 OFFCURVE",
"446 419 CURVE",
"460 416 LINE",
"483 549 LINE"
);
}
);
};
layerId = "C7D2F9FB-F31D-46D9-B12B-E7F56AA301F4";
name = "22 Nov 21, 10:35";
paths = (
{
closed = 1;
nodes = (
"360 -16 OFFCURVE",
"390 -4 OFFCURVE",
"441 36 CURVE",
"472 159 LINE",
"455 167 LINE",
"423 136 OFFCURVE",
"387 124 OFFCURVE",
"317 124 CURVE SMOOTH",
"208 124 OFFCURVE",
"183 163 OFFCURVE",
"183 295 CURVE SMOOTH",
"183 422 OFFCURVE",
"215 474 OFFCURVE",
"302 474 CURVE SMOOTH",
"369 474 OFFCURVE",
"398 461 OFFCURVE",
"427 432 CURVE",
"443 439 LINE",
"465 564 LINE",
"420 598 OFFCURVE",
"381 612 OFFCURVE",
"287 612 CURVE SMOOTH",
"119 612 OFFCURVE",
"39 492 OFFCURVE",
"39 295 CURVE SMOOTH",
"39 95 OFFCURVE",
"113 -16 OFFCURVE",
"287 -16 CURVE SMOOTH"
);
}
);
width = 489;
},
{
anchors = (
{
name = bottom;
position = "{274, 0}";
},
{
name = top;
position = "{274, 600}";
}
);
associatedMasterId = "9C4F76E1-3798-46C8-A886-41EF97D6106F";
background = {
paths = (
{
closed = 1;
nodes = (
"361 -16 OFFCURVE",
"391 -4 OFFCURVE",
"442 36 CURVE",
"473 159 LINE",
"456 167 LINE",
"424 136 OFFCURVE",
"388 124 OFFCURVE",
"318 124 CURVE SMOOTH",
"209 124 OFFCURVE",
"184 163 OFFCURVE",
"184 295 CURVE SMOOTH",
"184 422 OFFCURVE",
"216 474 OFFCURVE",
"303 474 CURVE SMOOTH",
"370 474 OFFCURVE",
"399 461 OFFCURVE",
"428 432 CURVE",
"444 439 LINE",
"466 564 LINE",
"421 598 OFFCURVE",
"382 612 OFFCURVE",
"288 612 CURVE SMOOTH",
"120 612 OFFCURVE",
"40 492 OFFCURVE",
"40 295 CURVE SMOOTH",
"40 95 OFFCURVE",
"114 -16 OFFCURVE",
"288 -16 CURVE SMOOTH"
);
}
);
};
layerId = "C4CD1858-26C1-455A-AE24-34722582C122";
name = "5 Feb 24 at 16:36";
paths = (
{
closed = 1;
nodes = (
"466 176 LINE",
"416 140 OFFCURVE",
"359 126 OFFCURVE",
"314 126 CURVE SMOOTH",
"223 126 OFFCURVE",
"186 176 OFFCURVE",
"186 302 CURVE SMOOTH",
"186 433 OFFCURVE",
"220 482 OFFCURVE",
"312 482 CURVE SMOOTH",
"357 482 OFFCURVE",
"393 470 OFFCURVE",
"441 436 CURVE",
"444 437 LINE",
"469 576 LINE",
"418 603 OFFCURVE",
"357 612 OFFCURVE",
"298 612 CURVE SMOOTH",
"114 612 OFFCURVE",
"39 501 OFFCURVE",
"39 303 CURVE SMOOTH",
"39 105 OFFCURVE",
"114 -8 OFFCURVE",
"298 -8 CURVE SMOOTH",
"348 -8 OFFCURVE",
"402 3 OFFCURVE",
"451 30 CURVE",
"469 174 LINE"
);
}
);
width = 497;
}
);
leftKerningGroup = o;
leftMetricsKey = o;
rightKerningGroup = c;
unicode = 0063;
},
{
glyphname = d;
lastChange = "2024-02-05 04:29:32 +0000";
layers = (
{
anchors = (
{
name = bottom;
position = "{294, 0}";
},
{
name = center;
position = "{400, 702}";
},
{
name = top;
position = "{294, 600}";
},
{
name = topright;
position = "{652, 600}";
}
);
components = (
{
name = b;
transform = "{-1, 0, 0, 1, 587, 0}";
}
);
layerId = "9C4F76E1-3798-46C8-A886-41EF97D6106F";
width = 587;
},
{
anchors = (
{
name = bottom;
position = "{337, 0}";
},
{
name = center;
position = "{434, 685}";
},
{
name = top;
position = "{337, 600}";
},
{
name = topright;
position = "{642, 600}";
}
);
layerId = "3B8C7C8F-80C4-4490-BC4D-FB44BC992E9B";
paths = (
{
closed = 1;
nodes = (
"525 0 LINE",
"520 149 LINE",
"520 655 LINE",
"525 800 LINE",
"435 800 LINE",
"440 655 LINE",
"440 115 LINE",
"438 93 LINE",
"444 0 LINE"
);
},
{
closed = 1;
nodes = (
"361 -8 OFFCURVE",
"416 23 OFFCURVE",
"443 74 CURVE",
"440 119 LINE",
"412 84 OFFCURVE",
"371 68 OFFCURVE",
"306 68 CURVE SMOOTH",
"202 68 OFFCURVE",
"154 136 OFFCURVE",
"154 301 CURVE SMOOTH",
"154 479 OFFCURVE",
"196 535 OFFCURVE",
"315 535 CURVE SMOOTH",
"383 535 OFFCURVE",
"431 522 OFFCURVE",
"460 500 CURVE",
"471 542 LINE",
"433 587 OFFCURVE",
"374 612 OFFCURVE",
"298 612 CURVE SMOOTH",
"144 612 OFFCURVE",
"70 519 OFFCURVE",
"70 301 CURVE SMOOTH",
"70 95 OFFCURVE",
"154 -8 OFFCURVE",
"300 -8 CURVE SMOOTH"
);
}
);
width = 615;
},
{
anchors = (
{
name = bottom;
position = "{276, 0}";
},
{
name = center;
position = "{276, 300}";
},
{
name = top;
position = "{276, 600}";
},
{
name = topright;
position = "{535, 600}";
}
);
associatedMasterId = "3B8C7C8F-80C4-4490-BC4D-FB44BC992E9B";
layerId = "68F2B405-8765-43C9-885D-5672592E268C";
name = "Sep 19 17, 15:01";
paths = (
{
closed = 1;
nodes = (
"335 -8 OFFCURVE",
"389 24 OFFCURVE",
"419 86 CURVE",
"419 135 LINE",
"394 94 OFFCURVE",
"338 68 OFFCURVE",
"275 68 CURVE SMOOTH",
"170 68 OFFCURVE",
"133 132 OFFCURVE",
"133 301 CURVE SMOOTH",
"133 483 OFFCURVE",
"168 535 OFFCURVE",
"284 535 CURVE SMOOTH",
"342 535 OFFCURVE",
"390 522 OFFCURVE",
"419 500 CURVE",
"430 542 LINE",
"392 587 OFFCURVE",
"333 612 OFFCURVE",
"257 612 CURVE SMOOTH",
"125 612 OFFCURVE",
"49 517 OFFCURVE",
"49 301 CURVE SMOOTH",
"49 95 OFFCURVE",
"125 -8 OFFCURVE",
"259 -8 CURVE SMOOTH"
);
},
{
closed = 1;
nodes = (
"486 0 LINE",
"481 149 LINE",
"481 655 LINE",
"486 800 LINE",
"396 800 LINE",
"401 655 LINE",
"401 115 LINE",
"400 98 LINE",
"406 0 LINE"
);
}
);
width = 555;
},
{
anchors = (
{
name = bottom;
position = "{297, 0}";
},
{
name = center;
position = "{403, 702}";
},
{
name = top;
position = "{297, 600}";
},
{
name = topright;
position = "{655, 600}";
}
);
associatedMasterId = "9C4F76E1-3798-46C8-A886-41EF97D6106F";
background = {
paths = (
{
closed = 1;
nodes = (
"60 600 LINE",
"70 450 LINE",
"70 166 LINE SMOOTH",
"70 52 OFFCURVE",
"127 -12 OFFCURVE",
"221 -12 CURVE SMOOTH",
"291 -12 OFFCURVE",
"346 14 OFFCURVE",
"385 73 CURVE",
"385 189 LINE",
"349 134 OFFCURVE",
"312 116 OFFCURVE",
"278 116 CURVE SMOOTH",
"239 116 OFFCURVE",
"210 146 OFFCURVE",
"210 193 CURVE SMOOTH",
"210 450 LINE",
"220 600 LINE"
);
}
);
};
layerId = "A1522A14-9BF8-4A33-8708-7ABF8E0210EB";
name = "19 Nov 21, 14:54";
paths = (
{
closed = 1;
nodes = (
"535 0 LINE",
"525 149 LINE",
"525 655 LINE",
"535 800 LINE",
"375 800 LINE",
"385 655 LINE",
"385 115 LINE",
"382 98 LINE",
"388 0 LINE"
);
},
{
closed = 1;
nodes = (
"300 -8 OFFCURVE",
"360 17 OFFCURVE",
"385 55 CURVE",
"385 156 LINE",
"362 140 OFFCURVE",
"315 127 OFFCURVE",
"277 127 CURVE SMOOTH",
"204 127 OFFCURVE",
"183 166 OFFCURVE",
"183 301 CURVE SMOOTH",
"183 442 OFFCURVE",
"206 474 OFFCURVE",
"287 474 CURVE SMOOTH",
"324 474 OFFCURVE",
"362 470 OFFCURVE",
"385 461 CURVE",
"409 557 LINE",
"381 591 OFFCURVE",
"319 612 OFFCURVE",
"247 612 CURVE SMOOTH",
"112 612 OFFCURVE",
"39 517 OFFCURVE",
"39 301 CURVE SMOOTH",
"39 101 OFFCURVE",
"117 -8 OFFCURVE",
"257 -8 CURVE SMOOTH"
);
}
);
width = 590;
}
);
leftKerningGroup = o;
leftMetricsKey = o;
rightKerningGroup = l;
rightMetricsKey = l;
unicode = 0064;
},
{
glyphname = eth;
lastChange = "2021-11-22 08:43:23 +0000";
layers = (
{
background = {
paths = (
{
closed = 1;
nodes = (
"89 511 LINE",
"484 665 LINE",
"484 726 LINE",
"89 577 LINE"
);
},
{
closed = 1;
nodes = (
"444 -16 OFFCURVE",
"532 83 OFFCURVE",
"532 288 CURVE SMOOTH",
"532 476 OFFCURVE",
"429 632 OFFCURVE",
"175 759 CURVE",
"132 714 LINE",
"132 700 LINE",
"367 574 OFFCURVE",
"448 450 OFFCURVE",
"448 288 CURVE SMOOTH",
"448 137 OFFCURVE",
"403 65 OFFCURVE",
"298 65 CURVE SMOOTH",
"206 65 OFFCURVE",
"146 134 OFFCURVE",
"146 243 CURVE SMOOTH",
"146 365 OFFCURVE",
"188 419 OFFCURVE",
"298 419 CURVE SMOOTH",
"362 419 OFFCURVE",
"443 381 OFFCURVE",
"449 358 CURVE",
"443 419 LINE SMOOTH",
"438 471 OFFCURVE",
"350 497 OFFCURVE",
"277 497 CURVE SMOOTH",
"128 497 OFFCURVE",
"62 409 OFFCURVE",
"62 243 CURVE SMOOTH",
"62 89 OFFCURVE",
"150 -16 OFFCURVE",
"298 -16 CURVE SMOOTH"
);
}
);
};
layerId = "9C4F76E1-3798-46C8-A886-41EF97D6106F";
paths = (
{
closed = 1;
nodes = (
"86 485 LINE",
"489 602 LINE",
"489 708 LINE",
"86 592 LINE"
);
},
{
closed = 1;
nodes = (
"442 -16 OFFCURVE",
"542 73 OFFCURVE",
"542 274 CURVE SMOOTH",
"542 489 OFFCURVE",
"428 639 OFFCURVE",
"176 766 CURVE",
"116 670 LINE",
"345 547 OFFCURVE",
"398 457 OFFCURVE",
"398 294 CURVE SMOOTH",
"398 162 OFFCURVE",
"367 122 OFFCURVE",
"295 122 CURVE SMOOTH",
"233 122 OFFCURVE",
"196 159 OFFCURVE",
"196 242 CURVE SMOOTH",
"196 323 OFFCURVE",
"226 368 OFFCURVE",
"298 368 CURVE SMOOTH",
"358 368 OFFCURVE",
"404 344 OFFCURVE",
"434 304 CURVE",
"429 409 LINE",
"399 449 OFFCURVE",
"315 487 OFFCURVE",
"256 487 CURVE SMOOTH",
"128 487 OFFCURVE",
"52 392 OFFCURVE",
"52 242 CURVE SMOOTH",
"52 83 OFFCURVE",
"140 -16 OFFCURVE",
"295 -16 CURVE SMOOTH"
);
}
);
width = 587;
},
{
layerId = "3B8C7C8F-80C4-4490-BC4D-FB44BC992E9B";
paths = (
{
closed = 1;
nodes = (
"105 511 LINE",
"500 665 LINE",
"500 726 LINE",
"105 577 LINE"
);
},
{
closed = 1;
nodes = (
"460 -16 OFFCURVE",
"548 83 OFFCURVE",
"548 288 CURVE SMOOTH",
"548 482 OFFCURVE",
"439 642 OFFCURVE",
"185 759 CURVE",
"152 724 LINE",
"152 710 LINE",
"383 596 OFFCURVE",
"464 456 OFFCURVE",
"464 288 CURVE SMOOTH",
"464 137 OFFCURVE",
"419 62 OFFCURVE",
"314 62 CURVE SMOOTH",
"222 62 OFFCURVE",
"162 134 OFFCURVE",
"162 243 CURVE SMOOTH",
"162 365 OFFCURVE",
"204 419 OFFCURVE",
"314 419 CURVE SMOOTH",
"378 419 OFFCURVE",
"459 381 OFFCURVE",
"465 358 CURVE",
"459 419 LINE SMOOTH",
"432 464 OFFCURVE",
"366 497 OFFCURVE",
"293 497 CURVE SMOOTH",
"144 497 OFFCURVE",
"78 409 OFFCURVE",
"78 243 CURVE SMOOTH",
"78 89 OFFCURVE",
"166 -16 OFFCURVE",
"314 -16 CURVE SMOOTH"
);
}
);
width = 618;
},
{
associatedMasterId = "9C4F76E1-3798-46C8-A886-41EF97D6106F";
layerId = "EAC01A54-2CF4-4CE2-98CF-EC198F92CA22";
name = "Oct 31 17, 13:14";
paths = (
{
closed = 1;
nodes = (
"216 124 OFFCURVE",
"179 162 OFFCURVE",
"179 233 CURVE SMOOTH",
"179 312 OFFCURVE",
"207 339 OFFCURVE",
"281 339 CURVE SMOOTH",
"325 339 OFFCURVE",
"363 324 OFFCURVE",
"384 302 CURVE",
"386 290 OFFCURVE",
"387 280 OFFCURVE",
"387 268 CURVE SMOOTH",
"387 174 OFFCURVE",
"354 124 OFFCURVE",
"281 124 CURVE SMOOTH"
);
},
{
closed = 1;
nodes = (
"84 510 LINE",
"462 623 LINE",
"462 741 LINE",
"84 628 LINE"
);
},
{
closed = 1;
nodes = (
"35 69 OFFCURVE",
"125 -16 OFFCURVE",
"281 -16 CURVE SMOOTH",
"449 -16 OFFCURVE",
"525 79 OFFCURVE",
"525 293 CURVE SMOOTH",
"525 463 OFFCURVE",
"442 621 OFFCURVE",
"251 759 CURVE",
"148 714 LINE",
"148 700 LINE",
"309 582 OFFCURVE",
"380 463 OFFCURVE",
"380 358 CURVE",
"412 399 LINE",
"363 454 OFFCURVE",
"323 477 OFFCURVE",
"240 477 CURVE SMOOTH",
"103 477 OFFCURVE",
"35 401 OFFCURVE",
"35 226 CURVE SMOOTH"
);
}
);
width = 560;
},
{
associatedMasterId = "3B8C7C8F-80C4-4490-BC4D-FB44BC992E9B";
background = {
paths = (
{
closed = 1;
nodes = (
"241 124 OFFCURVE",
"204 172 OFFCURVE",
"204 243 CURVE SMOOTH",
"204 322 OFFCURVE",
"232 359 OFFCURVE",
"306 359 CURVE SMOOTH",
"366 359 OFFCURVE",
"412 338 OFFCURVE",
"442 298 CURVE",
"397 363 LINE",
"409 312 OFFCURVE",
"412 295 OFFCURVE",
"412 268 CURVE SMOOTH",
"412 174 OFFCURVE",
"379 124 OFFCURVE",
"306 124 CURVE SMOOTH"
);
},
{
closed = 1;
nodes = (
"85 498 LINE",
"487 643 LINE",
"487 761 LINE",
"85 616 LINE"
);
},
{
closed = 1;
nodes = (
"60 79 OFFCURVE",
"150 -16 OFFCURVE",
"306 -16 CURVE SMOOTH",
"474 -16 OFFCURVE",
"550 79 OFFCURVE",
"550 293 CURVE SMOOTH",
"550 463 OFFCURVE",
"467 621 OFFCURVE",
"276 759 CURVE",
"173 714 LINE",
"173 700 LINE",
"334 582 OFFCURVE",
"405 463 OFFCURVE",
"405 358 CURVE",
"437 429 LINE",
"391 480 OFFCURVE",
"350 497 OFFCURVE",
"265 497 CURVE SMOOTH",
"128 497 OFFCURVE",
"60 411 OFFCURVE",
"60 236 CURVE SMOOTH"
);
}
);
};
layerId = "6CB8C324-0721-4501-8773-94008C9DE62F";
name = "Nov 3 17, 09:32";
paths = (
{
closed = 1;
nodes = (
"112 516 LINE",
"487 634 LINE",
"487 705 LINE",
"112 587 LINE"
);
},
{
closed = 1;
nodes = (
"457 -16 OFFCURVE",
"545 83 OFFCURVE",
"545 276 CURVE SMOOTH",
"545 479 OFFCURVE",
"473 613 OFFCURVE",
"271 759 CURVE",
"228 714 LINE",
"228 700 LINE",
"359 604 OFFCURVE",
"423 504 OFFCURVE",
"446 426 CURVE",
"456 433 LINE",
"420 477 OFFCURVE",
"359 497 OFFCURVE",
"290 497 CURVE SMOOTH",
"141 497 OFFCURVE",
"75 409 OFFCURVE",
"75 236 CURVE SMOOTH",
"75 89 OFFCURVE",
"163 -16 OFFCURVE",
"311 -16 CURVE SMOOTH"
);
},
{
closed = 1;
nodes = (
"219 65 OFFCURVE",
"159 134 OFFCURVE",
"159 243 CURVE SMOOTH",
"159 365 OFFCURVE",
"201 419 OFFCURVE",
"311 419 CURVE SMOOTH",
"375 419 OFFCURVE",
"456 381 OFFCURVE",
"462 358 CURVE",
"453 381 LINE",
"457 352 OFFCURVE",
"461 336 OFFCURVE",
"461 288 CURVE SMOOTH",
"461 137 OFFCURVE",
"416 65 OFFCURVE",
"311 65 CURVE SMOOTH"
);
}
);
width = 615;
},
{
associatedMasterId = "9C4F76E1-3798-46C8-A886-41EF97D6106F";
layerId = "6BC17D51-130A-4A1A-ADDF-423481E0EB31";
name = "Nov 3 17, 09:52";
paths = (
{
closed = 1;
nodes = (
"69 498 LINE",
"471 643 LINE",
"471 761 LINE",
"69 616 LINE"
);
},
{
closed = 1;
nodes = (
"458 -16 OFFCURVE",
"534 79 OFFCURVE",
"534 293 CURVE SMOOTH",
"534 463 OFFCURVE",
"451 621 OFFCURVE",
"260 759 CURVE",
"157 714 LINE",
"157 700 LINE",
"318 582 OFFCURVE",
"389 463 OFFCURVE",
"389 358 CURVE",
"421 429 LINE",
"375 480 OFFCURVE",
"334 497 OFFCURVE",
"249 497 CURVE SMOOTH",
"112 497 OFFCURVE",
"44 411 OFFCURVE",
"44 236 CURVE SMOOTH",
"44 79 OFFCURVE",
"134 -16 OFFCURVE",
"290 -16 CURVE SMOOTH"
);
},
{
closed = 1;
nodes = (
"225 124 OFFCURVE",
"188 172 OFFCURVE",
"188 243 CURVE SMOOTH",
"188 322 OFFCURVE",
"216 359 OFFCURVE",
"290 359 CURVE SMOOTH",
"350 359 OFFCURVE",
"396 338 OFFCURVE",
"426 298 CURVE",
"381 363 LINE",
"393 312 OFFCURVE",
"396 295 OFFCURVE",
"396 268 CURVE SMOOTH",
"396 174 OFFCURVE",
"363 124 OFFCURVE",
"290 124 CURVE SMOOTH"
);
}
);
width = 572;
},
{
associatedMasterId = "9C4F76E1-3798-46C8-A886-41EF97D6106F";
background = {
paths = (
{
closed = 1;
nodes = (
"89 511 LINE",
"484 665 LINE",
"484 726 LINE",
"89 577 LINE"
);
},
{
closed = 1;
nodes = (
"444 -16 OFFCURVE",
"532 83 OFFCURVE",
"532 288 CURVE SMOOTH",
"532 476 OFFCURVE",
"429 632 OFFCURVE",
"175 759 CURVE",
"132 714 LINE",
"132 700 LINE",
"367 574 OFFCURVE",
"448 450 OFFCURVE",
"448 288 CURVE SMOOTH",
"448 137 OFFCURVE",
"403 65 OFFCURVE",
"298 65 CURVE SMOOTH",
"206 65 OFFCURVE",
"146 134 OFFCURVE",
"146 243 CURVE SMOOTH",
"146 365 OFFCURVE",
"188 419 OFFCURVE",
"298 419 CURVE SMOOTH",
"362 419 OFFCURVE",
"443 381 OFFCURVE",
"449 358 CURVE",
"443 419 LINE SMOOTH",
"438 471 OFFCURVE",
"350 497 OFFCURVE",
"277 497 CURVE SMOOTH",
"128 497 OFFCURVE",
"62 409 OFFCURVE",
"62 243 CURVE SMOOTH",
"62 89 OFFCURVE",
"150 -16 OFFCURVE",
"298 -16 CURVE SMOOTH"
);
}
);
};
layerId = "E9DF79EB-C2C7-4248-8460-EC4F95F1B759";
name = "22 Nov 21, 16:31";
paths = (
{
closed = 1;
nodes = (
"86 489 LINE",
"489 643 LINE",
"489 741 LINE",
"86 587 LINE"
);
},
{
closed = 1;
nodes = (
"456 -16 OFFCURVE",
"542 90 OFFCURVE",
"542 284 CURVE SMOOTH",
"542 463 OFFCURVE",
"422 635 OFFCURVE",
"185 759 CURVE",
"116 684 LINE",
"116 670 LINE",
"337 536 OFFCURVE",
"398 427 OFFCURVE",
"398 284 CURVE SMOOTH",
"398 172 OFFCURVE",
"368 122 OFFCURVE",
"298 122 CURVE SMOOTH",
"236 122 OFFCURVE",
"196 169 OFFCURVE",
"196 242 CURVE SMOOTH",
"196 323 OFFCURVE",
"226 362 OFFCURVE",
"298 362 CURVE SMOOTH",
"358 362 OFFCURVE",
"404 338 OFFCURVE",
"434 298 CURVE",
"429 419 LINE",
"399 459 OFFCURVE",
"315 497 OFFCURVE",
"256 497 CURVE SMOOTH",
"125 497 OFFCURVE",
"52 413 OFFCURVE",
"52 242 CURVE SMOOTH",
"52 84 OFFCURVE",
"147 -16 OFFCURVE",
"298 -16 CURVE SMOOTH"
);
}
);
width = 587;
}
);
unicode = 00F0;
},
{
glyphname = e;
lastChange = "2024-02-05 09:59:44 +0000";
layers = (
{
anchors = (
{
name = bottom;
position = "{297, 0}";
},
{
name = ogonek;
position = "{509, 31}";
},
{
name = top;
position = "{297, 600}";
}
);
layerId = "9C4F76E1-3798-46C8-A886-41EF97D6106F";
paths = (
{
closed = 1;
nodes = (
"381 -8 OFFCURVE",
"445 5 OFFCURVE",
"509 33 CURVE",
"525 171 LINE",
"454 137 OFFCURVE",
"392 120 OFFCURVE",
"330 120 CURVE SMOOTH",
"224 120 OFFCURVE",
"184 169 OFFCURVE",
"182 312 CURVE",
"122 249 LINE",
"526 249 LINE",
"553 354 LINE",
"540 537 OFFCURVE",
"435 614 OFFCURVE",
"301 614 CURVE SMOOTH",
"138 614 OFFCURVE",
"39 497 OFFCURVE",
"39 293 CURVE SMOOTH",
"39 96 OFFCURVE",
"132 -8 OFFCURVE",
"317 -8 CURVE SMOOTH"
);
},
{
closed = 1;
nodes = (
"191 446 OFFCURVE",
"241 486 OFFCURVE",
"304 486 CURVE SMOOTH",
"379 486 OFFCURVE",
"417 430 OFFCURVE",
"418 354 CURVE",
"184 354 LINE"
);
}
);
width = 586;
},
{
associatedMasterId = "9C4F76E1-3798-46C8-A886-41EF97D6106F";
background = {
paths = (
{
closed = 1;
nodes = (
"492 -16 OFFCURVE",
"566 97 OFFCURVE",
"566 301 CURVE SMOOTH",
"566 505 OFFCURVE",
"492 616 OFFCURVE",
"308 616 CURVE SMOOTH",
"124 616 OFFCURVE",
"50 505 OFFCURVE",
"50 301 CURVE SMOOTH",
"50 97 OFFCURVE",
"124 -16 OFFCURVE",
"308 -16 CURVE SMOOTH"
);
},
{
closed = 1;
nodes = (
"224 124 OFFCURVE",
"194 167 OFFCURVE",
"194 301 CURVE SMOOTH",
"194 361 OFFCURVE",
"200 414 OFFCURVE",
"218 456 CURVE",
"239 469 OFFCURVE",
"281 478 OFFCURVE",
"318 478 CURVE SMOOTH",
"392 478 OFFCURVE",
"422 435 OFFCURVE",
"422 301 CURVE SMOOTH",
"422 241 OFFCURVE",
"416 188 OFFCURVE",
"398 146 CURVE",
"377 133 OFFCURVE",
"335 124 OFFCURVE",
"298 124 CURVE SMOOTH"
);
},
{
closed = 1;
nodes = (
"492 -16 OFFCURVE",
"566 97 OFFCURVE",
"566 301 CURVE SMOOTH",
"566 505 OFFCURVE",
"492 616 OFFCURVE",
"308 616 CURVE SMOOTH",
"124 616 OFFCURVE",
"50 505 OFFCURVE",
"50 301 CURVE SMOOTH",
"50 97 OFFCURVE",
"124 -16 OFFCURVE",
"308 -16 CURVE SMOOTH"
);
},
{
closed = 1;
nodes = (
"224 124 OFFCURVE",
"194 167 OFFCURVE",
"194 301 CURVE SMOOTH",
"194 361 OFFCURVE",
"200 414 OFFCURVE",
"218 456 CURVE",
"239 469 OFFCURVE",
"281 478 OFFCURVE",
"318 478 CURVE SMOOTH",
"392 478 OFFCURVE",
"422 435 OFFCURVE",
"422 301 CURVE SMOOTH",
"422 241 OFFCURVE",
"416 188 OFFCURVE",
"398 146 CURVE",
"377 133 OFFCURVE",
"335 124 OFFCURVE",
"298 124 CURVE SMOOTH"
);
}
);
};
layerId = "DD4F29FB-C24F-46B9-8C5F-0674FA45E1C7";
name = "Aug 30 17, 14:42";
paths = (
{
closed = 1;
nodes = (
"245 128 OFFCURVE",
"207 149 OFFCURVE",
"197 239 CURVE",
"534 239 LINE",
"564 354 LINE",
"551 533 OFFCURVE",
"477 616 OFFCURVE",
"308 616 CURVE SMOOTH",
"124 616 OFFCURVE",
"50 505 OFFCURVE",
"50 301 CURVE SMOOTH",
"50 101 OFFCURVE",
"124 -12 OFFCURVE",
"308 -12 CURVE SMOOTH",
"403 -12 OFFCURVE",
"463 1 OFFCURVE",
"515 40 CURVE",
"548 169 LINE",
"539 173 LINE",
"511 146 OFFCURVE",
"427 128 OFFCURVE",
"338 128 CURVE SMOOTH"
);
},
{
closed = 1;
nodes = (
"399 478 OFFCURVE",
"432 423 OFFCURVE",
"419 310 CURVE",
"467 344 LINE",
"151 344 LINE",
"194 321 LINE",
"195 371 OFFCURVE",
"203 419 OFFCURVE",
"218 456 CURVE",
"239 469 OFFCURVE",
"281 478 OFFCURVE",
"318 478 CURVE SMOOTH"
);
}
);
width = 602;
},
{
anchors = (
{
name = bottom;
position = "{308, 0}";
},
{
name = ogonek;
position = "{515, 0}";
},
{
name = top;
position = "{308, 600}";
}
);
associatedMasterId = "9C4F76E1-3798-46C8-A886-41EF97D6106F";
background = {
paths = (
{
closed = 1;
nodes = (
"492 -16 OFFCURVE",
"566 97 OFFCURVE",
"566 301 CURVE SMOOTH",
"566 505 OFFCURVE",
"492 616 OFFCURVE",
"308 616 CURVE SMOOTH",
"124 616 OFFCURVE",
"50 505 OFFCURVE",
"50 301 CURVE SMOOTH",
"50 97 OFFCURVE",
"124 -16 OFFCURVE",
"308 -16 CURVE SMOOTH"
);
},
{
closed = 1;
nodes = (
"224 124 OFFCURVE",
"194 167 OFFCURVE",
"194 301 CURVE SMOOTH",
"194 361 OFFCURVE",
"200 414 OFFCURVE",
"218 456 CURVE",
"239 469 OFFCURVE",
"281 478 OFFCURVE",
"318 478 CURVE SMOOTH",
"392 478 OFFCURVE",
"422 435 OFFCURVE",
"422 301 CURVE SMOOTH",
"422 241 OFFCURVE",
"416 188 OFFCURVE",
"398 146 CURVE",
"377 133 OFFCURVE",
"335 124 OFFCURVE",
"298 124 CURVE SMOOTH"
);
},
{
closed = 1;
nodes = (
"492 -16 OFFCURVE",
"566 97 OFFCURVE",
"566 301 CURVE SMOOTH",
"566 505 OFFCURVE",
"492 616 OFFCURVE",
"308 616 CURVE SMOOTH",
"124 616 OFFCURVE",
"50 505 OFFCURVE",
"50 301 CURVE SMOOTH",
"50 97 OFFCURVE",
"124 -16 OFFCURVE",
"308 -16 CURVE SMOOTH"
);
},
{
closed = 1;
nodes = (
"224 124 OFFCURVE",
"194 167 OFFCURVE",
"194 301 CURVE SMOOTH",
"194 361 OFFCURVE",
"200 414 OFFCURVE",
"218 456 CURVE",
"239 469 OFFCURVE",
"281 478 OFFCURVE",
"318 478 CURVE SMOOTH",
"392 478 OFFCURVE",
"422 435 OFFCURVE",
"422 301 CURVE SMOOTH",
"422 241 OFFCURVE",
"416 188 OFFCURVE",
"398 146 CURVE",
"377 133 OFFCURVE",
"335 124 OFFCURVE",
"298 124 CURVE SMOOTH"
);
}
);
};
layerId = "345C85FB-7AB3-487B-9DE8-9C39D840A465";
name = "Sep 12 17, 10:02";
paths = (
{
closed = 1;
nodes = (
"403 -12 OFFCURVE",
"463 1 OFFCURVE",
"515 40 CURVE",
"548 169 LINE",
"539 173 LINE",
"511 146 OFFCURVE",
"427 128 OFFCURVE",
"338 128 CURVE SMOOTH",
"241.304 128 OFFCURVE",
"204.226 150.867 OFFCURVE",
"195.767 249 CURVE",
"537 249 LINE",
"564 354 LINE",
"551 533 OFFCURVE",
"477 616 OFFCURVE",
"308 616 CURVE SMOOTH",
"136 616 OFFCURVE",
"50 499 OFFCURVE",
"50 301 CURVE SMOOTH",
"50 101 OFFCURVE",
"124 -12 OFFCURVE",
"308 -12 CURVE SMOOTH"
);
},
{
closed = 1;
nodes = (
"202.364 446.394 OFFCURVE",
"233.68 478 OFFCURVE",
"312 478 CURVE SMOOTH",
"386.837 478 OFFCURVE",
"422 437 OFFCURVE",
"422 354 CURVE",
"195.436 354 LINE"
);
}
);
width = 602;
},
{
anchors = (
{
name = bottom;
position = "{313, 0}";
},
{
name = ogonek;
position = "{520, 0}";
},
{
name = top;
position = "{313, 600}";
}
);
background = {
paths = (
{
closed = 1;
nodes = (
"481 -16 OFFCURVE",
"558 87 OFFCURVE",
"558 301 CURVE SMOOTH",
"558 515 OFFCURVE",
"481 616 OFFCURVE",
"312 616 CURVE SMOOTH",
"143 616 OFFCURVE",
"66 515 OFFCURVE",
"66 301 CURVE SMOOTH",
"66 87 OFFCURVE",
"143 -16 OFFCURVE",
"312 -16 CURVE SMOOTH"
);
},
{
closed = 1;
nodes = (
"189 62 OFFCURVE",
"150 121 OFFCURVE",
"150 300 CURVE SMOOTH",
"150 479 OFFCURVE",
"189 538 OFFCURVE",
"312 538 CURVE SMOOTH",
"435 538 OFFCURVE",
"474 479 OFFCURVE",
"474 300 CURVE SMOOTH",
"474 121 OFFCURVE",
"435 62 OFFCURVE",
"312 62 CURVE SMOOTH"
);
},
{
closed = 1;
nodes = (
"414 -16 OFFCURVE",
"455 -2 OFFCURVE",
"507 37 CURVE",
"529 126 LINE",
"512 134 LINE",
"465 78 OFFCURVE",
"420 62 OFFCURVE",
"355 62 CURVE SMOOTH",
"237 62 OFFCURVE",
"187 132 OFFCURVE",
"187 295 CURVE SMOOTH",
"187 459 OFFCURVE",
"237 534 OFFCURVE",
"354 534 CURVE SMOOTH",
"413 534 OFFCURVE",
"452 520 OFFCURVE",
"486 487 CURVE",
"501 494 LINE",
"515 565 LINE",
"468 599 OFFCURVE",
"425 612 OFFCURVE",
"344 612 CURVE SMOOTH",
"185 612 OFFCURVE",
"103 498 OFFCURVE",
"103 295 CURVE SMOOTH",
"103 89 OFFCURVE",
"182 -16 OFFCURVE",
"342 -16 CURVE SMOOTH"
);
}
);
};
layerId = "3B8C7C8F-80C4-4490-BC4D-FB44BC992E9B";
paths = (
{
closed = 1;
nodes = (
"416 -12 OFFCURVE",
"471 5 OFFCURVE",
"517 38 CURVE",
"535 109 LINE",
"518 117 LINE",
"468 82 OFFCURVE",
"408 62 OFFCURVE",
"327 62 CURVE SMOOTH",
"196 62 OFFCURVE",
"158 128 OFFCURVE",
"156 258 CURVE",
"527 258 LINE",
"552 350 LINE",
"539 540 OFFCURVE",
"467 616 OFFCURVE",
"313 616 CURVE SMOOTH",
"141 616 OFFCURVE",
"70 499 OFFCURVE",
"70 301 CURVE SMOOTH",
"70 101 OFFCURVE",
"129 -12 OFFCURVE",
"313 -12 CURVE SMOOTH"
);
},
{
closed = 1;
nodes = (
"157 481 OFFCURVE",
"197 538 OFFCURVE",
"317 538 CURVE SMOOTH",
"427 538 OFFCURVE",
"466 482 OFFCURVE",
"467 331 CURVE",
"155 331 LINE"
);
}
);
width = 612;
},
{
anchors = (
{
name = bottom;
position = "{293, 0}";
},
{
name = ogonek;
position = "{500, 0}";
},
{
name = top;
position = "{293, 600}";
}
);
associatedMasterId = "3B8C7C8F-80C4-4490-BC4D-FB44BC992E9B";
background = {
paths = (
{
closed = 1;
nodes = (
"461 -16 OFFCURVE",
"538 87 OFFCURVE",
"538 301 CURVE SMOOTH",
"538 515 OFFCURVE",
"461 616 OFFCURVE",
"292 616 CURVE SMOOTH",
"123 616 OFFCURVE",
"46 515 OFFCURVE",
"46 301 CURVE SMOOTH",
"46 87 OFFCURVE",
"123 -16 OFFCURVE",
"292 -16 CURVE SMOOTH"
);
},
{
closed = 1;
nodes = (
"169 62 OFFCURVE",
"130 121 OFFCURVE",
"130 300 CURVE SMOOTH",
"130 479 OFFCURVE",
"169 538 OFFCURVE",
"292 538 CURVE SMOOTH",
"415 538 OFFCURVE",
"454 479 OFFCURVE",
"454 300 CURVE SMOOTH",
"454 121 OFFCURVE",
"415 62 OFFCURVE",
"292 62 CURVE SMOOTH"
);
},
{
closed = 1;
nodes = (
"394 -16 OFFCURVE",
"435 -2 OFFCURVE",
"487 37 CURVE",
"509 126 LINE",
"492 134 LINE",
"445 78 OFFCURVE",
"400 62 OFFCURVE",
"335 62 CURVE SMOOTH",
"217 62 OFFCURVE",
"167 132 OFFCURVE",
"167 295 CURVE SMOOTH",
"167 459 OFFCURVE",
"217 534 OFFCURVE",
"334 534 CURVE SMOOTH",
"393 534 OFFCURVE",
"432 520 OFFCURVE",
"466 487 CURVE",
"481 494 LINE",
"495 565 LINE",
"448 599 OFFCURVE",
"405 612 OFFCURVE",
"324 612 CURVE SMOOTH",
"165 612 OFFCURVE",
"83 498 OFFCURVE",
"83 295 CURVE SMOOTH",
"83 89 OFFCURVE",
"162 -16 OFFCURVE",
"322 -16 CURVE SMOOTH"
);
}
);
};
layerId = "CA31B872-9C8D-4B32-91B4-021216510FBF";
name = "Sep 19 17, 18:16";
paths = (
{
closed = 1;
nodes = (
"396 -12 OFFCURVE",
"451 5 OFFCURVE",
"497 38 CURVE",
"515 109 LINE",
"498 117 LINE",
"448 82 OFFCURVE",
"388 62 OFFCURVE",
"307 62 CURVE SMOOTH",
"174 62 OFFCURVE",
"137 130 OFFCURVE",
"136 264 CURVE",
"113 258 LINE",
"550 258 LINE",
"493 206 LINE",
"532 350 LINE",
"519 540 OFFCURVE",
"447 616 OFFCURVE",
"293 616 CURVE SMOOTH",
"121 616 OFFCURVE",
"50 499 OFFCURVE",
"50 301 CURVE SMOOTH",
"50 101 OFFCURVE",
"109 -12 OFFCURVE",
"293 -12 CURVE SMOOTH"
);
},
{
closed = 1;
nodes = (
"135 478 OFFCURVE",
"174 538 OFFCURVE",
"297 538 CURVE SMOOTH",
"409 538 OFFCURVE",
"447 480 OFFCURVE",
"447 323 CURVE",
"495 331 LINE",
"112 331 LINE",
"135 318 LINE"
);
}
);
width = 570;
},
{
anchors = (
{
name = bottom;
position = "{297, 0}";
},
{
name = ogonek;
position = "{504, 0}";
},
{
name = top;
position = "{297, 600}";
}
);
associatedMasterId = "9C4F76E1-3798-46C8-A886-41EF97D6106F";
background = {
paths = (
{
closed = 1;
nodes = (
"481 -16 OFFCURVE",
"555 97 OFFCURVE",
"555 301 CURVE SMOOTH",
"555 505 OFFCURVE",
"481 616 OFFCURVE",
"297 616 CURVE SMOOTH",
"113 616 OFFCURVE",
"39 505 OFFCURVE",
"39 301 CURVE SMOOTH",
"39 97 OFFCURVE",
"113 -16 OFFCURVE",
"297 -16 CURVE SMOOTH"
);
},
{
closed = 1;
nodes = (
"213 124 OFFCURVE",
"183 167 OFFCURVE",
"183 301 CURVE SMOOTH",
"183 361 OFFCURVE",
"189 414 OFFCURVE",
"207 456 CURVE",
"228 469 OFFCURVE",
"270 478 OFFCURVE",
"307 478 CURVE SMOOTH",
"381 478 OFFCURVE",
"411 435 OFFCURVE",
"411 301 CURVE SMOOTH",
"411 241 OFFCURVE",
"405 188 OFFCURVE",
"387 146 CURVE",
"366 133 OFFCURVE",
"324 124 OFFCURVE",
"287 124 CURVE SMOOTH"
);
},
{
closed = 1;
nodes = (
"481 -16 OFFCURVE",
"555 97 OFFCURVE",
"555 301 CURVE SMOOTH",
"555 505 OFFCURVE",
"481 616 OFFCURVE",
"297 616 CURVE SMOOTH",
"113 616 OFFCURVE",
"39 505 OFFCURVE",
"39 301 CURVE SMOOTH",
"39 97 OFFCURVE",
"113 -16 OFFCURVE",
"297 -16 CURVE SMOOTH"
);
},
{
closed = 1;
nodes = (
"213 124 OFFCURVE",
"183 167 OFFCURVE",
"183 301 CURVE SMOOTH",
"183 361 OFFCURVE",
"189 414 OFFCURVE",
"207 456 CURVE",
"228 469 OFFCURVE",
"270 478 OFFCURVE",
"307 478 CURVE SMOOTH",
"381 478 OFFCURVE",
"411 435 OFFCURVE",
"411 301 CURVE SMOOTH",
"411 241 OFFCURVE",
"405 188 OFFCURVE",
"387 146 CURVE",
"366 133 OFFCURVE",
"324 124 OFFCURVE",
"287 124 CURVE SMOOTH"
);
},
{
closed = 1;
nodes = (
"426 -12 OFFCURVE",
"446 -3 OFFCURVE",
"504 40 CURVE",
"535 163 LINE",
"518 171 LINE",
"486 140 OFFCURVE",
"450 128 OFFCURVE",
"380 128 CURVE SMOOTH",
"271 128 OFFCURVE",
"246 167 OFFCURVE",
"246 299 CURVE SMOOTH",
"246 426 OFFCURVE",
"278 478 OFFCURVE",
"365 478 CURVE SMOOTH",
"432 478 OFFCURVE",
"461 465 OFFCURVE",
"490 436 CURVE",
"506 443 LINE",
"528 568 LINE",
"483 602 OFFCURVE",
"444 616 OFFCURVE",
"350 616 CURVE SMOOTH",
"182 616 OFFCURVE",
"102 496 OFFCURVE",
"102 299 CURVE SMOOTH",
"102 99 OFFCURVE",
"176 -12 OFFCURVE",
"350 -12 CURVE SMOOTH"
);
}
);
};
layerId = "F5134956-DA75-4740-97C5-7343489D8811";
name = "19 Nov 21, 12:42";
paths = (
{
closed = 1;
nodes = (
"392 -12 OFFCURVE",
"452 1 OFFCURVE",
"504 40 CURVE",
"535 162 LINE",
"518 171 LINE",
"493 147 OFFCURVE",
"418 128 OFFCURVE",
"327 128 CURVE SMOOTH",
"230 128 OFFCURVE",
"193 151 OFFCURVE",
"185 249 CURVE",
"526 249 LINE",
"553 354 LINE",
"540 533 OFFCURVE",
"466 616 OFFCURVE",
"297 616 CURVE SMOOTH",
"125 616 OFFCURVE",
"39 499 OFFCURVE",
"39 301 CURVE SMOOTH",
"39 101 OFFCURVE",
"113 -12 OFFCURVE",
"297 -12 CURVE SMOOTH"
);
},
{
closed = 1;
nodes = (
"191 446 OFFCURVE",
"223 478 OFFCURVE",
"301 478 CURVE SMOOTH",
"376 478 OFFCURVE",
"411 437 OFFCURVE",
"411 354 CURVE",
"184 354 LINE"
);
}
);
width = 582;
},
{
anchors = (
{
name = bottom;
position = "{297, 0}";
},
{
name = ogonek;
position = "{509, 31}";
},
{
name = top;
position = "{297, 600}";
}
);
associatedMasterId = "9C4F76E1-3798-46C8-A886-41EF97D6106F";
layerId = "02737F38-1B77-4DAA-8DB8-15911C600244";
name = "5 Feb 24 at 16:43";
paths = (
{
closed = 1;
nodes = (
"381 -10 OFFCURVE",
"445 5 OFFCURVE",
"509 33 CURVE",
"525 171 LINE",
"522 173 LINE",
"454 137 OFFCURVE",
"400 120 OFFCURVE",
"344 120 CURVE SMOOTH",
"229 120 OFFCURVE",
"178 168 OFFCURVE",
"182 312 CURVE",
"122 249 LINE",
"526 249 LINE",
"553 354 LINE",
"540 537 OFFCURVE",
"462 614 OFFCURVE",
"297 614 CURVE SMOOTH",
"125 614 OFFCURVE",
"39 501 OFFCURVE",
"39 303 CURVE SMOOTH",
"39 92 OFFCURVE",
"132 -10 OFFCURVE",
"317 -10 CURVE SMOOTH"
);
},
{
closed = 1;
nodes = (
"191 446 OFFCURVE",
"226 486 OFFCURVE",
"305 486 CURVE SMOOTH",
"395 486 OFFCURVE",
"417 425 OFFCURVE",
"418 354 CURVE",
"184 354 LINE"
);
}
);
width = 586;
}
);
leftKerningGroup = o;
leftMetricsKey = "=o";
rightKerningGroup = e;
unicode = 0065;
},
{
glyphname = eogonek;
lastChange = "2017-11-08 09:47:20 +0000";
layers = (
{
components = (
{
name = e;
}
);
layerId = "3B8C7C8F-80C4-4490-BC4D-FB44BC992E9B";
paths = (
{
closed = 1;
nodes = (
"440 -216 OFFCURVE",
"464 -206 OFFCURVE",
"491 -182 CURVE",
"502 -125 LINE",
"495 -121 LINE",
"475 -139 OFFCURVE",
"459 -147 OFFCURVE",
"435 -147 CURVE SMOOTH",
"404 -147 OFFCURVE",
"381 -128 OFFCURVE",
"381 -99 CURVE SMOOTH",
"381 -60 OFFCURVE",
"410 -22 OFFCURVE",
"497 38 CURVE",
"450 24 LINE",
"400 10 LINE SMOOTH",
"344 -6 OFFCURVE",
"305 -61 OFFCURVE",
"305 -121 CURVE SMOOTH",
"305 -178 OFFCURVE",
"348 -216 OFFCURVE",
"404 -216 CURVE SMOOTH"
);
}
);
width = 570;
},
{
components = (
{
name = e;
}
);
layerId = "9C4F76E1-3798-46C8-A886-41EF97D6106F";
paths = (
{
closed = 1;
nodes = (
"429 -216 OFFCURVE",
"469 -204 OFFCURVE",
"494 -182 CURVE",
"512 -93 LINE",
"505 -89 LINE",
"483 -109 OFFCURVE",
"469 -114 OFFCURVE",
"450 -114 CURVE SMOOTH",
"426 -114 OFFCURVE",
"409 -98 OFFCURVE",
"409 -74 CURVE SMOOTH",
"409 -43 OFFCURVE",
"430 -15 OFFCURVE",
"503 40 CURVE",
"394 38 LINE",
"347 10 LINE SMOOTH",
"296 -21 OFFCURVE",
"270 -57 OFFCURVE",
"270 -110 CURVE SMOOTH",
"270 -172 OFFCURVE",
"318 -216 OFFCURVE",
"388 -216 CURVE SMOOTH"
);
}
);
width = 582;
}
);
leftKerningGroup = o;
rightKerningGroup = e;
unicode = 0119;
},
{
glyphname = f;
lastChange = "2024-02-12 10:38:50 +0000";
layers = (
{
anchors = (
{
name = bottom;
position = "{204, 0}";
},
{
name = top;
position = "{204, 600}";
}
);
layerId = "9C4F76E1-3798-46C8-A886-41EF97D6106F";
paths = (
{
closed = 1;
nodes = (
"102 460 LINE",
"102 150 LINE",
"92 0 LINE",
"252 0 LINE",
"242 150 LINE",
"242 460 LINE",
"400 460 LINE",
"400 582 LINE",
"242 582 LINE",
"242 615 LINE SMOOTH",
"242 668 OFFCURVE",
"254 684 OFFCURVE",
"301 684 CURVE SMOOTH",
"325 684 OFFCURVE",
"358 680 OFFCURVE",
"398 666 CURVE",
"420 771 LINE",
"384 791 OFFCURVE",
"320 806 OFFCURVE",
"273 806 CURVE SMOOTH",
"152 806 OFFCURVE",
"102 741 OFFCURVE",
"102 600 CURVE",
"102 570 LINE",
"18 530 LINE",
"18 460 LINE"
);
}
);
width = 420;
},
{
anchors = (
{
name = bottom;
position = "{213, 0}";
},
{
name = top;
position = "{213, 600}";
}
);
associatedMasterId = "9C4F76E1-3798-46C8-A886-41EF97D6106F";
background = {
paths = (
{
closed = 1;
nodes = (
"406 794 OFFCURVE",
"346 813 OFFCURVE",
"265 813 CURVE SMOOTH",
"132 813 OFFCURVE",
"56 745 OFFCURVE",
"56 624 CURVE SMOOTH",
"56 531 OFFCURVE",
"103 476 OFFCURVE",
"202 452 CURVE SMOOTH",
"294 430 OFFCURVE",
"330 408 OFFCURVE",
"330 378 CURVE SMOOTH",
"330 361 OFFCURVE",
"329 354 OFFCURVE",
"326 345 CURVE",
"309 338 OFFCURVE",
"276 331 OFFCURVE",
"242 331 CURVE SMOOTH",
"176 331 OFFCURVE",
"107 359 OFFCURVE",
"57 402 CURVE",
"43 398 LINE",
"62 272 LINE",
"111 221 OFFCURVE",
"156 190 OFFCURVE",
"261 190 CURVE SMOOTH",
"401 190 OFFCURVE",
"474 255 OFFCURVE",
"474 383 CURVE SMOOTH",
"474 485 OFFCURVE",
"432 531 OFFCURVE",
"320 554 CURVE SMOOTH",
"226 573 OFFCURVE",
"200 593 OFFCURVE",
"200 633 CURVE SMOOTH",
"200 645 OFFCURVE",
"202 658 OFFCURVE",
"207 667 CURVE",
"218 671 OFFCURVE",
"249 675 OFFCURVE",
"278 675 CURVE SMOOTH",
"330 675 OFFCURVE",
"397 655 OFFCURVE",
"419 619 CURVE",
"433 616 LINE",
"456 749 LINE"
);
}
);
};
layerId = "70E0C0FF-DF63-4588-AF2D-038A7943252E";
name = "Sep 12 17, 14:54";
paths = (
{
closed = 1;
nodes = (
"261 0 LINE",
"251 150 LINE",
"251 615 LINE",
"111 573 LINE",
"111 150 LINE",
"101 0 LINE"
);
},
{
closed = 1;
nodes = (
"409 465 LINE",
"409 600 LINE",
"111 600 LINE",
"47 560 LINE",
"47 465 LINE"
);
},
{
closed = 1;
nodes = (
"251 615 LINE",
"251 658 OFFCURVE",
"269 676 OFFCURVE",
"312 676 CURVE SMOOTH",
"354 676 OFFCURVE",
"372 671 OFFCURVE",
"390 654 CURVE",
"407 664 LINE",
"424 772 LINE",
"395 800 OFFCURVE",
"347 816 OFFCURVE",
"272 816 CURVE SMOOTH",
"158 816 OFFCURVE",
"111 754 OFFCURVE",
"111 573 CURVE"
);
}
);
width = 435;
},
{
anchors = (
{
name = bottom;
position = "{219, 0}";
},
{
name = top;
position = "{219, 600}";
}
);
background = {
paths = (
{
closed = 1;
nodes = (
"139 465 LINE",
"139 150 LINE",
"129 0 LINE",
"289 0 LINE",
"279 150 LINE",
"279 465 LINE",
"437 465 LINE",
"437 600 LINE",
"279 600 LINE",
"279 615 LINE SMOOTH",
"279 659 OFFCURVE",
"299 684 OFFCURVE",
"341 684 CURVE SMOOTH",
"385 684 OFFCURVE",
"403 677 OFFCURVE",
"419 662 CURVE",
"436 672 LINE",
"452 772 LINE",
"421 802 OFFCURVE",
"373 816 OFFCURVE",
"300 816 CURVE SMOOTH",
"189 816 OFFCURVE",
"139 751 OFFCURVE",
"139 600 CURVE",
"75 560 LINE",
"75 465 LINE"
);
},
{
closed = 1;
nodes = (
"224 0 LINE",
"219 150 LINE",
"219 655 LINE",
"224 800 LINE",
"134 800 LINE",
"139 655 LINE",
"139 150 LINE",
"134 0 LINE"
);
}
);
};
layerId = "3B8C7C8F-80C4-4490-BC4D-FB44BC992E9B";
paths = (
{
closed = 1;
nodes = (
"139 527 LINE",
"139 150 LINE",
"134 0 LINE",
"224 0 LINE",
"219 150 LINE",
"219 527 LINE",
"401 527 LINE",
"401 600 LINE",
"219 600 LINE",
"219 649 LINE SMOOTH",
"219 713 OFFCURVE",
"239 738 OFFCURVE",
"297 738 CURVE SMOOTH",
"329 738 OFFCURVE",
"369 723 OFFCURVE",
"381 709 CURVE",
"398 719 LINE",
"408 782 LINE",
"393 798 OFFCURVE",
"332 816 OFFCURVE",
"284 816 CURVE SMOOTH",
"181 816 OFFCURVE",
"139 758 OFFCURVE",
"139 600 CURVE",
"75 576 LINE",
"75 527 LINE"
);
}
);
width = 443;
},
{
anchors = (
{
name = bottom;
position = "{206, 0}";
},
{
name = top;
position = "{206, 600}";
}
);
associatedMasterId = "9C4F76E1-3798-46C8-A886-41EF97D6106F";
background = {
paths = (
{
closed = 1;
nodes = (
"399 794 OFFCURVE",
"339 813 OFFCURVE",
"258 813 CURVE SMOOTH",
"125 813 OFFCURVE",
"49 745 OFFCURVE",
"49 624 CURVE SMOOTH",
"49 531 OFFCURVE",
"96 476 OFFCURVE",
"195 452 CURVE SMOOTH",
"287 430 OFFCURVE",
"323 408 OFFCURVE",
"323 378 CURVE SMOOTH",
"323 361 OFFCURVE",
"322 354 OFFCURVE",
"319 345 CURVE",
"302 338 OFFCURVE",
"269 331 OFFCURVE",
"235 331 CURVE SMOOTH",
"169 331 OFFCURVE",
"100 359 OFFCURVE",
"50 402 CURVE",
"36 398 LINE",
"55 272 LINE",
"104 221 OFFCURVE",
"149 190 OFFCURVE",
"254 190 CURVE SMOOTH",
"394 190 OFFCURVE",
"467 255 OFFCURVE",
"467 383 CURVE SMOOTH",
"467 485 OFFCURVE",
"425 531 OFFCURVE",
"313 554 CURVE SMOOTH",
"219 573 OFFCURVE",
"193 593 OFFCURVE",
"193 633 CURVE SMOOTH",
"193 645 OFFCURVE",
"195 658 OFFCURVE",
"200 667 CURVE",
"211 671 OFFCURVE",
"242 675 OFFCURVE",
"271 675 CURVE SMOOTH",
"323 675 OFFCURVE",
"390 655 OFFCURVE",
"412 619 CURVE",
"426 616 LINE",
"449 749 LINE"
);
}
);
};
layerId = "785F8E98-3B28-41A1-97EE-A3A089E1ECC7";
name = "19 Nov 21, 14:04";
paths = (
{
closed = 1;
nodes = (
"104 465 LINE",
"104 150 LINE",
"94 0 LINE",
"254 0 LINE",
"244 150 LINE",
"244 465 LINE",
"402 465 LINE",
"402 600 LINE",
"244 600 LINE",
"244 615 LINE SMOOTH",
"244 659 OFFCURVE",
"264 684 OFFCURVE",
"306 684 CURVE SMOOTH",
"350 684 OFFCURVE",
"368 677 OFFCURVE",
"384 662 CURVE",
"401 672 LINE",
"417 772 LINE",
"386 802 OFFCURVE",
"338 816 OFFCURVE",
"265 816 CURVE SMOOTH",
"154 816 OFFCURVE",
"104 751 OFFCURVE",
"104 600 CURVE",
"40 560 LINE",
"40 465 LINE"
);
}
);
width = 422;
}
);
unicode = 0066;
},
{
glyphname = g;
lastChange = "2024-02-12 10:04:31 +0000";
layers = (
{
anchors = (
{
name = bottom;
position = "{294, 0}";
},
{
name = top;
position = "{294, 600}";
}
);
background = {
paths = (
{
closed = 1;
nodes = (
"296 -8 OFFCURVE",
"358 19 OFFCURVE",
"382 68 CURVE",
"382 156 LINE",
"359 140 OFFCURVE",
"312 127 OFFCURVE",
"274 127 CURVE SMOOTH",
"201 127 OFFCURVE",
"180 166 OFFCURVE",
"180 301 CURVE SMOOTH",
"180 442 OFFCURVE",
"203 474 OFFCURVE",
"284 474 CURVE SMOOTH",
"321 474 OFFCURVE",
"359 470 OFFCURVE",
"382 461 CURVE",
"406 557 LINE",
"378 591 OFFCURVE",
"316 612 OFFCURVE",
"244 612 CURVE SMOOTH",
"109 612 OFFCURVE",
"36 517 OFFCURVE",
"36 301 CURVE SMOOTH",
"36 101 OFFCURVE",
"114 -8 OFFCURVE",
"244 -8 CURVE SMOOTH"
);
},
{
closed = 1;
nodes = (
"394 -212 OFFCURVE",
"522 -112 OFFCURVE",
"522 91 CURVE SMOOTH",
"522 451 LINE",
"532 600 LINE",
"395 600 LINE",
"384 532 LINE",
"382 532 LINE",
"382 57 LINE SMOOTH",
"382 -38 OFFCURVE",
"268 -96 OFFCURVE",
"137 -96 CURVE",
"130 -104 LINE",
"193 -212 LINE"
);
}
);
};
layerId = "9C4F76E1-3798-46C8-A886-41EF97D6106F";
paths = (
{
closed = 1;
nodes = (
"416 -200 OFFCURVE",
"522 -105 OFFCURVE",
"522 94 CURVE SMOOTH",
"522 455 LINE",
"532 600 LINE",
"393 600 LINE",
"384 504 LINE",
"399 535 LINE",
"371 583 OFFCURVE",
"318 609 OFFCURVE",
"247 609 CURVE SMOOTH",
"108 609 OFFCURVE",
"36 507 OFFCURVE",
"36 308 CURVE SMOOTH",
"36 118 OFFCURVE",
"103 19 OFFCURVE",
"232 19 CURVE SMOOTH",
"308 19 OFFCURVE",
"366 53 OFFCURVE",
"398 115 CURVE",
"382 91 LINE",
"382 69 LINE SMOOTH",
"382 -24 OFFCURVE",
"299 -69 OFFCURVE",
"128 -69 CURVE",
"193 -200 LINE"
);
},
{
closed = 1;
nodes = (
"389 226 LINE",
"365 169 OFFCURVE",
"332 144 OFFCURVE",
"283 144 CURVE SMOOTH",
"212 144 OFFCURVE",
"180 195 OFFCURVE",
"180 308 CURVE SMOOTH",
"180 423 OFFCURVE",
"214 481 OFFCURVE",
"282 481 CURVE SMOOTH",
"340 481 OFFCURVE",
"382 438 OFFCURVE",
"399 361 CURVE",
"382 475 LINE",
"382 153 LINE"
);
}
);
width = 587;
},
{
associatedMasterId = "9C4F76E1-3798-46C8-A886-41EF97D6106F";
layerId = "12A3B219-A79D-4EAB-908F-620024A869A3";
name = "Aug 30 17, 14:43";
paths = (
{
closed = 1;
nodes = (
"380 474 OFFCURVE",
"409 461 OFFCURVE",
"438 432 CURVE",
"453 429 LINE",
"449 485 LINE SMOOTH",
"420 573 OFFCURVE",
"356 612 OFFCURVE",
"258 612 CURVE SMOOTH",
"124 612 OFFCURVE",
"50 502 OFFCURVE",
"50 295 CURVE SMOOTH",
"50 95 OFFCURVE",
"124 -12 OFFCURVE",
"238 -12 CURVE SMOOTH",
"304 -12 OFFCURVE",
"372 26 OFFCURVE",
"396 73 CURVE",
"396 176 LINE",
"364 138 OFFCURVE",
"331 124 OFFCURVE",
"288 124 CURVE SMOOTH",
"228 124 OFFCURVE",
"194 153 OFFCURVE",
"194 289 CURVE SMOOTH",
"192 351 OFFCURVE",
"200 407 OFFCURVE",
"218 450 CURVE",
"239 463 OFFCURVE",
"271 474 OFFCURVE",
"308 474 CURVE SMOOTH"
);
},
{
closed = 1;
nodes = (
"396 -32 OFFCURVE",
"284 -96 OFFCURVE",
"171 -96 CURVE",
"164 -104 LINE",
"227 -212 LINE",
"409 -212 OFFCURVE",
"536 -102 OFFCURVE",
"536 91 CURVE SMOOTH",
"536 451 LINE",
"546 600 LINE",
"409 600 LINE",
"393 502 LINE",
"396 485 LINE",
"396 57 LINE SMOOTH"
);
}
);
width = 615;
},
{
anchors = (
{
name = bottom;
position = "{315, 0}";
},
{
name = top;
position = "{315, 600}";
}
);
background = {
paths = (
{
closed = 1;
nodes = (
"444 -212 OFFCURVE",
"572 -112 OFFCURVE",
"572 91 CURVE SMOOTH",
"572 451 LINE",
"582 600 LINE",
"445 600 LINE",
"429 502 LINE",
"432 485 LINE",
"432 57 LINE SMOOTH",
"432 -38 OFFCURVE",
"318 -96 OFFCURVE",
"187 -96 CURVE",
"180 -104 LINE",
"243 -212 LINE"
);
},
{
closed = 1;
nodes = (
"346 -8 OFFCURVE",
"408 19 OFFCURVE",
"432 68 CURVE",
"432 156 LINE",
"409 140 OFFCURVE",
"362 127 OFFCURVE",
"324 127 CURVE SMOOTH",
"251 127 OFFCURVE",
"230 166 OFFCURVE",
"230 301 CURVE SMOOTH",
"230 442 OFFCURVE",
"253 474 OFFCURVE",
"334 474 CURVE SMOOTH",
"371 474 OFFCURVE",
"409 470 OFFCURVE",
"432 461 CURVE",
"456 557 LINE",
"428 591 OFFCURVE",
"366 612 OFFCURVE",
"294 612 CURVE SMOOTH",
"159 612 OFFCURVE",
"86 517 OFFCURVE",
"86 301 CURVE SMOOTH",
"86 101 OFFCURVE",
"164 -8 OFFCURVE",
"294 -8 CURVE SMOOTH"
);
},
{
closed = 1;
nodes = (
"347 -8 OFFCURVE",
"407 17 OFFCURVE",
"432 55 CURVE",
"432 156 LINE",
"409 140 OFFCURVE",
"362 127 OFFCURVE",
"324 127 CURVE SMOOTH",
"251 127 OFFCURVE",
"230 166 OFFCURVE",
"230 301 CURVE SMOOTH",
"230 442 OFFCURVE",
"253 474 OFFCURVE",
"334 474 CURVE SMOOTH",
"371 474 OFFCURVE",
"409 470 OFFCURVE",
"432 461 CURVE",
"456 557 LINE",
"428 591 OFFCURVE",
"366 612 OFFCURVE",
"294 612 CURVE SMOOTH",
"159 612 OFFCURVE",
"86 517 OFFCURVE",
"86 301 CURVE SMOOTH",
"86 101 OFFCURVE",
"164 -8 OFFCURVE",
"304 -8 CURVE SMOOTH"
);
},
{
closed = 1;
nodes = (
"582 0 LINE",
"572 149 LINE",
"572 655 LINE",
"582 800 LINE",
"422 800 LINE",
"432 655 LINE",
"432 115 LINE",
"429 98 LINE",
"435 0 LINE"
);
}
);
};
layerId = "3B8C7C8F-80C4-4490-BC4D-FB44BC992E9B";
paths = (
{
closed = 1;
nodes = (
"361 -8 OFFCURVE",
"416 23 OFFCURVE",
"443 74 CURVE",
"440 119 LINE",
"412 84 OFFCURVE",
"371 68 OFFCURVE",
"306 68 CURVE SMOOTH",
"202 68 OFFCURVE",
"154 136 OFFCURVE",
"154 301 CURVE SMOOTH",
"154 479 OFFCURVE",
"196 535 OFFCURVE",
"315 535 CURVE SMOOTH",
"383 535 OFFCURVE",
"431 522 OFFCURVE",
"460 500 CURVE",
"471 542 LINE",
"433 587 OFFCURVE",
"374 612 OFFCURVE",
"298 612 CURVE SMOOTH",
"144 612 OFFCURVE",
"70 519 OFFCURVE",
"70 301 CURVE SMOOTH",
"70 95 OFFCURVE",
"154 -8 OFFCURVE",
"300 -8 CURVE SMOOTH"
);
},
{
closed = 1;
nodes = (
"409 -209 OFFCURVE",
"520 -113 OFFCURVE",
"520 95 CURVE SMOOTH",
"520 451 LINE",
"525 600 LINE",
"453 600 LINE",
"443 541 LINE",
"440 541 LINE",
"440 57 LINE SMOOTH",
"440 -58 OFFCURVE",
"340 -139 OFFCURVE",
"171 -139 CURVE",
"164 -147 LINE",
"200 -209 LINE"
);
}
);
width = 615;
},
{
anchors = (
{
name = bottom;
position = "{297, 0}";
},
{
name = top;
position = "{297, 600}";
}
);
associatedMasterId = "9C4F76E1-3798-46C8-A886-41EF97D6106F";
layerId = "B533A68E-9260-44AE-A691-53283258EF24";
name = "19 Nov 21, 15:17";
paths = (
{
closed = 1;
nodes = (
"299 -8 OFFCURVE",
"361 19 OFFCURVE",
"385 68 CURVE",
"385 156 LINE",
"362 140 OFFCURVE",
"315 127 OFFCURVE",
"277 127 CURVE SMOOTH",
"204 127 OFFCURVE",
"183 166 OFFCURVE",
"183 301 CURVE SMOOTH",
"183 442 OFFCURVE",
"206 474 OFFCURVE",
"287 474 CURVE SMOOTH",
"324 474 OFFCURVE",
"362 470 OFFCURVE",
"385 461 CURVE",
"409 557 LINE",
"381 591 OFFCURVE",
"319 612 OFFCURVE",
"247 612 CURVE SMOOTH",
"112 612 OFFCURVE",
"39 517 OFFCURVE",
"39 301 CURVE SMOOTH",
"39 101 OFFCURVE",
"117 -8 OFFCURVE",
"247 -8 CURVE SMOOTH"
);
},
{
closed = 1;
nodes = (
"397 -212 OFFCURVE",
"525 -112 OFFCURVE",
"525 91 CURVE SMOOTH",
"525 451 LINE",
"535 600 LINE",
"398 600 LINE",
"387 532 LINE",
"385 532 LINE",
"385 57 LINE SMOOTH",
"385 -38 OFFCURVE",
"271 -96 OFFCURVE",
"140 -96 CURVE",
"133 -104 LINE",
"196 -212 LINE"
);
}
);
width = 590;
},
{
anchors = (
{
name = bottom;
position = "{294, 0}";
},
{
name = top;
position = "{294, 600}";
}
);
associatedMasterId = "9C4F76E1-3798-46C8-A886-41EF97D6106F";
background = {
paths = (
{
closed = 1;
nodes = (
"296 -8 OFFCURVE",
"358 19 OFFCURVE",
"382 68 CURVE",
"382 156 LINE",
"359 140 OFFCURVE",
"312 127 OFFCURVE",
"274 127 CURVE SMOOTH",
"201 127 OFFCURVE",
"180 166 OFFCURVE",
"180 301 CURVE SMOOTH",
"180 442 OFFCURVE",
"203 474 OFFCURVE",
"284 474 CURVE SMOOTH",
"321 474 OFFCURVE",
"359 470 OFFCURVE",
"382 461 CURVE",
"406 557 LINE",
"378 591 OFFCURVE",
"316 612 OFFCURVE",
"244 612 CURVE SMOOTH",
"109 612 OFFCURVE",
"36 517 OFFCURVE",
"36 301 CURVE SMOOTH",
"36 101 OFFCURVE",
"114 -8 OFFCURVE",
"244 -8 CURVE SMOOTH"
);
},
{
closed = 1;
nodes = (
"394 -212 OFFCURVE",
"522 -112 OFFCURVE",
"522 91 CURVE SMOOTH",
"522 451 LINE",
"532 600 LINE",
"395 600 LINE",
"384 532 LINE",
"382 532 LINE",
"382 57 LINE SMOOTH",
"382 -38 OFFCURVE",
"268 -96 OFFCURVE",
"137 -96 CURVE",
"130 -104 LINE",
"193 -212 LINE"
);
}
);
};
layerId = "ADF795FC-39FC-40C3-AECD-7B7930B65C65";
name = "12 Feb 24 at 17:59";
paths = (
{
closed = 1;
nodes = (
"380 -212 OFFCURVE",
"522 -117 OFFCURVE",
"522 93 CURVE",
"522 455 LINE",
"532 600 LINE",
"393 600 LINE",
"384 504 LINE",
"431 541 LINE",
"364 590 OFFCURVE",
"283 609 OFFCURVE",
"228 609 CURVE SMOOTH",
"106 609 OFFCURVE",
"39 535 OFFCURVE",
"39 301 CURVE SMOOTH",
"39 81 OFFCURVE",
"124 -5 OFFCURVE",
"218 -5 CURVE SMOOTH",
"305 -5 OFFCURVE",
"373 34 OFFCURVE",
"402 99 CURVE",
"382 129 LINE",
"382 66 LINE",
"382 -16 OFFCURVE",
"319 -96 OFFCURVE",
"133 -96 CURVE",
"193 -212 LINE"
);
},
{
closed = 1;
nodes = (
"413 176 LINE",
"385 137 OFFCURVE",
"315 120 OFFCURVE",
"275 120 CURVE SMOOTH",
"218 120 OFFCURVE",
"183 159 OFFCURVE",
"183 301 CURVE SMOOTH",
"183 446 OFFCURVE",
"217 481 OFFCURVE",
"279 481 CURVE SMOOTH",
"322 481 OFFCURVE",
"381 463 OFFCURVE",
"417 439 CURVE",
"382 521 LINE",
"382 86 LINE"
);
}
);
width = 587;
}
);
leftKerningGroup = o;
leftMetricsKey = o;
rightKerningGroup = g;
rightMetricsKey = l;
unicode = 0067;
},
{
glyphname = h;
lastChange = "2024-02-05 04:44:20 +0000";
layers = (
{
anchors = (
{
name = bottom;
position = "{293, 0}";
},
{
name = center;
position = "{188, 702}";
},
{
name = top;
position = "{291, 600}";
}
);
layerId = "9C4F76E1-3798-46C8-A886-41EF97D6106F";
paths = (
{
closed = 1;
nodes = (
"215 0 LINE",
"205 150 LINE",
"205 490 LINE",
"182 430 LINE",
"216 459 OFFCURVE",
"273 480 OFFCURVE",
"319 480 CURVE SMOOTH",
"369 480 OFFCURVE",
"388 455 OFFCURVE",
"388 392 CURVE SMOOTH",
"388 150 LINE",
"378 0 LINE",
"536 0 LINE",
"526 150 LINE",
"526 411 LINE SMOOTH",
"526 540 OFFCURVE",
"467 607 OFFCURVE",
"354 607 CURVE SMOOTH",
"298 607 OFFCURVE",
"248 591 OFFCURVE",
"180 550 CURVE",
"205 512 LINE",
"205 655 LINE",
"215 800 LINE",
"55 800 LINE",
"65 655 LINE",
"65 150 LINE",
"55 0 LINE"
);
}
);
width = 584;
},
{
associatedMasterId = "9C4F76E1-3798-46C8-A886-41EF97D6106F";
layerId = "85C58C6D-63A3-4465-8F49-9F86CDAF4EB9";
name = "Aug 29 17, 15:31";
paths = (
{
closed = 1;
nodes = (
"534 0 LINE",
"524 150 LINE",
"524 444 LINE SMOOTH",
"524 562 OFFCURVE",
"469 617 OFFCURVE",
"369 617 CURVE SMOOTH",
"307 617 OFFCURVE",
"246 583 OFFCURVE",
"209 527 CURVE",
"209 411 LINE",
"244 465 OFFCURVE",
"281 489 OFFCURVE",
"316 489 CURVE SMOOTH",
"358 489 OFFCURVE",
"384 461 OFFCURVE",
"384 417 CURVE SMOOTH",
"384 150 LINE",
"374 0 LINE"
);
},
{
closed = 1;
nodes = (
"229 0 LINE",
"219 150 LINE",
"219 655 LINE",
"229 800 LINE",
"69 800 LINE",
"79 655 LINE",
"79 150 LINE",
"69 0 LINE"
);
}
);
width = 599;
},
{
anchors = (
{
name = bottom;
position = "{317, 0}";
},
{
name = center;
position = "{182, 685}";
},
{
name = top;
position = "{317, 600}";
}
);
layerId = "3B8C7C8F-80C4-4490-BC4D-FB44BC992E9B";
paths = (
{
closed = 1;
nodes = (
"180 0 LINE",
"175 150 LINE",
"175 655 LINE",
"180 800 LINE",
"90 800 LINE",
"95 655 LINE",
"95 150 LINE",
"90 0 LINE"
);
},
{
closed = 1;
nodes = (
"525 0 LINE",
"520 150 LINE",
"520 438 LINE SMOOTH",
"520 546 OFFCURVE",
"462 607 OFFCURVE",
"367 607 CURVE SMOOTH",
"291 607 OFFCURVE",
"211 571 OFFCURVE",
"175 517 CURVE",
"175 451 LINE",
"204 496 OFFCURVE",
"282 534 OFFCURVE",
"337 534 CURVE SMOOTH",
"410 534 OFFCURVE",
"440 498 OFFCURVE",
"440 417 CURVE SMOOTH",
"440 150 LINE",
"435 0 LINE"
);
}
);
width = 610;
},
{
anchors = (
{
name = bottom;
position = "{291, 0}";
},
{
name = center;
position = "{188, 702}";
},
{
name = top;
position = "{291, 600}";
}
);
associatedMasterId = "9C4F76E1-3798-46C8-A886-41EF97D6106F";
layerId = "26C0F71C-2251-4276-849B-17330786C2D3";
name = "19 Nov 21, 10:47";
paths = (
{
closed = 1;
nodes = (
"215 0 LINE",
"205 150 LINE",
"205 655 LINE",
"215 800 LINE",
"55 800 LINE",
"65 655 LINE",
"65 150 LINE",
"55 0 LINE"
);
},
{
closed = 1;
nodes = (
"530 0 LINE",
"520 150 LINE",
"520 434 LINE SMOOTH",
"520 550 OFFCURVE",
"460 607 OFFCURVE",
"369 607 CURVE SMOOTH",
"297 607 OFFCURVE",
"242 583 OFFCURVE",
"205 527 CURVE",
"205 411 LINE",
"240 465 OFFCURVE",
"277 479 OFFCURVE",
"312 479 CURVE SMOOTH",
"354 479 OFFCURVE",
"380 451 OFFCURVE",
"380 407 CURVE SMOOTH",
"380 150 LINE",
"370 0 LINE"
);
}
);
width = 578;
},
{
anchors = (
{
name = bottom;
position = "{293, 0}";
},
{
name = center;
position = "{188, 702}";
},
{
name = top;
position = "{291, 600}";
}
);
associatedMasterId = "9C4F76E1-3798-46C8-A886-41EF97D6106F";
background = {
paths = (
{
closed = 1;
nodes = (
"215 0 LINE",
"205 150 LINE",
"205 655 LINE",
"215 800 LINE",
"55 800 LINE",
"65 655 LINE",
"65 150 LINE",
"55 0 LINE"
);
},
{
closed = 1;
nodes = (
"530 0 LINE",
"520 150 LINE",
"520 434 LINE SMOOTH",
"520 550 OFFCURVE",
"460 607 OFFCURVE",
"369 607 CURVE SMOOTH",
"297 607 OFFCURVE",
"242 583 OFFCURVE",
"205 527 CURVE",
"205 411 LINE",
"240 465 OFFCURVE",
"277 479 OFFCURVE",
"312 479 CURVE SMOOTH",
"354 479 OFFCURVE",
"380 451 OFFCURVE",
"380 407 CURVE SMOOTH",
"380 150 LINE",
"370 0 LINE"
);
}
);
};
layerId = "437E16C3-4C55-4FAA-A884-F5BE820CE43E";
name = "5 Feb 24 at 12:33";
paths = (
{
closed = 1;
nodes = (
"215 0 LINE",
"205 150 LINE",
"205 484 LINE",
"182 401 LINE",
"217 444 OFFCURVE",
"272 474 OFFCURVE",
"321 474 CURVE SMOOTH",
"364 474 OFFCURVE",
"388 453 OFFCURVE",
"388 406 CURVE SMOOTH",
"388 150 LINE",
"378 0 LINE",
"536 0 LINE",
"526 150 LINE",
"526 444 LINE SMOOTH",
"526 547 OFFCURVE",
"472 607 OFFCURVE",
"381 607 CURVE SMOOTH",
"310 607 OFFCURVE",
"245 577 OFFCURVE",
"180 514 CURVE",
"205 512 LINE",
"205 655 LINE",
"215 800 LINE",
"55 800 LINE",
"65 655 LINE",
"65 150 LINE",
"55 0 LINE"
);
}
);
width = 584;
}
);
leftKerningGroup = l;
leftMetricsKey = l;
rightKerningGroup = n;
rightMetricsKey = n;
unicode = 0068;
},
{
glyphname = i;
lastChange = "2017-11-03 02:09:01 +0000";
layers = (
{
anchors = (
{
name = bottom;
position = "{134, 0}";
}
);
components = (
{
name = idotless;
transform = "{1, 0, 0, 1, -2, 0}";
}
);
layerId = "9C4F76E1-3798-46C8-A886-41EF97D6106F";
paths = (
{
closed = 1;
nodes = (
"183 655 OFFCURVE",
"225 685 OFFCURVE",
"225 732 CURVE SMOOTH",
"225 780 OFFCURVE",
"183 810 OFFCURVE",
"134 810 CURVE SMOOTH",
"85 810 OFFCURVE",
"43 780 OFFCURVE",
"43 732 CURVE SMOOTH",
"43 685 OFFCURVE",
"85 655 OFFCURVE",
"134 655 CURVE SMOOTH"
);
}
);
width = 268;
},
{
anchors = (
{
name = bottom;
position = "{135, 0}";
}
);
components = (
{
name = idotless;
}
);
layerId = "3B8C7C8F-80C4-4490-BC4D-FB44BC992E9B";
leftMetricsKey = "=idotless-12";
rightMetricsKey = "=|idotless-12";
paths = (
{
closed = 1;
nodes = (
"167 709 OFFCURVE",
"192 729 OFFCURVE",
"192 756 CURVE SMOOTH",
"192 783 OFFCURVE",
"167 804 OFFCURVE",
"135 804 CURVE SMOOTH",
"103 804 OFFCURVE",
"78 783 OFFCURVE",
"78 756 CURVE SMOOTH",
"78 729 OFFCURVE",
"103 709 OFFCURVE",
"135 709 CURVE SMOOTH"
);
}
);
width = 270;
}
);
leftKerningGroup = i;
leftMetricsKey = "=idotless-12";
rightKerningGroup = i;
rightMetricsKey = "=|idotless-12";
unicode = 0069;
},
{
glyphname = idotless;
lastChange = "2017-11-02 02:51:58 +0000";
layers = (
{
anchors = (
{
name = bottom;
position = "{135, 0}";
},
{
name = ogonek;
position = "{215, 0}";
},
{
name = top;
position = "{135, 600}";
}
);
layerId = "9C4F76E1-3798-46C8-A886-41EF97D6106F";
paths = (
{
closed = 1;
nodes = (
"215 0 LINE",
"205 150 LINE",
"205 455 LINE",
"215 600 LINE",
"55 600 LINE",
"65 455 LINE",
"65 150 LINE",
"55 0 LINE"
);
}
);
width = 270;
},
{
anchors = (
{
name = bottom;
position = "{135, 0}";
},
{
name = ogonek;
position = "{226, 10}";
},
{
name = top;
position = "{135, 600}";
}
);
layerId = "3B8C7C8F-80C4-4490-BC4D-FB44BC992E9B";
paths = (
{
closed = 1;
nodes = (
"180 0 LINE",
"175 150 LINE",
"175 455 LINE",
"180 600 LINE",
"90 600 LINE",
"95 455 LINE",
"95 150 LINE",
"90 0 LINE"
);
}
);
width = 270;
}
);
leftMetricsKey = "=n";
rightMetricsKey = "=|n";
unicode = 0131;
},
{
glyphname = iogonek;
lastChange = "2017-11-02 09:47:21 +0000";
layers = (
{
components = (
{
name = idotless;
},
{
name = dotaccentcomb;
transform = "{1, 0, 0, 1, 18, 0}";
}
);
layerId = "3B8C7C8F-80C4-4490-BC4D-FB44BC992E9B";
paths = (
{
closed = 1;
nodes = (
"181 -216 OFFCURVE",
"205 -206 OFFCURVE",
"232 -182 CURVE",
"243 -125 LINE",
"236 -121 LINE",
"215 -140 OFFCURVE",
"199 -147 OFFCURVE",
"175 -147 CURVE SMOOTH",
"136 -147 OFFCURVE",
"111 -125 OFFCURVE",
"111 -86 CURVE SMOOTH",
"111 -48 OFFCURVE",
"139 -11 OFFCURVE",
"180 0 CURVE",
"123 26 LINE",
"90 0 LINE SMOOTH",
"54 -28 OFFCURVE",
"34 -68 OFFCURVE",
"34 -113 CURVE SMOOTH",
"34 -175 OFFCURVE",
"76 -216 OFFCURVE",
"145 -216 CURVE SMOOTH"
);
}
);
width = 271;
},
{
components = (
{
name = idotless;
},
{
name = dotaccentcomb;
transform = "{1, 0, 0, 1, -16, 0}";
}
);
layerId = "9C4F76E1-3798-46C8-A886-41EF97D6106F";
paths = (
{
closed = 1;
nodes = (
"183 -216 OFFCURVE",
"226 -202 OFFCURVE",
"256 -175 CURVE",
"274 -86 LINE",
"267 -82 LINE",
"242 -105 OFFCURVE",
"223 -114 OFFCURVE",
"205 -114 CURVE SMOOTH",
"177 -114 OFFCURVE",
"159 -98 OFFCURVE",
"159 -74 CURVE SMOOTH",
"159 -43 OFFCURVE",
"171 -26 OFFCURVE",
"215 0 CURVE",
"92 45 LINE",
"55 0 LINE SMOOTH",
"30 -30 OFFCURVE",
"20 -56 OFFCURVE",
"20 -99 CURVE SMOOTH",
"20 -169 OFFCURVE",
"69 -216 OFFCURVE",
"143 -216 CURVE SMOOTH"
);
}
);
width = 271;
}
);
unicode = 012F;
},
{
glyphname = j;
lastChange = "2021-11-22 03:44:43 +0000";
layers = (
{
components = (
{
name = jdotless;
transform = "{1, 0, 0, 1, 22, 0}";
}
);
layerId = "9C4F76E1-3798-46C8-A886-41EF97D6106F";
paths = (
{
closed = 1;
nodes = (
"205 655 OFFCURVE",
"247 685 OFFCURVE",
"247 732 CURVE SMOOTH",
"247 780 OFFCURVE",
"205 810 OFFCURVE",
"156 810 CURVE SMOOTH",
"107 810 OFFCURVE",
"65 780 OFFCURVE",
"65 732 CURVE SMOOTH",
"65 685 OFFCURVE",
"107 655 OFFCURVE",
"156 655 CURVE SMOOTH"
);
}
);
width = 290;
},
{
components = (
{
name = jdotless;
}
);
hints = (
{
origin = "{0, 8}";
target = "{0, 2}";
type = Stem;
}
);
layerId = "3B8C7C8F-80C4-4490-BC4D-FB44BC992E9B";
rightMetricsKey = "=jdotless-12";
paths = (
{
closed = 1;
nodes = (
"174 709 OFFCURVE",
"199 729 OFFCURVE",
"199 756 CURVE SMOOTH",
"199 783 OFFCURVE",
"174 804 OFFCURVE",
"142 804 CURVE SMOOTH",
"110 804 OFFCURVE",
"85 783 OFFCURVE",
"85 756 CURVE SMOOTH",
"85 729 OFFCURVE",
"110 709 OFFCURVE",
"142 709 CURVE SMOOTH"
);
}
);
width = 277;
}
);
leftKerningGroup = j;
rightKerningGroup = i;
rightMetricsKey = "=jdotless-12";
unicode = 006A;
},
{
glyphname = jdotless;
lastChange = "2024-02-12 10:08:21 +0000";
layers = (
{
anchors = (
{
name = bottom;
position = "{132, 0}";
},
{
name = top;
position = "{132, 600}";
}
);
layerId = "9C4F76E1-3798-46C8-A886-41EF97D6106F";
paths = (
{
closed = 1;
nodes = (
"64 455 LINE",
"64 73 LINE",
"64 0 OFFCURVE",
"18 -50 OFFCURVE",
"-79 -81 CURVE",
"-4 -205 LINE",
"140 -168 OFFCURVE",
"204 -81 OFFCURVE",
"204 77 CURVE",
"204 455 LINE",
"214 600 LINE",
"54 600 LINE"
);
}
);
width = 269;
},
{
anchors = (
{
name = bottom;
position = "{140, 0}";
},
{
name = top;
position = "{140, 600}";
}
);
background = {
paths = (
{
closed = 1;
nodes = (
"87 -174 OFFCURVE",
"139 -108 OFFCURVE",
"182 0 CURVE",
"42 25 LINE",
"-1 -50 OFFCURVE",
"-58 -93 OFFCURVE",
"-79 -93 CURVE",
"-87 -103 LINE",
"32 -216 LINE"
);
}
);
};
hints = (
{
origin = "{0, 1}";
target = "{0, 2}";
type = Stem;
}
);
layerId = "3B8C7C8F-80C4-4490-BC4D-FB44BC992E9B";
paths = (
{
closed = 1;
nodes = (
"102 455 LINE",
"102 25 LINE",
"182 0 LINE",
"182 455 LINE",
"187 600 LINE",
"97 600 LINE"
);
},
{
closed = 1;
nodes = (
"87 -174 OFFCURVE",
"139 -108 OFFCURVE",
"182 0 CURVE",
"102 25 LINE",
"75 -59 OFFCURVE",
"5 -143 OFFCURVE",
"-27 -143 CURVE",
"-35 -153 LINE",
"32 -216 LINE"
);
}
);
width = 277;
},
{
anchors = (
{
name = bottom;
position = "{132, 0}";
},
{
name = top;
position = "{132, 600}";
}
);
associatedMasterId = "9C4F76E1-3798-46C8-A886-41EF97D6106F";
layerId = "0623ED29-2756-421D-818F-64669F5B6CB8";
name = "22 Nov 21, 11:40";
paths = (
{
closed = 1;
nodes = (
"64 455 LINE",
"64 39 LINE",
"204 0 LINE",
"204 455 LINE",
"214 600 LINE",
"54 600 LINE"
);
},
{
closed = 1;
nodes = (
"109 -174 OFFCURVE",
"161 -108 OFFCURVE",
"204 0 CURVE",
"64 39 LINE",
"21 -36 OFFCURVE",
"-36 -93 OFFCURVE",
"-57 -93 CURVE",
"-65 -103 LINE",
"54 -216 LINE"
);
}
);
width = 269;
},
{
anchors = (
{
name = bottom;
position = "{132, 0}";
},
{
name = top;
position = "{132, 600}";
}
);
associatedMasterId = "9C4F76E1-3798-46C8-A886-41EF97D6106F";
layerId = "B1FD3B4A-CE2C-4C5F-9026-A54A6C15D04B";
name = "12 Feb 24 at 18:06";
paths = (
{
closed = 1;
nodes = (
"64 455 LINE",
"64 84 LINE",
"64 -8 OFFCURVE",
"31 -50 OFFCURVE",
"-69 -85 CURVE",
"-4 -205 LINE",
"140 -168 OFFCURVE",
"204 -81 OFFCURVE",
"204 77 CURVE",
"204 455 LINE",
"214 600 LINE",
"54 600 LINE"
);
}
);
width = 269;
}
);
leftKerningGroup = j;
rightMetricsKey = "=|n";
unicode = 0237;
},
{
glyphname = k;
lastChange = "2021-11-22 03:46:43 +0000";
layers = (
{
anchors = (
{
name = bottom;
position = "{287, 0}";
},
{
name = top;
position = "{287, 800}";
}
);
hints = (
{
origin = "{0, 6}";
target = "{0, 1}";
type = Stem;
}
);
layerId = "9C4F76E1-3798-46C8-A886-41EF97D6106F";
paths = (
{
closed = 1;
nodes = (
"213 0 LINE",
"203 150 LINE",
"203 655 LINE",
"213 800 LINE",
"55 800 LINE",
"65 655 LINE",
"65 150 LINE",
"55 0 LINE"
);
},
{
closed = 1;
nodes = (
"432 455 LINE",
"562 600 LINE",
"369 600 LINE",
"287 455 LINE",
"161 287 LINE",
"181 145 LINE"
);
},
{
closed = 1;
nodes = (
"581 0 LINE",
"494 145 LINE",
"373 383 LINE",
"233 383 LINE",
"347 145 LINE",
"398 0 LINE"
);
}
);
width = 576;
},
{
anchors = (
{
name = bottom;
position = "{281, 0}";
},
{
name = top;
position = "{281, 800}";
}
);
layerId = "3B8C7C8F-80C4-4490-BC4D-FB44BC992E9B";
paths = (
{
closed = 1;
nodes = (
"180 0 LINE",
"175 150 LINE",
"175 655 LINE",
"180 800 LINE",
"90 800 LINE",
"95 655 LINE",
"95 150 LINE",
"90 0 LINE"
);
},
{
closed = 1;
nodes = (
"384 455 LINE",
"520 600 LINE",
"401 600 LINE",
"286 455 LINE",
"144 287 LINE",
"158 195 LINE"
);
},
{
closed = 1;
nodes = (
"564 0 LINE",
"458 145 LINE",
"305 371 LINE",
"218 371 LINE",
"364 145 LINE",
"450 0 LINE"
);
}
);
width = 582;
}
);
leftKerningGroup = l;
leftMetricsKey = l;
rightKerningGroup = k;
unicode = 006B;
},
{
glyphname = l;
lastChange = "2017-11-02 02:51:58 +0000";
layers = (
{
anchors = (
{
name = bottom;
position = "{135, 0}";
},
{
name = center;
position = "{135, 300}";
},
{
name = top;
position = "{135, 800}";
},
{
name = topright;
position = "{335, 600}";
}
);
hints = (
{
origin = "{0, 6}";
target = "{0, 1}";
type = Stem;
}
);
layerId = "9C4F76E1-3798-46C8-A886-41EF97D6106F";
paths = (
{
closed = 1;
nodes = (
"215 0 LINE",
"205 150 LINE",
"205 655 LINE",
"215 800 LINE",
"55 800 LINE",
"65 655 LINE",
"65 150 LINE",
"55 0 LINE"
);
}
);
width = 270;
},
{
anchors = (
{
name = bottom;
position = "{135, 0}";
},
{
name = center;
position = "{135, 300}";
},
{
name = top;
position = "{135, 800}";
},
{
name = topright;
position = "{281, 600}";
}
);
layerId = "3B8C7C8F-80C4-4490-BC4D-FB44BC992E9B";
paths = (
{
closed = 1;
nodes = (
"180 0 LINE",
"175 150 LINE",
"175 655 LINE",
"180 800 LINE",
"90 800 LINE",
"95 655 LINE",
"95 150 LINE",
"90 0 LINE"
);
}
);
width = 270;
}
);
leftKerningGroup = l;
leftMetricsKey = n;
rightKerningGroup = l;
rightMetricsKey = "=|n";
unicode = 006C;
},
{
glyphname = lslash;
lastChange = "2017-11-02 05:16:47 +0000";
layers = (
{
components = (
{
name = l;
transform = "{1, 0, 0, 1, 27, 0}";
}
);
layerId = "9C4F76E1-3798-46C8-A886-41EF97D6106F";
paths = (
{
closed = 1;
nodes = (
"25 275 LINE",
"299 428 LINE",
"299 556 LINE",
"25 403 LINE"
);
}
);
width = 324;
},
{
background = {
paths = (
{
closed = 1;
nodes = (
"87 322 LINE",
"263 421 LINE",
"263 509 LINE",
"87 410 LINE"
);
}
);
};
components = (
{
name = l;
transform = "{1, 0, 0, 1, 40, 0}";
}
);
layerId = "3B8C7C8F-80C4-4490-BC4D-FB44BC992E9B";
paths = (
{
closed = 1;
nodes = (
"30 303 LINE",
"320 453 LINE",
"320 528 LINE",
"30 378 LINE"
);
}
);
width = 350;
},
{
associatedMasterId = "3B8C7C8F-80C4-4490-BC4D-FB44BC992E9B";
background = {
paths = (
{
closed = 1;
nodes = (
"87 322 LINE",
"263 421 LINE",
"263 509 LINE",
"87 410 LINE"
);
}
);
};
components = (
{
name = l;
transform = "{1, 0, 0, 1, 40, 0}";
}
);
layerId = "F327E221-E27A-4E68-A473-9345B3970505";
name = "Nov 2 17, 13:16";
paths = (
{
closed = 1;
nodes = (
"50 308 LINE",
"300 449 LINE",
"300 524 LINE",
"50 383 LINE"
);
}
);
width = 350;
}
);
unicode = 0142;
},
{
glyphname = m;
lastChange = "2024-02-05 08:55:06 +0000";
layers = (
{
anchors = (
{
name = bottom;
position = "{431, 0}";
},
{
name = top;
position = "{428, 600}";
}
);
layerId = "9C4F76E1-3798-46C8-A886-41EF97D6106F";
paths = (
{
closed = 1;
nodes = (
"510 0 LINE",
"500 150 LINE",
"500 434 LINE SMOOTH",
"500 546 OFFCURVE",
"450 607 OFFCURVE",
"357 607 CURVE SMOOTH",
"302 607 OFFCURVE",
"242 586 OFFCURVE",
"180 541 CURVE",
"207 479 LINE",
"184 600 LINE",
"55 600 LINE",
"65 455 LINE",
"65 150 LINE",
"55 0 LINE",
"215 0 LINE",
"205 150 LINE",
"205 484 LINE",
"182 427 LINE",
"215 457 OFFCURVE",
"261 477 OFFCURVE",
"304 477 CURVE SMOOTH",
"342 477 OFFCURVE",
"362 461 OFFCURVE",
"362 408 CURVE SMOOTH",
"362 150 LINE",
"352 0 LINE"
);
},
{
closed = 1;
nodes = (
"465 417 LINE",
"495 452 OFFCURVE",
"549 477 OFFCURVE",
"597 477 CURVE SMOOTH",
"635 477 OFFCURVE",
"655 461 OFFCURVE",
"655 408 CURVE SMOOTH",
"655 150 LINE",
"645 0 LINE",
"803 0 LINE",
"793 150 LINE",
"793 434 LINE SMOOTH",
"793 546 OFFCURVE",
"743 607 OFFCURVE",
"650 607 CURVE SMOOTH",
"590 607 OFFCURVE",
"525 582 OFFCURVE",
"457 530 CURVE"
);
}
);
width = 851;
},
{
anchors = (
{
name = bottom;
position = "{420, 0}";
},
{
name = top;
position = "{420, 600}";
}
);
layerId = "3B8C7C8F-80C4-4490-BC4D-FB44BC992E9B";
paths = (
{
closed = 1;
nodes = (
"180 0 LINE",
"175 150 LINE",
"175 517 LINE",
"155 600 LINE",
"90 600 LINE",
"95 455 LINE",
"95 150 LINE",
"90 0 LINE"
);
},
{
closed = 1;
nodes = (
"500 0 LINE",
"495 150 LINE",
"495 438 LINE SMOOTH",
"495 546 OFFCURVE",
"437 607 OFFCURVE",
"342 607 CURVE SMOOTH",
"266 607 OFFCURVE",
"186 571 OFFCURVE",
"150 517 CURVE",
"150 451 LINE",
"179 496 OFFCURVE",
"257 534 OFFCURVE",
"312 534 CURVE SMOOTH",
"385 534 OFFCURVE",
"415 498 OFFCURVE",
"415 417 CURVE SMOOTH",
"415 150 LINE",
"410 0 LINE"
);
},
{
closed = 1;
nodes = (
"820 0 LINE",
"815 150 LINE",
"815 438 LINE SMOOTH",
"815 546 OFFCURVE",
"757 607 OFFCURVE",
"662 607 CURVE SMOOTH",
"586 607 OFFCURVE",
"506 571 OFFCURVE",
"470 517 CURVE",
"470 451 LINE",
"499 496 OFFCURVE",
"577 534 OFFCURVE",
"632 534 CURVE SMOOTH",
"705 534 OFFCURVE",
"735 498 OFFCURVE",
"735 417 CURVE SMOOTH",
"735 150 LINE",
"730 0 LINE"
);
}
);
width = 905;
},
{
anchors = (
{
name = bottom;
position = "{428, 0}";
},
{
name = top;
position = "{428, 600}";
}
);
associatedMasterId = "9C4F76E1-3798-46C8-A886-41EF97D6106F";
layerId = "ED29CEF7-CEA9-46BC-B25C-CC912D704EB6";
name = "20 Nov 21, 09:49";
paths = (
{
closed = 1;
nodes = (
"215 0 LINE",
"205 150 LINE",
"205 527 LINE",
"185 600 LINE",
"55 600 LINE",
"65 455 LINE",
"65 150 LINE",
"55 0 LINE"
);
},
{
closed = 1;
nodes = (
"510 0 LINE",
"500 150 LINE",
"500 434 LINE SMOOTH",
"500 550 OFFCURVE",
"440 607 OFFCURVE",
"349 607 CURVE SMOOTH",
"277 607 OFFCURVE",
"222 577 OFFCURVE",
"185 517 CURVE",
"185 411 LINE",
"220 465 OFFCURVE",
"257 479 OFFCURVE",
"292 479 CURVE SMOOTH",
"334 479 OFFCURVE",
"360 451 OFFCURVE",
"360 407 CURVE SMOOTH",
"360 150 LINE",
"350 0 LINE"
);
},
{
closed = 1;
nodes = (
"805 0 LINE",
"795 150 LINE",
"795 434 LINE SMOOTH",
"795 550 OFFCURVE",
"735 607 OFFCURVE",
"644 607 CURVE SMOOTH",
"572 607 OFFCURVE",
"517 577 OFFCURVE",
"480 517 CURVE",
"480 411 LINE",
"515 465 OFFCURVE",
"552 479 OFFCURVE",
"587 479 CURVE SMOOTH",
"629 479 OFFCURVE",
"655 451 OFFCURVE",
"655 407 CURVE SMOOTH",
"655 150 LINE",
"645 0 LINE"
);
}
);
width = 853;
}
);
leftKerningGroup = n;
leftMetricsKey = n;
rightKerningGroup = n;
rightMetricsKey = n;
unicode = 006D;
},
{
glyphname = n;
lastChange = "2024-02-05 04:44:10 +0000";
layers = (
{
anchors = (
{
name = bottom;
position = "{294, 0}";
},
{
name = top;
position = "{293, 600}";
}
);
annotations = (
{
position = "{408, 149}";
text = "Thiner than left stem";
type = Text;
}
);
background = {
backgroundImage = {
imagePath = "../reference/20170828_180759.jpg";
transform = "{1.709, 0, 0, 1.75, -3009, -2204}";
};
};
layerId = "9C4F76E1-3798-46C8-A886-41EF97D6106F";
paths = (
{
closed = 1;
nodes = (
"215 0 LINE",
"205 150 LINE",
"205 490 LINE",
"182 419 LINE",
"230 459 OFFCURVE",
"276 480 OFFCURVE",
"320 480 CURVE SMOOTH",
"368 480 OFFCURVE",
"388 454 OFFCURVE",
"388 392 CURVE SMOOTH",
"388 150 LINE",
"378 0 LINE",
"536 0 LINE",
"526 150 LINE",
"526 411 LINE SMOOTH",
"526 539 OFFCURVE",
"468 607 OFFCURVE",
"357 607 CURVE SMOOTH",
"297 607 OFFCURVE",
"247 587 OFFCURVE",
"180 537 CURVE",
"205 512 LINE",
"205 490 LINE",
"194 600 LINE",
"55 600 LINE",
"65 455 LINE",
"65 150 LINE",
"55 0 LINE"
);
}
);
width = 584;
},
{
anchors = (
{
name = bottom;
position = "{302, 0}";
},
{
name = top;
position = "{306, 600}";
}
);
layerId = "3B8C7C8F-80C4-4490-BC4D-FB44BC992E9B";
paths = (
{
closed = 1;
nodes = (
"525 0 LINE",
"520 150 LINE",
"520 438 LINE SMOOTH",
"520 546 OFFCURVE",
"462 607 OFFCURVE",
"367 607 CURVE SMOOTH",
"291 607 OFFCURVE",
"211 571 OFFCURVE",
"175 517 CURVE",
"175 451 LINE",
"204 496 OFFCURVE",
"282 534 OFFCURVE",
"337 534 CURVE SMOOTH",
"410 534 OFFCURVE",
"440 498 OFFCURVE",
"440 417 CURVE SMOOTH",
"440 150 LINE",
"435 0 LINE"
);
},
{
closed = 1;
nodes = (
"180 0 LINE",
"175 150 LINE",
"175 517 LINE",
"155 600 LINE",
"90 600 LINE",
"95 455 LINE",
"95 150 LINE",
"90 0 LINE"
);
}
);
width = 610;
},
{
associatedMasterId = "3B8C7C8F-80C4-4490-BC4D-FB44BC992E9B";
layerId = "0FAAB809-DB36-49D3-8C3D-E3E0A7C17A6B";
name = "Sep 19 17, 11:12";
paths = (
{
closed = 1;
nodes = (
"489 0 LINE",
"479 150 LINE",
"479 444 LINE SMOOTH",
"479 547 OFFCURVE",
"425 607 OFFCURVE",
"323 607 CURVE SMOOTH",
"251 607 OFFCURVE",
"191 583 OFFCURVE",
"154 527 CURVE",
"154 461 LINE",
"184 507 OFFCURVE",
"247 534 OFFCURVE",
"306 534 CURVE SMOOTH",
"368 534 OFFCURVE",
"399 499 OFFCURVE",
"399 417 CURVE SMOOTH",
"399 150 LINE",
"389 0 LINE"
);
},
{
closed = 1;
nodes = (
"164 0 LINE",
"154 150 LINE",
"154 527 LINE",
"134 600 LINE",
"64 600 LINE",
"74 455 LINE",
"74 150 LINE",
"64 0 LINE"
);
}
);
width = 543;
},
{
anchors = (
{
name = bottom;
position = "{272, 0}";
},
{
name = top;
position = "{272, 600}";
}
);
associatedMasterId = "3B8C7C8F-80C4-4490-BC4D-FB44BC992E9B";
layerId = "E8C7E8B7-B51E-43A3-91BC-8BC8D471701D";
name = "Sep 19 17, 14:32";
paths = (
{
closed = 1;
nodes = (
"484 0 LINE",
"479 150 LINE",
"479 444 LINE SMOOTH",
"479 547 OFFCURVE",
"425 607 OFFCURVE",
"323 607 CURVE SMOOTH",
"251 607 OFFCURVE",
"191 583 OFFCURVE",
"154 527 CURVE",
"154 461 LINE",
"184 507 OFFCURVE",
"247 534 OFFCURVE",
"306 534 CURVE SMOOTH",
"368 534 OFFCURVE",
"399 499 OFFCURVE",
"399 417 CURVE SMOOTH",
"399 150 LINE",
"394 0 LINE"
);
},
{
closed = 1;
nodes = (
"159 0 LINE",
"154 150 LINE",
"154 527 LINE",
"134 600 LINE",
"69 600 LINE",
"74 455 LINE",
"74 150 LINE",
"69 0 LINE"
);
}
);
width = 543;
},
{
anchors = (
{
name = bottom;
position = "{291, 0}";
},
{
name = top;
position = "{293, 600}";
}
);
associatedMasterId = "9C4F76E1-3798-46C8-A886-41EF97D6106F";
background = {
backgroundImage = {
imagePath = "../reference/20170828_180759.jpg";
transform = "{1.709, 0, 0, 1.75, -3009, -2204}";
};
paths = (
{
closed = 1;
nodes = (
"476 -16 OFFCURVE",
"550 97 OFFCURVE",
"550 301 CURVE SMOOTH",
"550 505 OFFCURVE",
"476 616 OFFCURVE",
"292 616 CURVE SMOOTH",
"108 616 OFFCURVE",
"34 505 OFFCURVE",
"34 301 CURVE SMOOTH",
"34 97 OFFCURVE",
"108 -16 OFFCURVE",
"292 -16 CURVE SMOOTH"
);
},
{
closed = 1;
nodes = (
"208 124 OFFCURVE",
"178 167 OFFCURVE",
"178 301 CURVE SMOOTH",
"178 361 OFFCURVE",
"184 414 OFFCURVE",
"202 456 CURVE",
"223 469 OFFCURVE",
"265 478 OFFCURVE",
"302 478 CURVE SMOOTH",
"376 478 OFFCURVE",
"406 435 OFFCURVE",
"406 301 CURVE SMOOTH",
"406 241 OFFCURVE",
"400 188 OFFCURVE",
"382 146 CURVE",
"361 133 OFFCURVE",
"319 124 OFFCURVE",
"282 124 CURVE SMOOTH"
);
}
);
};
layerId = "1FA8F598-082E-48F3-854C-B892188D185E";
name = "19 Nov 21, 10:18";
paths = (
{
closed = 1;
nodes = (
"530 0 LINE",
"520 150 LINE",
"520 434 LINE SMOOTH",
"520 550 OFFCURVE",
"460 607 OFFCURVE",
"369 607 CURVE SMOOTH",
"297 607 OFFCURVE",
"242 583 OFFCURVE",
"205 527 CURVE",
"205 411 LINE",
"240 465 OFFCURVE",
"277 479 OFFCURVE",
"312 479 CURVE SMOOTH",
"354 479 OFFCURVE",
"380 451 OFFCURVE",
"380 407 CURVE SMOOTH",
"380 150 LINE",
"370 0 LINE"
);
},
{
closed = 1;
nodes = (
"215 0 LINE",
"205 150 LINE",
"205 527 LINE",
"185 600 LINE",
"55 600 LINE",
"65 455 LINE",
"65 150 LINE",
"55 0 LINE"
);
}
);
width = 578;
},
{
anchors = (
{
name = bottom;
position = "{294, 0}";
},
{
name = top;
position = "{293, 600}";
}
);
annotations = (
{
position = "{408, 149}";
text = "Thiner than left stem";
type = Text;
}
);
associatedMasterId = "9C4F76E1-3798-46C8-A886-41EF97D6106F";
background = {
backgroundImage = {
imagePath = "../reference/20170828_180759.jpg";
transform = "{1.709, 0, 0, 1.75, -3009, -2204}";
};
};
layerId = "BC68A2E3-E149-48E3-8C74-0FAC9120A837";
name = "5 Feb 24 at 12:40";
paths = (
{
closed = 1;
nodes = (
"536 0 LINE",
"526 150 LINE",
"526 444 LINE SMOOTH",
"526 547 OFFCURVE",
"472 607 OFFCURVE",
"381 607 CURVE SMOOTH",
"310 607 OFFCURVE",
"245 577 OFFCURVE",
"180 514 CURVE",
"207 479 LINE",
"194 600 LINE",
"55 600 LINE",
"65 455 LINE",
"65 150 LINE",
"55 0 LINE",
"215 0 LINE",
"205 150 LINE",
"205 484 LINE",
"182 401 LINE",
"217 444 OFFCURVE",
"272 474 OFFCURVE",
"321 474 CURVE SMOOTH",
"364 474 OFFCURVE",
"388 453 OFFCURVE",
"388 406 CURVE SMOOTH",
"388 150 LINE",
"378 0 LINE"
);
}
);
width = 584;
}
);
leftKerningGroup = n;
rightKerningGroup = n;
unicode = 006E;
},
{
glyphname = eng;
lastChange = "2017-11-02 02:52:12 +0000";
layers = (
{
anchors = (
{
name = bottom;
position = "{291, 0}";
},
{
name = top;
position = "{293, 600}";
}
);
layerId = "9C4F76E1-3798-46C8-A886-41EF97D6106F";
paths = (
{
closed = 1;
nodes = (
"215 0 LINE",
"205 150 LINE",
"205 527 LINE",
"185 600 LINE",
"55 600 LINE",
"65 455 LINE",
"65 150 LINE",
"55 0 LINE"
);
},
{
closed = 1;
nodes = (
"520 150 LINE",
"520 434 LINE SMOOTH",
"520 550 OFFCURVE",
"460 607 OFFCURVE",
"369 607 CURVE SMOOTH",
"297 607 OFFCURVE",
"242 583 OFFCURVE",
"205 527 CURVE",
"205 411 LINE",
"240 465 OFFCURVE",
"277 479 OFFCURVE",
"312 479 CURVE SMOOTH",
"354 479 OFFCURVE",
"380 451 OFFCURVE",
"380 407 CURVE SMOOTH",
"380 150 LINE"
);
},
{
closed = 1;
nodes = (
"427 -212 OFFCURVE",
"520 -112 OFFCURVE",
"520 27 CURVE SMOOTH",
"520 244 LINE",
"380 244 LINE",
"380 43 LINE SMOOTH",
"380 -44 OFFCURVE",
"329 -96 OFFCURVE",
"260 -96 CURVE",
"253 -104 LINE",
"316 -212 LINE"
);
}
);
width = 575;
},
{
anchors = (
{
name = bottom;
position = "{302, 0}";
},
{
name = top;
position = "{306, 600}";
}
);
layerId = "3B8C7C8F-80C4-4490-BC4D-FB44BC992E9B";
paths = (
{
closed = 1;
nodes = (
"180 0 LINE",
"175 150 LINE",
"175 517 LINE",
"155 600 LINE",
"90 600 LINE",
"95 455 LINE",
"95 150 LINE",
"90 0 LINE"
);
},
{
closed = 1;
nodes = (
"520 186 LINE",
"520 438 LINE",
"520 546 OFFCURVE",
"462 607 OFFCURVE",
"367 607 CURVE SMOOTH",
"291 607 OFFCURVE",
"211 571 OFFCURVE",
"175 517 CURVE",
"175 451 LINE",
"204 496 OFFCURVE",
"282 534 OFFCURVE",
"337 534 CURVE SMOOTH",
"410 534 OFFCURVE",
"440 498 OFFCURVE",
"440 417 CURVE",
"440 186 LINE"
);
},
{
closed = 1;
nodes = (
"428 -209 OFFCURVE",
"520 -109 OFFCURVE",
"520 41 CURVE SMOOTH",
"520 275 LINE",
"440 275 LINE",
"440 57 LINE SMOOTH",
"440 -66 OFFCURVE",
"373 -139 OFFCURVE",
"257 -139 CURVE",
"250 -147 LINE",
"286 -209 LINE SMOOTH"
);
}
);
width = 610;
}
);
leftMetricsKey = n;
rightMetricsKey = g;
unicode = 014B;
},
